<svg width="160" height="64" viewBox="0 0 160 64" fill="none" xmlns="http://www.w3.org/2000/svg">
<path d="M72.4864 33.1804C72.4864 38.4242 68.3752 42.2883 63.3299 42.2883C58.2845 42.2883 54.1733 38.4242 54.1733 33.1804C54.1733 27.8996 58.2845 24.0725 63.3299 24.0725C68.3752 24.0725 72.4864 27.8996 72.4864 33.1804ZM68.4781 33.1804C68.4781 29.9035 66.0953 27.6615 63.3299 27.6615C60.5644 27.6615 58.1816 29.9035 58.1816 33.1804C58.1816 36.4244 60.5644 38.6993 63.3299 38.6993C66.0953 38.6993 68.4781 36.4203 68.4781 33.1804Z" fill="#C3CBCD"/>
<path d="M92.2398 33.1804C92.2398 38.4242 88.1286 42.2883 83.0833 42.2883C78.0379 42.2883 73.9268 38.4242 73.9268 33.1804C73.9268 27.9037 78.0379 24.0725 83.0833 24.0725C88.1286 24.0725 92.2398 27.8996 92.2398 33.1804ZM88.2315 33.1804C88.2315 29.9035 85.8488 27.6615 83.0833 27.6615C80.3178 27.6615 77.9351 29.9035 77.9351 33.1804C77.9351 36.4244 80.3178 38.6993 83.0833 38.6993C85.8488 38.6993 88.2315 36.4203 88.2315 33.1804Z" fill="#C3CBCD"/>
<path d="M111.17 24.6228V40.9742C111.17 47.7004 107.195 50.4476 102.495 50.4476C98.0711 50.4476 95.4085 47.4951 94.4044 45.0806L97.8942 43.631C98.5156 45.1134 100.038 46.8627 102.491 46.8627C105.499 46.8627 107.363 45.0108 107.363 41.5245V40.2146H107.224C106.326 41.3192 104.598 42.2842 102.417 42.2842C97.853 42.2842 93.6719 38.3174 93.6719 33.2132C93.6719 28.0721 97.853 24.0725 102.417 24.0725C104.594 24.0725 106.322 25.0375 107.224 26.1093H107.363V24.6269H111.17V24.6228ZM107.647 33.2132C107.647 30.0062 105.503 27.6615 102.775 27.6615C100.009 27.6615 97.6925 30.0062 97.6925 33.2132C97.6925 36.3874 100.009 38.6993 102.775 38.6993C105.503 38.6993 107.647 36.3874 107.647 33.2132Z" fill="#C3CBCD"/>
<path d="M117.446 15.0386V41.7298H113.536V15.0386H117.446Z" fill="#C3CBCD"/>
<path d="M132.681 36.178L135.792 38.2476C134.788 39.73 132.368 42.2841 128.187 42.2841C123.001 42.2841 119.129 38.2845 119.129 33.1762C119.129 27.76 123.034 24.0684 127.738 24.0684C132.475 24.0684 134.792 27.8298 135.549 29.8624L135.965 30.8972L123.763 35.9398C124.697 37.7671 126.15 38.6993 128.187 38.6993C130.228 38.6993 131.644 37.6973 132.681 36.178ZM123.104 32.9011L131.261 29.5216C130.812 28.3841 129.462 27.5916 127.874 27.5916C125.837 27.5916 123.001 29.3861 123.104 32.9011Z" fill="#C3CBCD"/>
<path d="M39.3747 30.8114V26.9473H52.4243C52.5519 27.6208 52.6177 28.4174 52.6177 29.2797C52.6177 32.1788 51.8235 35.7636 49.2638 38.3178C46.774 40.9048 43.5929 42.2845 39.3788 42.2845C31.568 42.2845 25 35.9361 25 28.1423C25 20.3484 31.568 14 39.3788 14C43.6999 14 46.7781 15.6918 49.0909 17.8969L46.3584 20.6235C44.6999 19.0713 42.453 17.8641 39.3747 17.8641C33.6709 17.8641 29.2099 22.4509 29.2099 28.1423C29.2099 33.8337 33.6709 38.4204 39.3747 38.4204C43.0744 38.4204 45.1814 36.9381 46.5312 35.5912C47.6259 34.4989 48.3461 32.9385 48.63 30.8073L39.3747 30.8114Z" fill="#C3CBCD"/>
</svg>
