<svg width="122" height="29" viewBox="0 0 122 29" fill="none" xmlns="http://www.w3.org/2000/svg">
<path d="M15.4818 28.9577C17.0835 28.9577 18.3819 27.6655 18.3819 26.0715C18.3819 24.4775 17.0835 23.1853 15.4818 23.1853C13.8802 23.1853 12.5818 24.4775 12.5818 26.0715C12.5818 27.6655 13.8802 28.9577 15.4818 28.9577Z" fill="url(#paint0_linear_3_7376)"/>
<path d="M26.1254 28.9577C27.727 28.9577 29.0254 27.6655 29.0254 26.0715C29.0254 24.4775 27.727 23.1853 26.1254 23.1853C24.5237 23.1853 23.2253 24.4775 23.2253 26.0715C23.2253 27.6655 24.5237 28.9577 26.1254 28.9577Z" fill="url(#paint1_linear_3_7376)"/>
<path d="M22.2842 1.98462C22.2842 2.48049 22.3825 2.97149 22.5733 3.42955C22.7641 3.8876 23.0438 4.30372 23.3963 4.65412C23.7489 5.00451 24.1674 5.2823 24.6279 5.4716C25.0884 5.6609 25.5819 5.758 26.0801 5.75734H29.0662V9.66604C29.0659 11.562 28.4589 13.4087 27.3332 14.9383C26.2076 16.4679 24.6217 17.6011 22.8055 18.1735L20.523 8.35644C19.979 5.97701 18.637 3.85291 16.718 2.33399C14.7989 0.815066 12.4173 -0.00809914 9.96541 6.00764e-05V3.77781C11.559 3.77248 13.1068 4.30731 14.3542 5.29424C15.6016 6.28117 16.4742 7.66139 16.8283 9.20769L19.0097 18.5916H12.9363L10.5576 8.35644C10.0136 5.97701 8.67158 3.85291 6.75255 2.33399C4.83352 0.815066 2.45192 -0.00809914 0 6.00764e-05V3.77781C1.59355 3.77248 3.14142 4.30731 4.38883 5.29424C5.63623 6.28117 6.5088 7.66139 6.86292 9.20769L9.89961 22.3643H20.0675C23.4519 22.3643 26.6977 21.0266 29.0913 18.6454C31.485 16.2641 32.8303 13.0343 32.8317 9.66604V1.98462H22.2842Z" fill="url(#paint2_linear_3_7376)"/>
<path d="M39.1048 28.718H35.1444V9.96777H39.1048V28.718ZM35.3919 6.23181C34.8968 5.73839 34.6493 5.15097 34.6493 4.46957C34.6493 3.78817 34.8968 3.20076 35.3919 2.70733C35.8869 2.2139 36.4763 1.96718 37.1599 1.96718C37.8436 1.96718 38.4329 2.2139 38.928 2.70733C39.423 3.20076 39.6705 3.78817 39.6705 4.46957C39.6705 5.15097 39.423 5.73839 38.928 6.23181C38.4329 6.72524 37.8436 6.97196 37.1599 6.97196C36.4763 6.97196 35.8869 6.72524 35.3919 6.23181Z" fill="url(#paint3_linear_3_7376)"/>
<path d="M47.5667 8.417V9.96777H52.5172V13.1398H47.5667V28.718H43.6063V13.1398H41.2371V9.96777H43.6063V8.52273C43.6063 6.54902 44.1956 4.9865 45.3743 3.83516C46.5766 2.66033 48.0146 2.07292 49.6883 2.07292C51.3857 2.07292 52.9298 2.69558 54.3206 3.9409L52.694 6.72524C51.9161 5.90286 51.1028 5.49167 50.2541 5.49167C49.4055 5.49167 48.7454 5.76188 48.2739 6.3023C47.8024 6.81923 47.5667 7.52413 47.5667 8.417Z" fill="url(#paint4_linear_3_7376)"/>
<path d="M58.5509 23.7838C59.6824 24.9116 61.1086 25.4755 62.8295 25.4755C64.5504 25.4755 65.9648 24.9116 67.0728 23.7838C68.2044 22.6324 68.7701 21.1521 68.7701 19.3429C68.7701 17.5337 68.2044 16.0651 67.0728 14.9373C65.9648 13.786 64.5504 13.2103 62.8295 13.2103C61.1086 13.2103 59.6824 13.786 58.5509 14.9373C57.4429 16.0651 56.8889 17.5337 56.8889 19.3429C56.8889 21.1521 57.4429 22.6324 58.5509 23.7838ZM69.9017 26.2157C68.0158 28.0719 65.6584 29 62.8295 29C60.0007 29 57.6433 28.0719 55.7574 26.2157C53.8715 24.3359 52.9285 22.045 52.9285 19.3429C52.9285 16.6408 53.8715 14.3616 55.7574 12.5054C57.6433 10.6257 60.0007 9.68581 62.8295 9.68581C65.6584 9.68581 68.0158 10.6257 69.9017 12.5054C71.7876 14.3616 72.7305 16.6408 72.7305 19.3429C72.7305 22.045 71.7876 24.3359 69.9017 26.2157Z" fill="url(#paint5_linear_3_7376)"/>
<path d="M88.4743 23.1141C88.4743 24.8998 87.826 26.3331 86.5294 27.414C85.2329 28.4713 83.5709 29 81.5436 29C80.1763 29 78.7501 28.7533 77.2649 28.2599C75.8034 27.7664 74.5068 27.0733 73.3752 26.1804L75.2847 23.1141C77.4771 24.7589 79.5987 25.5812 81.6497 25.5812C82.5455 25.5812 83.2527 25.3815 83.7713 24.9821C84.2899 24.5591 84.5492 24.0305 84.5492 23.3961C84.5492 22.4562 83.2998 21.6103 80.801 20.8584C80.6124 20.7879 80.471 20.741 80.3767 20.7175C76.4634 19.6601 74.5068 17.8979 74.5068 15.4307C74.5068 13.692 75.1786 12.3057 76.5224 11.2718C77.8896 10.2145 79.6577 9.68581 81.8265 9.68581C83.9953 9.68581 86.0462 10.3202 87.9792 11.589L86.4941 14.5144C84.9618 13.504 83.2998 12.9988 81.5082 12.9988C80.5653 12.9988 79.7991 13.1751 79.2098 13.5275C78.6204 13.8565 78.3258 14.3616 78.3258 15.043C78.3258 15.6539 78.6322 16.1004 79.2451 16.3823C79.6695 16.5938 80.2588 16.7935 81.0132 16.9815C81.7911 17.1695 82.4748 17.3574 83.0641 17.5454C83.6535 17.7334 84.2192 17.9449 84.7614 18.1798C85.3272 18.4148 85.9283 18.7437 86.5648 19.1667C87.8378 20.0126 88.4743 21.3284 88.4743 23.1141Z" fill="url(#paint6_linear_3_7376)"/>
<path d="M108.303 21.0699H93.5574C93.6516 22.4327 94.2764 23.537 95.4315 24.3829C96.5866 25.2053 97.9067 25.6165 99.3919 25.6165C101.749 25.6165 103.541 24.8764 104.767 23.3961L107.03 25.8632C105.002 27.9544 102.362 29 99.109 29C96.4687 29 94.2174 28.1306 92.3551 26.3919C90.5163 24.6296 89.5969 22.28 89.5969 19.3429C89.5969 16.3823 90.5399 14.0327 92.4258 12.2939C94.3117 10.5552 96.5277 9.68581 99.0736 9.68581C101.643 9.68581 103.824 10.4612 105.615 12.012C107.407 13.5393 108.303 15.6539 108.303 18.3561V21.0699ZM93.5574 17.9684H104.342C104.342 16.3941 103.847 15.184 102.857 14.3381C101.867 13.4923 100.641 13.0693 99.1797 13.0693C97.7417 13.0693 96.4452 13.5158 95.29 14.4086C94.1349 15.278 93.5574 16.4646 93.5574 17.9684Z" fill="url(#paint7_linear_3_7376)"/>
<path d="M114.457 28.718H110.497V2.56635H114.457V28.718Z" fill="url(#paint8_linear_3_7376)"/>
<path d="M122 28.718H118.04V2.56635H122V28.718Z" fill="url(#paint9_linear_3_7376)"/>
<defs>
<linearGradient id="paint0_linear_3_7376" x1="68" y1="40.5" x2="75.4166" y2="-17.0441" gradientUnits="userSpaceOnUse">
<stop stop-color="#1A6CE7"/>
<stop offset="1" stop-color="#59CED6"/>
</linearGradient>
<linearGradient id="paint1_linear_3_7376" x1="68" y1="40.5" x2="75.4166" y2="-17.0441" gradientUnits="userSpaceOnUse">
<stop stop-color="#1A6CE7"/>
<stop offset="1" stop-color="#59CED6"/>
</linearGradient>
<linearGradient id="paint2_linear_3_7376" x1="68" y1="40.5" x2="75.4166" y2="-17.0441" gradientUnits="userSpaceOnUse">
<stop stop-color="#1A6CE7"/>
<stop offset="1" stop-color="#59CED6"/>
</linearGradient>
<linearGradient id="paint3_linear_3_7376" x1="68" y1="40.5" x2="75.4166" y2="-17.0441" gradientUnits="userSpaceOnUse">
<stop stop-color="#1A6CE7"/>
<stop offset="1" stop-color="#59CED6"/>
</linearGradient>
<linearGradient id="paint4_linear_3_7376" x1="68" y1="40.5" x2="75.4166" y2="-17.0441" gradientUnits="userSpaceOnUse">
<stop stop-color="#1A6CE7"/>
<stop offset="1" stop-color="#59CED6"/>
</linearGradient>
<linearGradient id="paint5_linear_3_7376" x1="68" y1="40.5" x2="75.4166" y2="-17.0441" gradientUnits="userSpaceOnUse">
<stop stop-color="#1A6CE7"/>
<stop offset="1" stop-color="#59CED6"/>
</linearGradient>
<linearGradient id="paint6_linear_3_7376" x1="68" y1="40.5" x2="75.4166" y2="-17.0441" gradientUnits="userSpaceOnUse">
<stop stop-color="#1A6CE7"/>
<stop offset="1" stop-color="#59CED6"/>
</linearGradient>
<linearGradient id="paint7_linear_3_7376" x1="68" y1="40.5" x2="75.4166" y2="-17.0441" gradientUnits="userSpaceOnUse">
<stop stop-color="#1A6CE7"/>
<stop offset="1" stop-color="#59CED6"/>
</linearGradient>
<linearGradient id="paint8_linear_3_7376" x1="68" y1="40.5" x2="75.4166" y2="-17.0441" gradientUnits="userSpaceOnUse">
<stop stop-color="#1A6CE7"/>
<stop offset="1" stop-color="#59CED6"/>
</linearGradient>
<linearGradient id="paint9_linear_3_7376" x1="68" y1="40.5" x2="75.4166" y2="-17.0441" gradientUnits="userSpaceOnUse">
<stop stop-color="#1A6CE7"/>
<stop offset="1" stop-color="#59CED6"/>
</linearGradient>
</defs>
</svg>
