<svg width="160" height="64" viewBox="0 0 160 64" fill="none" xmlns="http://www.w3.org/2000/svg">
<path d="M43.0253 44.1307C41.4909 44.4142 39.9295 44.4992 38.3144 44.7255L33.3879 29.546V45.377C31.8535 45.5469 30.4537 45.7734 29 46V17H33.092L38.6912 33.4543V17H43.0253V44.1307ZM51.5051 27.6201C53.1743 27.6201 55.7317 27.5351 57.2661 27.5351V32.0663C55.3547 32.0663 53.1204 32.0663 51.5051 32.1513V38.8916C54.0357 38.7218 56.5662 38.495 59.1235 38.41V42.7711L47.1978 43.7625V17H59.1235V21.5313H51.5051V27.6201ZM75.1409 21.5314H70.6722V42.3751C69.2185 42.3751 67.7648 42.3751 66.3652 42.4316V21.5314H61.8965V17H75.1411L75.1409 21.5314ZM82.14 27.3087H88.0356V31.8398H82.14V42.1202H77.9133V17H89.9469V21.5313H82.14V27.3087ZM96.946 38.1553C99.3958 38.2117 101.872 38.4103 104.268 38.5517V43.0264C100.419 42.7713 96.5692 42.5168 92.6389 42.4316V17H96.946V38.1553ZM107.902 43.3379C109.275 43.423 110.729 43.508 112.129 43.6776V17H107.902V43.3379ZM131 17L125.535 30.792L131 46C129.385 45.7734 127.769 45.4619 126.154 45.1786L123.059 36.796L119.909 44.4992C118.348 44.2157 116.84 44.1307 115.279 43.9042L120.824 30.622L115.817 17H120.447L123.274 24.6182L126.289 17H131V17Z" fill="#C3CBCD"/>
</svg>
