<svg width="18" height="18" viewBox="0 0 18 18" fill="none" xmlns="http://www.w3.org/2000/svg">
<g id="bx-search-alt">
<path id="Shape" fill-rule="evenodd" clip-rule="evenodd" d="M7.5 13.5C8.8845 13.5 10.1573 13.0237 11.1728 12.234L14.4698 15.531L15.5302 14.4705L12.2332 11.1735C13.0238 10.1573 13.5 8.8845 13.5 7.5C13.5 4.19175 10.8083 1.5 7.5 1.5C4.19175 1.5 1.5 4.19175 1.5 7.5C1.5 10.8083 4.19175 13.5 7.5 13.5ZM7.50009 3C9.98184 3 12.0001 5.01825 12.0001 7.5C12.0001 9.98175 9.98184 12 7.50009 12C5.01834 12 3.00009 9.98175 3.00009 7.5C3.00009 5.01825 5.01834 3 7.50009 3Z" fill="#74788D"/>
<path id="Shape_2" fill-rule="evenodd" clip-rule="evenodd" d="M8.55912 6.43956C8.84337 6.72456 9.00012 7.10106 9.00012 7.50006H10.5001C10.5001 6.70131 10.1881 5.94831 9.61962 5.37906C8.48412 4.24506 6.51537 4.24506 5.38062 5.37906L6.43962 6.44106C7.00961 5.87256 7.99212 5.87406 8.55912 6.43956Z" fill="#74788D"/>
</g>
</svg>
