<svg width="17" height="16" viewBox="0 0 17 16" fill="none" xmlns="http://www.w3.org/2000/svg">
<g id="bx-search-alt">
<path id="Shape" fill-rule="evenodd" clip-rule="evenodd" d="M7.4991 12C8.72977 12 9.86111 11.5767 10.7638 10.8747L13.6944 13.8053L14.6371 12.8627L11.7064 9.932C12.4091 9.02867 12.8324 7.89734 12.8324 6.66667C12.8324 3.726 10.4398 1.33334 7.4991 1.33334C4.55844 1.33334 2.16577 3.726 2.16577 6.66667C2.16577 9.60734 4.55844 12 7.4991 12ZM7.49911 2.66667C9.70512 2.66667 11.4991 4.46067 11.4991 6.66667C11.4991 8.87267 9.70512 10.6667 7.49911 10.6667C5.29311 10.6667 3.49911 8.87267 3.49911 6.66667C3.49911 4.46067 5.29311 2.66667 7.49911 2.66667Z" fill="#74788D"/>
<path id="Shape_2" fill-rule="evenodd" clip-rule="evenodd" d="M8.44057 5.724C8.69323 5.97733 8.83257 6.312 8.83257 6.66666H10.1659C10.1659 5.95666 9.88857 5.28733 9.38323 4.78133C8.3739 3.77333 6.6239 3.77333 5.61523 4.78133L6.55657 5.72533C7.06323 5.22 7.93657 5.22133 8.44057 5.724Z" fill="#74788D"/>
</g>
</svg>
