<svg width="26" height="26" viewBox="0 0 26 26" fill="none" xmlns="http://www.w3.org/2000/svg">
<g id="eva:arrow-ios-upward-fill">
<path id="Vector" d="M6.49955 9.74986C6.75267 9.74937 6.99798 9.83752 7.19288 9.99903L12.9995 14.8524L18.817 10.1724C18.9279 10.0824 19.0554 10.0152 19.1922 9.97462C19.3291 9.93407 19.4726 9.92097 19.6146 9.93607C19.7565 9.95117 19.8941 9.99418 20.0194 10.0626C20.1446 10.1311 20.2551 10.2236 20.3445 10.3349C20.4345 10.4457 20.5017 10.5732 20.5423 10.71C20.5828 10.8469 20.5959 10.9904 20.5808 11.1324C20.5657 11.2743 20.5227 11.4119 20.4543 11.5372C20.3859 11.6625 20.2933 11.773 20.182 11.8624L13.682 17.0949C13.4882 17.2542 13.2451 17.3413 12.9941 17.3413C12.7432 17.3413 12.5001 17.2542 12.3062 17.0949L5.80622 11.6782C5.69652 11.5872 5.60584 11.4756 5.53938 11.3495C5.47291 11.2235 5.43196 11.0856 5.41888 10.9437C5.4058 10.8018 5.42084 10.6587 5.46314 10.5226C5.50544 10.3866 5.57416 10.2602 5.66538 10.1507C5.76619 10.0264 5.89328 9.92603 6.03751 9.85672C6.18174 9.78741 6.33953 9.75092 6.49955 9.74986Z" fill="#C4C4C4"/>
</g>
</svg>
