<svg width="45" height="45" viewBox="0 0 45 45" fill="none" xmlns="http://www.w3.org/2000/svg">
<g clip-path="url(#clip0_3_6849)">
<path d="M10.9797 44.3811H3.77539V34.539C3.77539 34.2963 3.97218 34.0996 4.21476 34.0996H10.5402C10.7829 34.0996 10.9796 34.2964 10.9796 34.539V44.3811H10.9797Z" fill="#B3D8E9"/>
<path d="M10.9806 44.3811H7.37842V34.0996H10.5412C10.7838 34.0996 10.9805 34.2964 10.9805 34.539C10.9806 34.539 10.9806 44.3811 10.9806 44.3811Z" fill="#93CAFF"/>
<path d="M21.0617 44.3812H13.8574V27.7282C13.8574 27.4855 14.0542 27.2888 14.2968 27.2888H20.6223C20.8649 27.2888 21.0616 27.4856 21.0616 27.7282L21.0617 44.3812Z" fill="#B3D8E9"/>
<path d="M21.0616 44.3812H17.4595V27.2888H20.6222C20.8649 27.2888 21.0616 27.4856 21.0616 27.7282V44.3812Z" fill="#93CAFF"/>
<path d="M31.1434 44.3809H23.939V23.0268C23.939 22.7841 24.1358 22.5874 24.3783 22.5874H30.7039C30.9466 22.5874 31.1433 22.7842 31.1433 23.0268V44.3809H31.1434Z" fill="#B3D8E9"/>
<path d="M31.1422 44.3815H27.54V22.5879H30.7028C30.9454 22.5879 31.1421 22.7847 31.1421 23.0273V44.3815H31.1422Z" fill="#93CAFF"/>
<path d="M41.2233 44.3811H34.019V6.63883C34.019 6.39616 34.2158 6.19946 34.4584 6.19946H40.7839C41.0265 6.19946 41.2232 6.39625 41.2232 6.63883V44.3811H41.2233Z" fill="#B3D8E9"/>
<path d="M41.2237 44.3811H37.6216V6.19946H40.7843C41.027 6.19946 41.2237 6.39625 41.2237 6.63883V44.3811Z" fill="#93CAFF"/>
<path d="M30.4845 2.84347C30.4131 2.64537 30.2514 2.49331 30.0494 2.43416C29.8474 2.37519 29.6291 2.41606 29.4623 2.54455L25.4572 5.62855C25.1688 5.85065 25.1151 6.26444 25.3371 6.55281C25.5593 6.84126 25.973 6.89497 26.2613 6.67295L28.7758 4.73672C25.5693 14.3799 19.1672 19.8519 14.2418 22.7766C8.61289 26.119 3.62914 26.9626 3.57948 26.9708C3.22045 27.0293 2.97664 27.3677 3.035 27.7269C3.08756 28.0504 3.36714 28.2804 3.68477 28.2804C3.71984 28.2804 3.75552 28.2776 3.79121 28.2718C4.0025 28.2375 9.0316 27.3922 14.869 23.9373C18.2989 21.9074 21.2887 19.3935 23.7557 16.4658C26.4792 13.2334 28.5657 9.48809 29.973 5.31329L31.0199 8.22018C31.1167 8.48895 31.3699 8.65612 31.6401 8.65612C31.7142 8.65612 31.7896 8.64346 31.8634 8.61692C32.2058 8.49361 32.3835 8.11603 32.2601 7.77361L30.4845 2.84347Z" fill="#308EE1"/>
<path d="M44.3365 43.6818H41.8819V19.5049C41.8819 19.1409 41.5869 18.8458 41.2228 18.8458C40.8588 18.8458 40.5638 19.1408 40.5638 19.5049V43.6818H34.6776V6.8182H40.5638V14.9059C40.5638 15.2699 40.8588 15.565 41.2228 15.565C41.5869 15.565 41.8819 15.2699 41.8819 14.9059V6.59848C41.8819 5.99273 41.3892 5.50002 40.7835 5.50002H34.458C33.8522 5.50002 33.3595 5.99273 33.3595 6.59848V43.6818H31.8011V22.9866C31.8011 22.3809 31.3083 21.8882 30.7026 21.8882H24.3771C23.7714 21.8882 23.2787 22.3809 23.2787 22.9866V43.6819H21.7202V27.6879C21.7202 27.0822 21.2275 26.5895 20.6217 26.5895H14.2962C13.6905 26.5895 13.1978 27.0822 13.1978 27.6879V43.6818H11.6393V34.4987C11.6393 33.893 11.1466 33.4003 10.5408 33.4003H4.215C3.60926 33.4003 3.11654 33.893 3.11654 34.4987V36.6115C3.11654 36.9754 3.41159 37.2705 3.77563 37.2705C4.13968 37.2705 4.43473 36.9755 4.43473 36.6115V34.7184H10.3208V43.6817H4.43473V41.3127C4.43473 40.9488 4.13968 40.6536 3.77563 40.6536C3.41159 40.6536 3.11654 40.9487 3.11654 41.3127V43.6817H1.32111V0.659092C1.32111 0.295049 1.02598 0 0.662022 0C0.298066 0 0.00292969 0.295049 0.00292969 0.659092V44.3409C0.00292969 44.7049 0.297978 45 0.662022 45H3.77572H10.98H13.8567H21.061H23.9377H31.142H34.0186H41.2229H44.3366C44.7006 45 44.9957 44.7243 44.9957 44.3603C44.9957 43.9964 44.7006 43.6818 44.3365 43.6818ZM14.5156 43.6818V27.9076H20.4017V43.6819H14.5156V43.6818ZM24.5967 43.6818V23.2063H30.4828V43.6818H24.5967Z" fill="#308EE1"/>
</g>
<defs>
<clipPath id="clip0_3_6849">
<rect width="45" height="45" fill="white"/>
</clipPath>
</defs>
</svg>
