<svg width="46" height="46" viewBox="0 0 46 46" fill="none" xmlns="http://www.w3.org/2000/svg">
<g clip-path="url(#clip0_3_6876)">
<path d="M31.0768 3.56274L0.673828 12.5854L14.9231 21.6082L45.326 12.5854L31.0768 3.56274Z" fill="#93CAFF"/>
<path d="M14.9231 45.3273L0.673828 36.3045V12.5854L14.9231 21.6082V45.3273Z" fill="#B3D8E9"/>
<path d="M14.9233 45.3273L45.3263 36.3045V12.5854L14.9233 21.6082V45.3273Z" fill="#B3D8E9"/>
<path d="M41.7324 13.7093V37.371L45.3262 36.3045V12.5854L41.7324 13.7093Z" fill="#93CAFF"/>
<path d="M27.0377 13.6785L12.7885 4.65576L0.673828 12.5854L14.9231 21.6081L27.0377 13.6785Z" fill="#B3D8E9"/>
<path d="M30.9021 9.69775L16.6528 0.675049L31.0766 3.56271L45.3257 12.5854L30.9021 9.69775Z" fill="#B3D8E9"/>
<path d="M18.7261 40.2718L41.5228 33.4881V26.9128L18.7261 33.6966V40.2718Z" fill="#E1F1FA"/>
<path d="M46.0002 12.5747C45.9964 12.3504 45.8772 12.1366 45.6874 12.0165L31.4383 2.99368C31.3684 2.94947 31.2911 2.91848 31.2101 2.90222L16.7863 0.01465C16.0716 -0.12874 15.6781 0.854865 16.2936 1.24461L22.7486 5.33194L17.552 6.87419L13.1498 4.08671C12.9267 3.94539 12.6414 3.94754 12.4203 4.09219L7.08306 7.58584C6.37752 8.04764 7.08351 9.19629 7.82113 8.71347L12.7955 5.45745L25.7939 13.6882L14.9179 20.8071L1.91949 12.5764L4.84668 10.6604C5.55222 10.1986 4.84623 9.04993 4.10862 9.53275L0.305815 12.022C0.118761 12.1442 0.000976562 12.3625 0.000976562 12.5857V36.3047C0.000976562 36.5356 0.11921 36.7505 0.31435 36.874L14.5636 45.8968C14.725 45.9988 14.933 46.0279 15.1158 45.9735L39.8158 38.6433C40.6242 38.4034 40.2775 37.1003 39.4323 37.3513L15.5978 44.4247V22.1114L44.6531 13.4886V35.8018L42.8131 36.3479C42.0048 36.5877 42.3513 37.8905 43.1966 37.6398L45.5187 36.9507C45.8047 36.8659 46.0008 36.603 46.0008 36.3047V12.5857C46.0008 12.582 46.0003 12.5784 46.0002 12.5747ZM30.8229 4.1992L41.898 11.2121L31.1581 9.06188L20.083 2.04897L30.8229 4.1992ZM27.3991 13.1095L19.0635 7.83139L24.2601 6.28913L30.5428 10.2674C30.6126 10.3116 30.69 10.3426 30.771 10.3589L42.5299 12.713L19.1394 19.6546L27.4076 14.2426C27.5993 14.1171 27.7142 13.9028 27.7125 13.6737C27.7107 13.4446 27.5927 13.2321 27.3991 13.1095ZM1.34863 13.8099L14.2502 21.9793V44.1032L1.34863 35.934V13.8099Z" fill="#308EE1"/>
<path d="M41.9255 26.3729C41.755 26.2457 41.5343 26.2066 41.3305 26.2673L18.5339 33.051C18.2482 33.136 18.0522 33.3987 18.0522 33.6968V40.272C18.0522 40.4848 18.1527 40.685 18.3232 40.8121C18.441 40.9 18.5826 40.9458 18.7261 40.9458C18.7904 40.9458 18.8551 40.9366 18.9182 40.9178L41.7148 34.1341C42.0005 34.0491 42.1965 33.7864 42.1965 33.4883V26.9131C42.1965 26.7003 42.096 26.5001 41.9255 26.3729ZM40.8488 32.9858L19.3999 39.3684V34.1993L40.8488 27.8166V32.9858Z" fill="#308EE1"/>
<path d="M26.2056 36.4169C26.5777 36.4169 26.8794 36.1152 26.8794 35.7431V33.8337C26.8794 32.9905 25.5317 32.952 25.5317 33.8337V35.7431C25.5317 36.1153 25.8334 36.4169 26.2056 36.4169Z" fill="#308EE1"/>
<path d="M35.1479 33.6761C35.5201 33.6761 35.8218 33.3744 35.8218 33.0022V31.0927C35.8218 30.2495 34.4741 30.2111 34.4741 31.0927V33.0022C34.4741 33.3744 34.7758 33.6761 35.1479 33.6761Z" fill="#308EE1"/>
<path d="M37.1362 33.137C37.5084 33.137 37.8101 32.8353 37.8101 32.4632V30.5536C37.8101 29.7104 36.4624 29.672 36.4624 30.5536V32.4632C36.4624 32.8353 36.7641 33.137 37.1362 33.137Z" fill="#308EE1"/>
<path d="M39.125 32.5979C39.4971 32.5979 39.7988 32.2962 39.7988 31.9241V30.0146C39.7988 29.1714 38.4512 29.1329 38.4512 30.0146V31.9241C38.4512 32.2962 38.7529 32.5979 39.125 32.5979Z" fill="#308EE1"/>
<path d="M21.1431 37.923C21.5152 37.923 21.8169 37.6213 21.8169 37.2492V35.3398C21.8169 34.4966 20.4692 34.4581 20.4692 35.3398V37.2492C20.4692 37.6213 20.7709 37.923 21.1431 37.923Z" fill="#308EE1"/>
<path d="M23.0908 37.4438C23.463 37.4438 23.7646 37.1421 23.7646 36.77V34.8605C23.7646 34.0173 22.417 33.9789 22.417 34.8605V36.77C22.417 37.1421 22.7187 37.4438 23.0908 37.4438Z" fill="#308EE1"/>
<path d="M29.7241 35.3291C30.0963 35.3291 30.3979 35.0274 30.3979 34.6552V32.7458C30.3979 31.9026 29.0503 31.8641 29.0503 32.7458V34.6552C29.0503 35.0274 29.352 35.3291 29.7241 35.3291Z" fill="#308EE1"/>
<path d="M31.6289 34.841C32.001 34.841 32.3027 34.5393 32.3027 34.1672V32.2577C32.3027 31.4145 30.9551 31.3761 30.9551 32.2577V34.1672C30.9551 34.5393 31.2568 34.841 31.6289 34.841Z" fill="#308EE1"/>
</g>
<defs>
<clipPath id="clip0_3_6876">
<rect width="46" height="46" fill="white"/>
</clipPath>
</defs>
</svg>
