<svg width="50" height="50" viewBox="0 0 50 50" fill="none" xmlns="http://www.w3.org/2000/svg">
<path d="M47.6562 47.6562L40.625 11.7188H9.375L2.34375 47.6562H47.6562Z" fill="#B3D8E9"/>
<path d="M21.0938 47.6562H2.34375L9.375 11.7188H14.0625L21.0938 47.6562Z" fill="#93CAFF"/>
<path d="M32.0312 29.6875C33.7571 29.6875 35.1562 28.2884 35.1562 26.5625C35.1562 24.8366 33.7571 23.4375 32.0312 23.4375C30.3054 23.4375 28.9062 24.8366 28.9062 26.5625C28.9062 28.2884 30.3054 29.6875 32.0312 29.6875Z" fill="#E1F1FA"/>
<path d="M1.74059 48.1528C1.81389 48.2419 1.90599 48.3135 2.01027 48.3628C2.11455 48.412 2.22843 48.4375 2.34375 48.4375H47.6562C47.7716 48.4375 47.8854 48.412 47.9897 48.3628C48.094 48.3135 48.1861 48.2419 48.2594 48.1528C48.3327 48.0638 48.3854 47.9597 48.4137 47.8479C48.4419 47.7361 48.4451 47.6194 48.423 47.5062L41.3917 11.5687C41.3569 11.3909 41.2614 11.2308 41.1216 11.1156C40.9817 11.0005 40.8062 10.9375 40.625 10.9375H34.375V7.03125C34.3754 6.14451 34.1601 5.27096 33.7477 4.48599C33.3352 3.70101 32.7379 3.02817 32.0074 2.52552C31.2769 2.02286 30.435 1.70548 29.5545 1.60075C28.674 1.49603 27.7812 1.6071 26.9531 1.9244C26.1251 1.6071 25.2323 1.49603 24.3517 1.60075C23.4712 1.70548 22.6294 2.02286 21.8988 2.52552C21.1683 3.02817 20.5711 3.70101 20.1586 4.48599C19.7461 5.27096 19.5308 6.14451 19.5312 7.03125V10.9375H9.375C9.19383 10.9375 9.01829 11.0005 8.87843 11.1156C8.73856 11.2308 8.64307 11.3909 8.60829 11.5687L1.57704 47.5062C1.5549 47.6194 1.55808 47.7361 1.58636 47.8479C1.61463 47.9597 1.66731 48.0638 1.74059 48.1528ZM11.7187 40.8608L18.9359 46.875H4.50159L11.7187 40.8608ZM39.9818 12.5L46.7073 46.875H21.737L15.0114 12.5H23.4375V17.1875H21.875V18.75H26.5625V17.1875H25V12.5H32.8125V17.1875H31.25V18.75H35.9375V17.1875H34.375V12.5H39.9818ZM26.9531 3.65052C27.5465 3.99329 28.0394 4.48609 28.3822 5.07947C28.725 5.67286 28.9057 6.34596 28.9062 7.03125V10.9375H25V7.03125C25.0005 6.34596 25.1813 5.67286 25.5241 5.07947C25.8669 4.48609 26.3597 3.99329 26.9531 3.65052ZM28.9062 3.125C29.9419 3.12618 30.9348 3.53811 31.6671 4.27042C32.3994 5.00272 32.8113 5.99561 32.8125 7.03125V10.9375H30.4687V7.03125C30.469 6.30368 30.3237 5.58341 30.0413 4.9129C29.7588 4.24238 29.3451 3.63518 28.8243 3.12708C28.8516 3.12653 28.8788 3.125 28.9062 3.125ZM21.0937 7.03125C21.0949 5.99561 21.5069 5.00272 22.2392 4.27042C22.9715 3.53811 23.9644 3.12618 25 3.125C25.0275 3.125 25.0546 3.12653 25.0819 3.12708C24.5612 3.63518 24.1474 4.24238 23.865 4.9129C23.5826 5.58341 23.4372 6.30368 23.4375 7.03125V10.9375H21.0937V7.03125ZM10.0182 12.5H10.9375V25.7813H12.5V12.5H13.4193L19.9049 45.6486L12.5 39.4779V31.25H10.9375V39.4779L3.5326 45.6486L10.0182 12.5Z" fill="#308EE1"/>
<path d="M10.9375 27.3438H12.5V28.9062H10.9375V27.3438Z" fill="#308EE1"/>
<path d="M32.0313 30.4688C32.8038 30.4688 33.5591 30.2397 34.2015 29.8104C34.8438 29.3812 35.3445 28.7711 35.6402 28.0574C35.9358 27.3436 36.0132 26.5582 35.8624 25.8004C35.7117 25.0427 35.3397 24.3467 34.7934 23.8004C34.2471 23.2541 33.5511 22.882 32.7933 22.7313C32.0356 22.5806 31.2502 22.6579 30.5364 22.9536C29.8226 23.2493 29.2125 23.7499 28.7833 24.3923C28.3541 25.0347 28.125 25.7899 28.125 26.5625C28.1262 27.5981 28.5381 28.591 29.2704 29.3233C30.0027 30.0556 30.9956 30.4676 32.0313 30.4688ZM32.0313 24.2188C32.4948 24.2188 32.9479 24.3562 33.3334 24.6137C33.7188 24.8713 34.0192 25.2373 34.1966 25.6656C34.374 26.0939 34.4204 26.5651 34.33 27.0197C34.2395 27.4744 34.0163 27.892 33.6885 28.2198C33.3608 28.5476 32.9431 28.7708 32.4885 28.8612C32.0339 28.9517 31.5626 28.9052 31.1343 28.7278C30.7061 28.5504 30.34 28.25 30.0825 27.8646C29.825 27.4792 29.6875 27.0261 29.6875 26.5625C29.6882 25.9411 29.9354 25.3454 30.3748 24.906C30.8141 24.4666 31.4099 24.2195 32.0313 24.2188Z" fill="#308EE1"/>
<path d="M25.7812 32.8125H29.6875V34.375H25.7812V32.8125Z" fill="#308EE1"/>
<path d="M31.25 32.8125H39.0625V34.375H31.25V32.8125Z" fill="#308EE1"/>
<path d="M24.2188 35.9375H33.5938V37.5H24.2188V35.9375Z" fill="#308EE1"/>
<path d="M35.1562 35.9375H41.4062V37.5H35.1562V35.9375Z" fill="#308EE1"/>
</svg>
