<svg width="43" height="43" viewBox="0 0 43 43" fill="none" xmlns="http://www.w3.org/2000/svg">
<path d="M6.75787 4.49224C6.75787 4.39961 6.8332 4.32427 6.92583 4.32427H31.8875V0.881836C31.8875 0.742674 31.7747 0.629883 31.6355 0.629883H3.31543C3.17627 0.629883 3.06348 0.742674 3.06348 0.881836V38.5078C3.06348 38.6469 3.17627 38.7597 3.31543 38.7597H6.75787V4.49224Z" fill="#B8DCFF"/>
<path d="M6.75786 4.49224C6.75786 4.39961 6.8332 4.32427 6.92583 4.32427H7.3062V0.881836C7.3062 0.742674 7.41899 0.629883 7.55815 0.629883H3.31543C3.17627 0.629883 3.06348 0.742674 3.06348 0.881836V38.5078C3.06348 38.6469 3.17627 38.7597 3.31543 38.7597H6.75786V4.49224Z" fill="#93CAFF"/>
<path d="M28.937 37.9632C28.7517 37.9632 28.6011 37.8125 28.6011 37.6272V29.1926C28.6011 29.0073 28.7517 28.8566 28.937 28.8566H35.4979V26.1457H28.937C28.7517 26.1457 28.6011 25.995 28.6011 25.8098V17.3751C28.6011 17.1899 28.7517 17.0392 28.937 17.0392H35.4979V4.49219C35.4979 4.35303 35.3851 4.24023 35.2459 4.24023H6.92578C6.78662 4.24023 6.67383 4.35303 6.67383 4.49219V42.1181C6.67383 42.2573 6.78662 42.3701 6.92578 42.3701H35.2459C35.3851 42.3701 35.4979 42.2573 35.4979 42.1181V37.9632H28.937Z" fill="#E1F1FA"/>
<path d="M10.2282 42.1181V4.49219C10.2282 4.35303 10.341 4.24023 10.4802 4.24023H6.92578C6.78662 4.24023 6.67383 4.35303 6.67383 4.49219V42.1181C6.67383 42.2573 6.78662 42.3701 6.92578 42.3701H10.4802C10.341 42.3701 10.2282 42.2573 10.2282 42.1181Z" fill="#C4E4F2"/>
<path d="M37.3716 38.0472H28.937C28.7051 38.0472 28.5171 37.8591 28.5171 37.6273V29.1926C28.5171 28.9607 28.7051 28.7727 28.937 28.7727H37.3716C37.6035 28.7727 37.7916 28.9607 37.7916 29.1926V37.6273C37.7915 37.8591 37.6035 38.0472 37.3716 38.0472Z" fill="#B3D8E9"/>
<path d="M31.3257 37.6273V29.1926C31.3257 28.9607 31.5137 28.7727 31.7456 28.7727H28.937C28.7051 28.7727 28.5171 28.9607 28.5171 29.1926V37.6273C28.5171 37.8591 28.7051 38.0472 28.937 38.0472H31.7456C31.5136 38.0472 31.3257 37.8591 31.3257 37.6273Z" fill="#93CAFF"/>
<path d="M37.3716 26.2298H28.937C28.7051 26.2298 28.5171 26.0418 28.5171 25.8099V17.3752C28.5171 17.1434 28.7051 16.9553 28.937 16.9553H37.3716C37.6035 16.9553 37.7916 17.1434 37.7916 17.3752V25.8099C37.7915 26.0418 37.6035 26.2298 37.3716 26.2298Z" fill="#B3D8E9"/>
<path d="M31.3257 25.8099V17.3752C31.3257 17.1434 31.5137 16.9553 31.7456 16.9553H28.937C28.7051 16.9553 28.5171 17.1434 28.5171 17.3752V25.8099C28.5171 26.0418 28.7051 26.2298 28.937 26.2298H31.7456C31.5136 26.2298 31.3257 26.0418 31.3257 25.8099Z" fill="#93CAFF"/>
<path d="M12.8823 15.1418H29.2894C29.6374 15.1418 29.9193 14.8598 29.9193 14.512C29.9193 14.1641 29.6374 13.8821 29.2894 13.8821H12.8823C12.5344 13.8821 12.2524 14.1641 12.2524 14.512C12.2524 14.8598 12.5345 15.1418 12.8823 15.1418Z" fill="#308EE1"/>
<path d="M12.8822 18.8477H18.7281C19.076 18.8477 19.3579 18.5656 19.3579 18.2178C19.3579 17.8699 19.076 17.5879 18.7281 17.5879H12.8823C12.5344 17.5879 12.2524 17.8699 12.2524 18.2178C12.2524 18.5656 12.5344 18.8477 12.8822 18.8477Z" fill="#308EE1"/>
<path d="M12.8823 29.9653H22.2555C22.6034 29.9653 22.8854 29.6833 22.8854 29.3354C22.8854 28.9876 22.6034 28.7056 22.2555 28.7056H12.8823C12.5344 28.7056 12.2524 28.9876 12.2524 29.3354C12.2524 29.6833 12.5345 29.9653 12.8823 29.9653Z" fill="#308EE1"/>
<path d="M16.043 10.355H26.1293C26.4773 10.355 26.7592 10.073 26.7592 9.7251C26.7592 9.37723 26.4773 9.09521 26.1293 9.09521H16.043C15.695 9.09521 15.4131 9.37723 15.4131 9.7251C15.4131 10.073 15.6951 10.355 16.043 10.355Z" fill="#308EE1"/>
<path d="M39.4904 28.2775L38.4215 29.3463V29.1926C38.4215 28.6137 37.9506 28.1428 37.3717 28.1428H36.1278V26.8595H37.3717C37.9506 26.8595 38.4215 26.3886 38.4215 25.8097V24.7754C38.4215 24.4275 38.1395 24.1455 37.7916 24.1455C37.4437 24.1455 37.1617 24.4275 37.1617 24.7754V25.5998H29.147V17.5851H37.1617V18.7886L33.7029 22.2475L31.4376 19.9822C31.1915 19.7362 30.7928 19.7362 30.5468 19.9822C30.3008 20.2281 30.3008 20.627 30.5468 20.8729L33.2575 23.5837C33.3805 23.7067 33.5417 23.7682 33.7029 23.7682C33.8641 23.7682 34.0253 23.7067 34.1484 23.5837L37.1618 20.5703V21.8359C37.1618 22.1838 37.4437 22.4658 37.7917 22.4658C38.1396 22.4658 38.4216 22.1838 38.4216 21.8359V19.3104L40.3813 17.3508C40.6273 17.1048 40.6273 16.7059 40.3813 16.46C40.1352 16.214 39.7364 16.214 39.4904 16.46L38.4216 17.5289V17.3752C38.4216 16.7963 37.9507 16.3254 37.3718 16.3254H36.1279V4.49224C36.1279 4.00597 35.7323 3.6104 35.246 3.6104H32.5175V0.881836C32.5175 0.395566 32.1219 0 31.6356 0H3.31543C2.82916 0 2.43359 0.395566 2.43359 0.881836V38.5078C2.43359 38.994 2.82916 39.3896 3.31543 39.3896H6.044V42.1182C6.044 42.6044 6.43956 43 6.92583 43H35.246C35.7322 43 36.1278 42.6044 36.1278 42.1182V38.6771H37.3717C37.9506 38.6771 38.4215 38.2062 38.4215 37.6273V31.1279L40.3812 29.1682C40.6272 28.9222 40.6272 28.5234 40.3812 28.2775C40.1352 28.0315 39.7363 28.0315 39.4904 28.2775ZM37.1617 30.6061L33.7028 34.0649L31.4375 31.7996C31.1914 31.5536 30.7927 31.5536 30.5467 31.7996C30.3007 32.0456 30.3007 32.4444 30.5467 32.6903L33.2575 35.4011C33.3805 35.5241 33.5417 35.5856 33.7029 35.5856C33.8641 35.5856 34.0253 35.5241 34.1484 35.4011L37.1618 32.3877V37.4174H34.6012C34.2533 37.4174 33.9713 37.6994 33.9713 38.0473C33.9713 38.3951 34.2533 38.6772 34.6012 38.6772H34.8681V41.7402H7.30385V4.87017H13.1012C13.4492 4.87017 13.7311 4.58815 13.7311 4.24029C13.7311 3.89242 13.4492 3.6104 13.1012 3.6104H6.92592C6.43965 3.6104 6.04408 4.00597 6.04408 4.49224V38.1297H3.69336V1.25977H31.2576V3.6104H16.0407C15.6927 3.6104 15.4108 3.89242 15.4108 4.24029C15.4108 4.58815 15.6927 4.87017 16.0407 4.87017H34.8681V16.3253H28.9371C28.3582 16.3253 27.8873 16.7962 27.8873 17.3751V17.5879H21.0797C20.7318 17.5879 20.4498 17.8699 20.4498 18.2178C20.4498 18.5657 20.7318 18.8477 21.0797 18.8477H27.8873V21.2937H12.8823C12.5344 21.2937 12.2525 21.5758 12.2525 21.9236C12.2525 22.2715 12.5344 22.5535 12.8823 22.5535H27.8872V24.9995H12.8823C12.5344 24.9995 12.2525 25.2816 12.2525 25.6294C12.2525 25.9773 12.5344 26.2593 12.8823 26.2593H27.9899C28.1587 26.6135 28.5192 26.8595 28.937 26.8595H34.868V28.1427H28.937C28.534 28.1427 28.1838 28.3714 28.0079 28.7054H24.6071C24.2591 28.7054 23.9772 28.9875 23.9772 29.3353C23.9772 29.6832 24.2591 29.9652 24.6071 29.9652H27.8873V32.4113H12.8823C12.5344 32.4113 12.2525 32.6933 12.2525 33.0411C12.2525 33.389 12.5344 33.671 12.8823 33.671H27.8872V36.1171H12.8823C12.5344 36.1171 12.2525 36.3992 12.2525 36.747C12.2525 37.0949 12.5344 37.3769 12.8823 37.3769H27.8872V37.6271C27.8872 38.206 28.3581 38.6769 28.937 38.6769H31.6618C32.0097 38.6769 32.2916 38.3949 32.2916 38.047C32.2916 37.6992 32.0097 37.4171 31.6618 37.4171H29.1471V29.4024H37.1618V30.6061H37.1617Z" fill="#308EE1"/>
</svg>
