<svg width="155" height="113" viewBox="0 0 155 113" fill="none" xmlns="http://www.w3.org/2000/svg">
<path d="M101.259 3.66613C79.7511 1.29456 58.2435 1.29456 36.7358 3.66613C31.847 4.20511 28.0367 8.18478 27.6775 13.1143C25.5925 41.7389 25.5925 70.3634 27.6775 98.9883C28.0367 103.918 31.847 107.897 36.7355 108.436C58.2433 110.808 79.7508 110.808 101.259 108.436C106.147 107.897 109.958 103.918 110.317 98.9883C112.402 70.3637 112.402 41.7389 110.317 13.1143C109.958 8.18478 106.147 4.20536 101.259 3.66613Z" fill="#C1EECC"/>
<path d="M33.8076 101.489C34.0067 104.217 35.2043 106.669 37.0415 108.468C36.9382 108.459 36.8374 108.449 36.7342 108.436C31.8452 107.897 28.0358 103.918 27.6769 98.9873C25.5914 70.3639 25.5914 41.7384 27.6769 13.115C28.0361 8.18428 31.8454 4.2051 36.7342 3.66612C36.8374 3.65383 36.9382 3.64375 37.0415 3.63391C35.2043 5.4333 34.0067 7.88503 33.8076 10.6136C31.6015 40.9056 31.6015 71.1972 33.8076 101.489Z" fill="#89C89B"/>
<path d="M81.7746 28.4726C73.2572 28.1242 64.7397 28.1242 56.2223 28.4726C53.5971 28.5801 51.4581 30.6222 51.1902 33.249C50.9242 35.8556 50.9242 38.4622 51.1902 41.0691C51.4583 43.6957 53.5974 45.738 56.2223 45.8454C64.7397 46.1939 73.2572 46.1939 81.7746 45.8454C84.3998 45.738 86.5388 43.6959 86.8067 41.0691C87.0727 38.4625 87.0727 35.8558 86.8067 33.249C86.5386 30.6224 84.3995 28.5801 81.7746 28.4726Z" fill="#ECECEC"/>
<path d="M32.8107 25.1091H24.6526C21.9875 25.1091 19.8271 22.938 19.8271 20.2595C19.8271 17.5811 21.9875 15.4099 24.6526 15.4099H32.811C35.4761 15.4099 37.6364 17.5811 37.6364 20.2595C37.6362 22.938 35.4758 25.1091 32.8107 25.1091Z" fill="#C1EECC"/>
<path d="M29.9255 25.1091H24.6523C21.9872 25.1091 19.8286 22.9397 19.8286 20.2612C19.8286 18.9219 20.3688 17.708 21.2418 16.8309C22.1145 15.9538 23.3199 15.4106 24.6523 15.4106H29.9255C28.5928 15.4106 27.3876 15.9536 26.5149 16.8309C25.6422 17.7082 25.1018 18.9219 25.1018 20.2612C25.1015 22.9397 27.2601 25.1091 29.9255 25.1091Z" fill="#86DD99"/>
<path d="M32.8098 96.6926H24.6516C21.9865 96.6926 19.8262 94.5215 19.8262 91.843C19.8262 89.1646 21.9865 86.9934 24.6516 86.9934H32.81C35.4751 86.9934 37.6354 89.1646 37.6354 91.843C37.6352 94.5215 35.4748 96.6926 32.8098 96.6926Z" fill="#C1EECC"/>
<path d="M29.9245 96.6925H24.6513C21.9863 96.6925 19.8276 94.5231 19.8276 91.8446C19.8276 90.5053 20.3678 89.2913 21.2408 88.4143C22.1135 87.5372 23.3189 86.994 24.6513 86.994H29.9245C28.5918 86.994 27.3866 87.5369 26.5139 88.4143C25.6412 89.2916 25.1008 90.5053 25.1008 91.8446C25.1005 94.5233 27.2592 96.6925 29.9245 96.6925Z" fill="#86DD99"/>
<path d="M32.8098 78.7968H24.6516C21.9865 78.7968 19.8262 76.6256 19.8262 73.9471C19.8262 71.2687 21.9865 69.0975 24.6516 69.0975H32.81C35.4751 69.0975 37.6354 71.2687 37.6354 73.9471C37.6352 76.6256 35.4748 78.7968 32.8098 78.7968Z" fill="#C1EECC"/>
<path d="M29.9245 78.7966H24.6513C21.9863 78.7966 19.8276 76.6272 19.8276 73.9487C19.8276 72.6094 20.3678 71.3955 21.2408 70.5184C22.1135 69.6413 23.3189 69.0981 24.6513 69.0981H29.9245C28.5918 69.0981 27.3866 69.6411 26.5139 70.5184C25.6412 71.3957 25.1008 72.6094 25.1008 73.9487C25.1005 76.6272 27.2592 78.7966 29.9245 78.7966Z" fill="#86DD99"/>
<path d="M32.8098 60.901H24.6516C21.9865 60.901 19.8262 58.7298 19.8262 56.0514C19.8262 53.373 21.9865 51.2018 24.6516 51.2018H32.81C35.4751 51.2018 37.6354 53.373 37.6354 56.0514C37.6352 58.7298 35.4748 60.901 32.8098 60.901Z" fill="#C1EECC"/>
<path d="M29.9245 60.901H24.6513C21.9863 60.901 19.8276 58.7315 19.8276 56.0531C19.8276 54.7138 20.3678 53.4998 21.2408 52.6228C22.1135 51.7457 23.3189 51.2025 24.6513 51.2025H29.9245C28.5918 51.2025 27.3866 51.7454 26.5139 52.6228C25.6412 53.5001 25.1008 54.7138 25.1008 56.0531C25.1005 58.7315 27.2592 60.901 29.9245 60.901Z" fill="#86DD99"/>
<path d="M32.8098 43.0049H24.6516C21.9865 43.0049 19.8262 40.8337 19.8262 38.1553C19.8262 35.4768 21.9865 33.3057 24.6516 33.3057H32.81C35.4751 33.3057 37.6354 35.4768 37.6354 38.1553C37.6352 40.8337 35.4748 43.0049 32.8098 43.0049Z" fill="#C1EECC"/>
<path d="M29.9245 43.0049H24.6513C21.9863 43.0049 19.8276 40.8354 19.8276 38.157C19.8276 36.8177 20.3678 35.6037 21.2408 34.7266C22.1135 33.8496 23.3189 33.3064 24.6513 33.3064H29.9245C28.5918 33.3064 27.3866 33.8493 26.5139 34.7266C25.6412 35.604 25.1008 36.8177 25.1008 38.157C25.1005 40.8357 27.2592 43.0049 29.9245 43.0049Z" fill="#86DD99"/>
<path d="M87.9588 65.8691L81.1171 72.7451C79.4701 74.4004 79.4701 77.0842 81.1171 78.7395C82.7642 80.3948 85.4346 80.3948 87.0817 78.7395L93.9233 71.8636" fill="#E49542"/>
<path d="M82.6381 79.7177C82.0813 79.5138 81.5614 79.1878 81.1154 78.7393C79.4691 77.0847 79.4691 74.4016 81.1171 72.7453L87.9587 65.8694L90.453 68.3762L83.6114 75.2521C82.4094 76.4602 82.0832 78.2151 82.6381 79.7177Z" fill="#E28424"/>
<path d="M137.927 34.1055C132.405 40.651 120.835 54.2379 107.431 69.2193C107.431 69.2193 97.432 73.627 89.8886 75.9189L86.9062 72.9216L83.9238 69.9242C86.2043 62.3431 90.5901 52.2935 90.5901 52.2935C105.496 38.8231 119.016 27.1946 125.529 21.6455C127.837 19.6791 131.259 19.8217 133.398 21.972L137.601 26.1961C139.741 28.3464 139.883 31.7858 137.927 34.1055Z" fill="#ECECEC"/>
<path d="M85.9425 71.9538L83.9238 69.925C86.2026 62.3431 90.5903 52.293 90.5903 52.293C105.494 38.8224 119.015 27.1937 125.527 21.6462C127.835 19.6784 131.259 19.8213 133.397 21.9706L134.209 22.7859C125.42 26.0747 100.979 50.5273 96.193 56.701C92.3122 61.7092 87.8763 68.7946 85.9425 71.9538Z" fill="#DADADA"/>
<path d="M56.1553 47.6878C60.419 47.8621 64.7125 47.9494 69.0061 47.9494C73.2996 47.9494 77.5934 47.8624 81.8568 47.6878C85.3642 47.5442 88.2801 44.7797 88.6397 41.2571C88.9172 38.5376 88.9172 35.7803 88.6397 33.0608C88.2801 29.5379 85.3642 26.7734 81.8568 26.6301C73.3294 26.2812 64.6824 26.2812 56.1553 26.6301C52.6479 26.7734 49.7318 29.5382 49.3721 33.0608C49.0947 35.7803 49.0947 38.5376 49.3721 41.2571C49.732 44.7797 52.6479 47.5444 56.1553 47.6878ZM53.0232 33.437C53.1976 31.7266 54.6083 30.3845 56.3048 30.3152C60.5188 30.1428 64.7624 30.0568 69.0063 30.0568C73.2502 30.0568 77.4938 30.1431 81.7078 30.3152C83.404 30.3845 84.8147 31.7266 84.9892 33.437C85.2412 35.9066 85.2412 38.411 84.9892 40.8807C84.8147 42.5911 83.404 43.9331 81.7076 44.0024C73.2795 44.3472 64.7328 44.3469 56.3046 44.0024C54.6083 43.9329 53.1976 42.5908 53.0232 40.8807C52.7712 38.4112 52.7712 35.9066 53.0232 33.437Z" fill="#3B5974"/>
<path d="M140.26 33.9133C141.778 30.9986 141.301 27.2985 138.909 24.8917L134.705 20.6664C131.911 17.8616 127.363 17.6728 124.336 20.2506C124.272 20.3065 124.205 20.3623 124.139 20.4188L124.008 20.5297C123.236 21.1897 123.143 22.3535 123.799 23.1292C124.456 23.9052 125.614 23.9989 126.386 23.3392L126.505 23.2382C126.584 23.171 126.663 23.1044 126.723 23.0513C128.29 21.7176 130.657 21.8162 132.111 23.2753L136.313 27.4989C137.789 28.9845 137.885 31.3121 136.534 32.9135C131.114 39.341 120.312 52.025 107.587 66.293C103.572 60.9258 98.8511 56.1812 93.5107 52.1462C104.347 42.3848 114.278 33.7407 120.832 28.0978C121.602 27.4352 121.691 26.2709 121.032 25.4976C120.373 24.7243 119.214 24.6343 118.445 25.297C116.862 26.6599 115.08 28.1994 113.138 29.8854C112.891 24.2566 112.565 18.5882 112.157 12.9798C111.732 7.15721 107.237 2.46989 101.469 1.83452C79.9284 -0.541722 58.084 -0.541968 36.5427 1.83452C30.7754 2.46964 26.2805 7.15697 25.8553 12.9845L25.8144 13.5655H24.6604C20.9878 13.5655 18 16.5685 18 20.2592C18 23.95 20.9878 26.953 24.6604 26.953H25.0056C24.9314 28.4539 24.8629 29.9602 24.8006 31.4613H24.6601C20.9878 31.4613 18 34.4643 18 38.1553C18 41.7566 20.8447 44.701 24.3942 44.8422C24.3651 46.3497 24.3423 47.8612 24.3257 49.366C20.808 49.5418 18 52.473 18 56.0511C18 59.6293 20.808 62.5605 24.3257 62.7363C24.3423 64.2411 24.3651 65.7526 24.3942 67.2601C20.8447 67.4012 18 70.3457 18 73.947C18 77.638 20.9878 80.6407 24.6604 80.6407H24.801C24.8629 82.1392 24.9312 83.6455 25.0058 85.149H24.6604C20.9878 85.1493 18 88.152 18 91.8428C18 95.5335 20.9878 98.5365 24.6604 98.5365H25.8144L25.8558 99.1247C26.2546 104.598 30.279 109.126 35.6419 110.136C35.7562 110.158 35.8699 110.168 35.982 110.168C36.8478 110.168 37.6183 109.55 37.7834 108.664C37.9701 107.663 37.3139 106.699 36.3179 106.511C32.5903 105.809 29.7931 102.661 29.5161 98.8601L29.4934 98.5368H32.8185C36.4911 98.5368 39.4789 95.534 39.4789 91.843C39.4789 88.152 36.4911 85.1493 32.8185 85.1493H28.6809C28.6057 83.6462 28.5365 82.1396 28.4741 80.641H32.8188C36.4914 80.641 39.4791 77.6382 39.4791 73.9472C39.4791 70.2562 36.4914 67.2535 32.8188 67.2535H28.0646C28.0354 65.7513 28.0124 64.2448 27.9958 62.7452H32.8188C36.4914 62.7452 39.4791 59.7424 39.4791 56.0514C39.4791 52.3604 36.4914 49.3576 32.8188 49.3576H27.9958C28.0124 47.858 28.0354 46.3514 28.0646 44.8493H32.8185C36.4911 44.8493 39.4789 41.8466 39.4789 38.1556C39.4789 34.4646 36.4911 31.4618 32.8185 31.4618H28.4734C28.5363 29.9602 28.6055 28.4536 28.6801 26.9535H32.8185C36.4911 26.9535 39.4789 23.9507 39.4789 20.2597C39.4789 16.5687 36.4914 13.5655 32.8188 13.5655H29.4936L29.5159 13.2493C29.8112 9.20102 32.9347 5.94229 36.9432 5.50068C58.2188 3.1537 79.7941 3.1537 101.069 5.50068C105.078 5.94204 108.201 9.20102 108.497 13.249C108.973 19.794 109.34 26.4231 109.594 32.9713C103.702 38.1165 96.7136 44.2887 89.373 50.9227C89.179 51.098 89.0244 51.3129 88.9194 51.5529C88.7421 51.9594 84.6281 61.4115 82.3131 68.9434L79.8281 71.4409C77.4682 73.8127 77.4682 77.6716 79.8281 80.0432C80.9712 81.1922 82.4913 81.8249 84.108 81.8249C85.7247 81.8249 87.2445 81.1922 88.3878 80.0432L90.8721 77.5465C98.3667 75.2199 107.773 71.0849 108.177 70.9066C108.416 70.8011 108.63 70.6457 108.804 70.4507C109.172 70.0394 109.538 69.6295 109.903 69.2206C109.68 79.0803 109.21 89.0259 108.497 98.8547C108.202 102.901 105.077 106.16 101.069 106.604C81.9498 108.712 62.5544 108.927 43.4233 107.244C42.4146 107.155 41.5238 107.905 41.4354 108.92C41.3471 109.935 42.0936 110.829 43.1033 110.918C51.6962 111.674 60.341 112.052 68.9912 112.052C79.8409 112.052 90.6993 111.458 101.47 110.27C107.238 109.632 111.732 104.944 112.157 99.1237C112.978 87.8014 113.48 76.3264 113.654 65.0029C123.986 53.3383 132.761 43.0708 137.972 36.9102C140.482 40.1426 140.067 42.8704 136.734 46.2204C135.493 47.4673 133.138 49.0141 130.644 50.6517C125.555 53.9946 120.747 57.1522 120.387 60.6384C120.298 61.5054 120.443 62.7916 121.641 63.9965C122 64.3567 122.469 64.5367 122.939 64.5367C123.408 64.5367 123.878 64.3567 124.236 63.9965C124.953 63.2763 124.953 62.1088 124.236 61.3886C124.021 61.1725 124.031 61.08 124.037 61.0188C124.217 59.2791 129.497 55.8112 132.652 53.7393C135.309 51.994 137.819 50.3456 139.329 48.8285C144.224 43.9093 144.532 38.8972 140.26 33.9133ZM35.8093 91.8428C35.8093 93.5001 34.4678 94.8483 32.8188 94.8483H24.6604C23.0114 94.8483 21.6699 93.5001 21.6699 91.8428C21.6699 90.1855 23.0114 88.8373 24.6604 88.8373H32.8188C34.4678 88.8376 35.8093 90.1858 35.8093 91.8428ZM35.8093 73.947C35.8093 75.6042 34.4678 76.9524 32.8188 76.9524H24.6604C23.0114 76.9524 21.6699 75.6042 21.6699 73.947C21.6699 72.2897 23.0114 70.9415 24.6604 70.9415H32.8188C34.4678 70.9415 35.8093 72.2897 35.8093 73.947ZM35.8093 56.0511C35.8093 57.7084 34.4678 59.0566 32.8188 59.0566H24.6604C23.0114 59.0566 21.6699 57.7084 21.6699 56.0511C21.6699 54.3939 23.0114 53.0457 24.6604 53.0457H32.8188C34.4678 53.0457 35.8093 54.3939 35.8093 56.0511ZM35.8093 38.1553C35.8093 39.8126 34.4678 41.1608 32.8188 41.1608H24.6604C23.0114 41.1608 21.6699 39.8126 21.6699 38.1553C21.6699 36.498 23.0114 35.1499 24.6604 35.1499H32.8188C34.4678 35.1496 35.8093 36.498 35.8093 38.1553ZM35.8093 20.2592C35.8093 21.9165 34.4678 23.2647 32.8188 23.2647H24.6604C23.0114 23.2647 21.6699 21.9165 21.6699 20.2592C21.6699 18.602 23.0114 17.2538 24.6604 17.2538H32.8188C34.4678 17.2538 35.8093 18.6022 35.8093 20.2592ZM91.381 55.151C96.3891 58.9462 100.821 63.4002 104.597 68.4335C101.494 69.7455 95.5081 72.1985 90.4121 73.8272L86.0141 69.4072C87.6347 64.2856 90.0755 58.2698 91.381 55.151ZM84.1082 78.1369C83.4716 78.1369 82.8734 77.8878 82.4232 77.4354C81.4943 76.5017 81.4943 74.9824 82.4232 74.049L83.9328 72.5319L87.3025 75.9185L85.7927 77.4356C85.343 77.8878 84.7446 78.1369 84.1082 78.1369Z" fill="#3B5974"/>
</svg>
