<svg width="155" height="113" viewBox="0 0 155 113" fill="none" xmlns="http://www.w3.org/2000/svg">
<path d="M117.715 43.6235C117.715 43.6235 134.789 61.3369 134.789 88.4873C134.789 88.4873 119.929 93.9267 97.305 93.9267C88.4116 93.9267 80.7153 93.0863 74.6536 92.0648C65.2949 90.4908 59.8213 88.4873 59.8213 88.4873C59.8213 61.3369 76.8949 43.6235 76.8949 43.6235V32.5497L67.689 24.9699L59.8213 18.4928L74.8458 4.9884C76.6865 3.33314 78.9579 2.43006 81.2664 2.27451C82.343 2.20255 83.4243 2.29309 84.4778 2.54613C86.1796 2.95473 87.7981 3.78816 89.1734 5.04179L90.7757 6.50436C94.4756 9.88453 100.134 9.88453 103.837 6.50436L105.439 5.04179C106.814 3.78816 108.433 2.95473 110.135 2.54613C113.448 1.74985 117.067 2.56239 119.764 4.9884L134.789 18.4928L117.715 32.5497V43.6235Z" fill="#FBD9CB"/>
<path d="M82.1644 24.4945V44.6987C82.1644 44.6987 75.1951 65.9269 75.1951 76.3088C75.1951 80.4412 74.9496 86.3959 74.6556 92.0651C65.2968 90.4911 59.8232 88.4876 59.8232 88.4876C59.8232 61.3372 76.8969 43.6238 76.8969 43.6238V21.7456H79.4227C80.937 21.7454 82.1644 22.9763 82.1644 24.4945Z" fill="#E4BABA"/>
<path d="M81.2669 2.27454C76.0341 7.16138 69.9678 17.4435 67.6894 24.9699L59.8218 18.4928L74.8463 4.98842C76.687 3.33316 78.9584 2.43008 81.2669 2.27454Z" fill="#E4BABA"/>
<path d="M110.137 2.54614C109.583 5.15788 105.244 24.3594 97.3072 27.1475C89.3701 24.3594 85.0334 5.15788 84.48 2.54614C86.1818 2.95473 87.8002 3.78817 89.1756 5.0418L90.7778 6.50437C94.4778 9.88454 100.137 9.88454 103.839 6.50437L105.441 5.0418C106.816 3.78817 108.435 2.95473 110.137 2.54614Z" fill="#E4BABA"/>
<path d="M83.2915 69.8625C64.8219 68.8953 46.3526 68.8953 27.883 69.8625C24.1297 70.0591 21.0473 72.9132 20.571 76.6511C19.4288 85.615 19.4288 94.5788 20.571 103.543C21.0473 107.281 24.1297 110.135 27.883 110.331C46.3526 111.299 64.8219 111.299 83.2915 110.331C87.0447 110.135 90.1272 107.281 90.6035 103.543C91.7456 94.5788 91.7456 85.615 90.6035 76.6511C90.127 72.9132 87.0445 70.0591 83.2915 69.8625Z" fill="#C1EECC"/>
<path d="M31.2513 110.497C30.1284 110.446 29.0054 110.39 27.8824 110.332C24.1292 110.135 21.0474 107.282 20.5705 103.542C19.429 94.5782 19.429 85.6147 20.5705 76.6513C21.0474 72.9136 24.1292 70.0581 27.8824 69.8631C29.0054 69.805 30.1284 69.7493 31.2513 69.6982C28.8688 70.8799 27.1369 73.1968 26.7826 75.9803C25.5833 85.3919 25.5833 94.8034 26.7826 104.213C27.1369 106.996 28.8688 109.313 31.2513 110.497Z" fill="#89C89B"/>
<path d="M90.6031 88.5302C90.1275 92.2679 87.0451 95.1213 83.2918 95.3173C64.8232 96.2865 46.3545 96.2865 27.8831 95.3173C24.1296 95.1213 21.0474 92.2679 20.5716 88.5302C20.321 86.5625 20.1268 84.5945 19.983 82.6268C19.6375 87.5076 19.6299 92.3884 19.9617 97.2692C21.3593 99.3927 23.7098 100.814 26.3853 100.954C45.8551 101.976 65.3221 101.976 84.7894 100.954C87.466 100.814 89.8175 99.3916 91.2146 97.2667C91.5464 92.3831 91.5385 87.4997 91.1924 82.6163C91.0511 84.5876 90.8567 86.559 90.6031 88.5302Z" fill="#89C89B"/>
<path d="M64.9392 101.415C59.3572 101.721 53.7755 101.721 48.1936 101.415C45.7507 101.281 43.8032 99.3419 43.6066 96.8969C43.3369 93.5408 43.3369 90.1848 43.6066 86.8288C43.8032 84.3838 45.7506 82.445 48.1934 82.3111C53.7753 82.0049 59.357 82.0049 64.9389 82.3111C67.3817 82.445 69.3294 84.3838 69.5257 86.8288C69.7954 90.1848 69.7954 93.5408 69.5257 96.8969C69.3296 99.3419 67.3821 101.281 64.9392 101.415Z" fill="#F4D999"/>
<path d="M56.5663 95.458C54.2822 95.458 51.9707 95.4034 49.6787 95.2959C49.54 93.0132 49.54 90.7125 49.6787 88.4297C51.9707 88.3223 54.2822 88.2677 56.5663 88.2677C58.8502 88.2677 61.1616 88.3223 63.4534 88.4297C63.5921 90.7125 63.5921 93.0132 63.4534 95.2959C61.1616 95.4034 58.8502 95.458 56.5663 95.458Z" fill="#C1EECC"/>
<path d="M127.776 55.0378C124.237 48.553 120.72 44.3624 119.452 42.9437V33.3725L135.892 19.8381C136.283 19.5156 136.515 19.0381 136.526 18.5302C136.537 18.0222 136.326 17.5349 135.949 17.196L123.51 6.01774C122.796 5.37606 121.698 5.43642 121.058 6.15216C120.418 6.86812 120.478 7.96899 121.192 8.6109L132.123 18.4347L119.453 28.8661V21.7455C119.453 20.7839 118.676 20.0043 117.717 20.0043C116.757 20.0043 115.98 20.7839 115.98 21.7455L115.979 42.1511C103.58 44.1632 91.0312 44.163 78.632 42.1507V21.7455C78.632 20.7839 77.8548 20.0043 76.8955 20.0043C75.9362 20.0043 75.159 20.7839 75.159 21.7455V28.8668L62.4878 18.4347L76.0057 6.28448C77.9944 4.49643 80.5626 3.75331 83.034 4.04768C83.543 6.23968 84.7118 10.8375 86.5067 15.4179C89.456 22.9446 92.8962 27.4442 96.7314 28.7914C96.9173 28.8566 97.1113 28.8893 97.3054 28.8893C97.4994 28.8893 97.6937 28.8566 97.8794 28.7914C101.715 27.4442 105.155 22.9446 108.105 15.4181C109.897 10.8463 111.064 6.26057 111.575 4.06323C113.105 3.87983 114.685 4.08505 116.154 4.71559C117.037 5.09423 118.057 4.68401 118.434 3.8002C118.812 2.91616 118.403 1.89282 117.521 1.51441C113.06 -0.400629 107.86 0.479003 104.271 3.75447L102.668 5.21704C99.6106 8.00846 95.0013 8.00846 91.945 5.21704L90.3428 3.75447C85.6111 -0.56453 78.4505 -0.591228 73.6871 3.69202L58.6623 17.1964C58.2849 17.5354 58.0742 18.0229 58.0853 18.5306C58.0962 19.0386 58.328 19.5161 58.7193 19.8386L75.1585 33.3729V42.9428C74.02 44.2131 71.0943 47.6822 67.976 53.0018C65.335 51.5908 62.542 50.1976 59.7128 48.7873C57.2404 47.5545 54.7502 46.313 52.3598 45.0521C54.6961 42.1189 56.4981 38.7986 57.2879 34.9061C58.4947 28.9576 56.7294 23.644 52.4448 20.3277C48.3829 17.1839 42.7892 16.483 38.525 18.5838C36.2392 19.7097 32.4047 22.6321 32.4047 29.5512C32.4047 33.931 35.1788 38.0715 40.886 42.2094C42.6711 43.5037 44.6781 44.7573 46.8143 45.9805C44.1659 48.5925 41.1265 50.9173 38.2552 53.113C32.0734 57.8406 26.2083 62.3295 26.0566 68.3776C22.2747 69.2867 19.3566 72.4489 18.8486 76.4317C17.6937 85.4997 17.6937 94.6953 18.8486 103.764C19.4321 108.336 23.1934 111.83 27.7927 112.072C37.0144 112.554 46.301 112.795 55.5877 112.795C64.8743 112.795 74.1615 112.554 83.3834 112.072C87.9839 111.83 91.7441 108.336 92.3248 103.764C92.6707 101.053 92.9108 98.3299 93.0499 95.6028C94.4628 95.6453 95.8874 95.668 97.3054 95.668C119.975 95.668 134.766 90.3496 135.385 90.1233C136.07 89.8723 136.526 89.219 136.526 88.4877C136.526 74.0937 131.768 62.3527 127.776 55.0378ZM89.607 7.7907C93.9951 11.7998 100.616 11.7998 105.007 7.79116L106.609 6.32882C106.935 6.03167 107.279 5.76214 107.638 5.52023C107.035 7.82692 106.11 10.99 104.873 14.1438C101.979 21.5294 99.2457 24.2969 97.3061 25.2605C95.3667 24.2969 92.6336 21.5294 89.7396 14.1438C88.5037 10.9896 87.5782 7.82436 86.9751 5.51675C87.3326 5.75889 87.6771 6.02911 88.0054 6.32859L89.607 7.7907ZM35.8787 29.5503C35.8787 25.7666 37.3235 23.0548 40.0573 21.7081C41.2006 21.1449 42.5072 20.8717 43.852 20.8717C46.0993 20.8717 48.4526 21.6352 50.3235 23.0832C52.2019 24.5369 55.1624 27.9159 53.8855 34.2108C53.1855 37.6615 51.4731 40.6635 49.2382 43.3549C41.7329 39.1378 35.8787 34.6607 35.8787 29.5503ZM27.9738 71.602C31.0692 71.4409 34.1658 71.3062 37.1776 71.2018C38.1362 71.1683 38.8862 70.3625 38.8528 69.4014C38.8195 68.4401 38.0218 67.6911 37.0572 67.7215C34.6011 67.8067 32.0887 67.9128 29.5667 68.0359C30.0141 63.7981 34.8509 60.0955 40.3622 55.881C43.5998 53.4048 47.0368 50.7764 49.991 47.7326C52.6521 49.1545 55.4305 50.54 58.1671 51.9044C60.9062 53.2702 63.6675 54.6471 66.2864 56.0481C64.5661 59.3255 62.8742 63.1393 61.4739 67.436C55.6322 67.3708 49.8002 67.3961 44.0117 67.5235C43.0527 67.5446 42.2926 68.3409 42.3136 69.3025C42.3347 70.2641 43.1249 71.0341 44.0877 71.0049C57.033 70.72 70.1934 70.9211 83.2033 71.602C86.1244 71.7538 88.512 73.97 88.8806 76.8724C89.1244 78.7832 89.312 80.7001 89.4495 82.6203C89.3092 84.5472 89.1186 86.4601 88.8806 88.3108C88.5122 91.2109 86.1239 93.4259 83.2005 93.5779C79.2685 93.7839 75.3185 93.9443 71.4243 94.0615C71.5076 91.6028 71.4537 89.1338 71.2571 86.689C70.9915 83.3822 68.3161 80.7526 65.0343 80.5727C59.4151 80.2644 53.7169 80.2641 48.0991 80.5727C44.817 80.7526 42.1418 83.3822 41.876 86.689C41.6781 89.1524 41.6246 91.6404 41.7107 94.1179C37.1376 93.9958 32.5272 93.8171 27.9738 93.5779C25.0513 93.4261 22.6627 91.2111 22.2946 88.3101C22.0617 86.4812 21.8706 84.5745 21.7252 82.6412C21.8628 80.7141 22.0503 78.7902 22.2946 76.8724C22.6646 73.9704 25.0531 71.7538 27.9738 71.602ZM69.3425 57.7373C74.9682 60.9652 79.5137 64.3418 81.0412 68.0129C75.7468 67.7594 70.4328 67.5836 65.1204 67.4882C66.3723 63.8534 67.8454 60.5854 69.3425 57.7373ZM67.7951 96.7568C67.6682 98.3357 66.3996 99.5905 64.8444 99.6759C59.3516 99.9773 53.7817 99.9773 48.2885 99.6759C46.7332 99.5905 45.4646 98.3357 45.3378 96.7568C45.0768 93.5095 45.0768 90.2161 45.3378 86.9688C45.4646 85.3899 46.7332 84.1351 48.2887 84.0496C51.035 83.899 53.8007 83.8235 56.5664 83.8235C59.3322 83.8235 62.0979 83.899 64.8444 84.0496C66.3996 84.1351 67.6682 85.3899 67.7951 86.9688C68.0561 90.2161 68.0561 93.5095 67.7951 96.7568ZM83.2028 108.594C64.8791 109.552 46.2979 109.552 27.9749 108.594C25.0538 108.44 22.6646 106.223 22.2946 103.321C21.9116 100.314 21.663 97.2922 21.5426 94.2658C23.1601 95.8918 25.359 96.9291 27.7932 97.0556C32.4844 97.3022 37.2369 97.4851 41.9476 97.6079C42.4567 100.642 45.0085 102.984 48.0988 103.153C50.9083 103.307 53.7375 103.384 56.5664 103.384C59.3954 103.384 62.2248 103.307 65.0338 103.153C68.1431 102.983 70.7065 100.613 71.1936 97.5524C75.2213 97.4338 79.3111 97.269 83.3807 97.0556C85.8162 96.9291 88.0161 95.8911 89.6338 94.2647C89.5132 97.2915 89.264 100.314 88.8804 103.322C88.5118 106.223 86.1239 108.44 83.2028 108.594ZM127.354 88.7921C126.996 83.5577 126.336 78.3424 125.385 73.2596C125.208 72.3145 124.301 71.6925 123.358 71.8697C122.415 72.047 121.794 72.9571 121.971 73.9022C122.93 79.0214 123.582 84.2799 123.921 89.5547C122.584 89.8294 121.068 90.1147 119.39 90.3923C119.18 83.3901 118.434 76.4178 117.166 69.6375C116.989 68.6924 116.082 68.0705 115.139 68.2471C114.197 68.4245 113.576 69.3343 113.753 70.2794C115.013 77.0182 115.744 83.9528 115.931 90.9161C110.753 91.6285 104.43 92.1853 97.3056 92.1853C95.9282 92.1853 94.5443 92.1634 93.1717 92.1223C93.2699 86.8822 92.989 81.6359 92.3252 76.4322C91.8045 72.3321 88.7285 69.1024 84.784 68.304C83.5092 62.9835 78.0611 58.7095 71.0387 54.6914C73.8142 49.9812 76.4109 46.804 77.5447 45.5004C84.1038 46.5948 90.7051 47.1436 97.3065 47.1436C103.907 47.1436 110.508 46.595 117.067 45.5007C118.37 46.9948 121.596 50.9452 124.786 56.8142C128.441 63.5388 132.776 74.1975 133.04 87.2357C131.91 87.593 129.974 88.1648 127.354 88.7921Z" fill="#3B5974"/>
<path d="M63.5347 86.6905C61.2151 86.5816 58.8708 86.5266 56.5663 86.5266C54.2615 86.5266 51.917 86.5816 49.5974 86.6905C48.7116 86.7321 47.9994 87.4362 47.9452 88.324C47.8028 90.672 47.8028 93.0534 47.9452 95.4016C47.9991 96.2894 48.7116 96.9935 49.5974 97.0351C51.9151 97.1437 54.2599 97.199 56.5663 97.199C58.8724 97.199 61.217 97.144 63.5347 97.0351C64.4205 96.9935 65.1327 96.2894 65.1869 95.4016C65.3293 93.0534 65.3293 90.6722 65.1869 88.324C65.133 87.4364 64.4208 86.7321 63.5347 86.6905ZM61.7928 93.6222C58.3024 93.7478 54.8297 93.7478 51.3398 93.6222C51.3025 92.451 51.3025 91.2749 51.3398 90.1036C54.8321 89.9778 58.3005 89.9778 61.7928 90.1036C61.8301 91.2749 61.8301 92.451 61.7928 93.6222Z" fill="#3B5974"/>
</svg>
