<svg width="155" height="113" viewBox="0 0 155 113" fill="none" xmlns="http://www.w3.org/2000/svg">
<path d="M122.401 98.0831V110.798H116.979L113.365 103.532V98.0831H122.401Z" fill="#DBBC91"/>
<path d="M122.401 98.0831V107.165H115.172L113.365 103.532V98.0831H122.401Z" fill="#D8C09F"/>
<path d="M68.1826 103.532V7.26535C68.1826 5.82017 68.7538 4.43418 69.7706 3.41228C70.7874 2.39038 72.1665 1.81628 73.6045 1.81628H124.209C125.647 1.81628 127.026 2.39038 128.043 3.41228C129.059 4.43418 129.631 5.82017 129.631 7.26535V98.0831C129.631 99.5283 129.059 100.914 128.043 101.936C127.026 102.958 125.647 103.532 124.209 103.532H68.1826Z" fill="#C5A48C"/>
<path d="M97.0995 98.0831V110.798H91.6776L88.063 103.532V98.0831H97.0995Z" fill="#C5A48C"/>
<path d="M97.0995 98.0831V107.165H89.8703L88.063 103.532V98.0831H97.0995Z" fill="#766A56"/>
<path d="M51.9168 98.0831V103.532L48.3023 110.798H42.8804V98.0831H51.9168Z" fill="#C5A48C"/>
<path d="M51.9168 98.0831V103.532L50.1095 107.165H42.8804V98.0831H51.9168Z" fill="#766A56"/>
<path d="M35.6509 89.0014V52.6743C35.6509 51.2291 36.2221 49.8431 37.2389 48.8212C38.2557 47.7993 39.6348 47.2252 41.0728 47.2252H98.9062C100.344 47.2252 101.723 47.7993 102.74 48.8212C103.757 49.8431 104.328 51.2291 104.328 52.6743V89.0014H35.6509Z" fill="#CACAC9"/>
<path d="M93.4848 87.185V78.2826C93.4848 72.3063 98.1976 67.3063 104.143 67.2067C105.575 67.1821 106.997 67.4427 108.328 67.9734C109.659 68.5042 110.872 69.2946 111.897 70.299C112.922 71.3033 113.74 72.5019 114.302 73.8253C114.864 75.1488 115.159 76.5711 115.172 78.01C115.184 79.4489 114.912 80.8761 114.373 82.209C113.834 83.542 113.037 84.7544 112.029 85.7762C111.021 86.7981 109.821 87.6092 108.5 88.1628C107.178 88.7163 105.76 89.0013 104.329 89.0013V98.0831C104.329 99.5283 103.757 100.914 102.741 101.936C101.724 102.958 100.345 103.532 98.9067 103.532H41.0733C39.6353 103.532 38.2562 102.958 37.2394 101.936C36.2226 100.914 35.6514 99.5283 35.6514 98.0831V89.0013C33.5067 89.0013 31.4102 88.3622 29.6269 87.1647C27.8437 85.9672 26.4538 84.2651 25.6331 82.2737C24.8123 80.2824 24.5976 78.0911 25.016 75.9771C25.4344 73.8631 26.4672 71.9212 27.9837 70.3971C29.5002 68.8729 31.4324 67.835 33.5359 67.4145C35.6394 66.994 37.8197 67.2098 39.8011 68.0347C41.7826 68.8595 43.4761 70.2564 44.6677 72.0485C45.8592 73.8407 46.4952 75.9478 46.4952 78.1032V87.185C46.4952 87.185 53.7243 83.5523 69.99 83.5523C86.2556 83.5523 93.4848 87.185 93.4848 87.185Z" fill="#E4E4E3"/>
<path d="M71.7968 36.327H35.6509L37.4582 14.5308H69.9895L71.7968 36.327Z" fill="#FFD494"/>
<path d="M35.6514 72.6542C34.579 72.6542 33.5308 72.9738 32.6391 73.5725C31.7475 74.1713 31.0526 75.0223 30.6422 76.018C30.2318 77.0137 30.1245 78.1093 30.3337 79.1663C30.5429 80.2233 31.0593 81.1942 31.8175 81.9563C32.5758 82.7184 33.5419 83.2374 34.5936 83.4476C35.6454 83.6579 36.7355 83.5499 37.7262 83.1375C38.717 82.7251 39.5637 82.0267 40.1595 81.1306C40.7553 80.2345 41.0733 79.181 41.0733 78.1032C41.0716 76.6586 40.4999 75.2735 39.4834 74.252C38.467 73.2304 37.0889 72.6558 35.6514 72.6542ZM35.6514 79.9196C35.2939 79.9196 34.9445 79.8131 34.6473 79.6135C34.3501 79.4139 34.1184 79.1302 33.9817 78.7983C33.8449 78.4664 33.8091 78.1012 33.8788 77.7489C33.9485 77.3965 34.1207 77.0729 34.3734 76.8189C34.6262 76.5649 34.9482 76.3919 35.2988 76.3218C35.6494 76.2517 36.0128 76.2877 36.343 76.4252C36.6732 76.5626 36.9555 76.7954 37.1541 77.0941C37.3527 77.3928 37.4587 77.744 37.4587 78.1032C37.4581 78.5848 37.2676 79.0465 36.9287 79.387C36.5899 79.7275 36.1305 79.9191 35.6514 79.9196Z" fill="#3B5974"/>
<path d="M104.328 72.6542C103.256 72.6542 102.208 72.9738 101.316 73.5725C100.424 74.1713 99.7293 75.0223 99.319 76.018C98.9086 77.0137 98.8012 78.1093 99.0104 79.1663C99.2196 80.2233 99.736 81.1942 100.494 81.9563C101.253 82.7184 102.219 83.2374 103.27 83.4476C104.322 83.6579 105.412 83.5499 106.403 83.1375C107.394 82.7251 108.241 82.0267 108.836 81.1306C109.432 80.2345 109.75 79.181 109.75 78.1032C109.748 76.6586 109.177 75.2735 108.16 74.252C107.144 73.2304 105.766 72.6558 104.328 72.6542ZM104.328 79.9196C103.971 79.9196 103.621 79.8131 103.324 79.6135C103.027 79.4139 102.795 79.1302 102.658 78.7983C102.522 78.4664 102.486 78.1012 102.556 77.7489C102.625 77.3965 102.797 77.0729 103.05 76.8189C103.303 76.5649 103.625 76.3919 103.976 76.3218C104.326 76.2517 104.69 76.2877 105.02 76.4252C105.35 76.5626 105.632 76.7954 105.831 77.0941C106.029 77.3928 106.135 77.744 106.135 78.1032C106.135 78.5848 105.944 79.0465 105.605 79.387C105.267 79.7275 104.807 79.9191 104.328 79.9196Z" fill="#3B5974"/>
<path d="M116.979 78.1032C116.979 76.4153 116.645 74.7443 115.996 73.1876C115.346 71.6309 114.395 70.2198 113.197 69.0364C112 67.8531 110.58 66.9213 109.02 66.2953C107.46 65.6694 105.792 65.3618 104.113 65.3905C97.2558 65.5056 91.6771 71.2889 91.6771 78.2826V84.3844C86.7263 83.0301 79.5057 81.7359 69.9896 81.7359C60.4735 81.7359 53.2529 83.0301 48.3021 84.3844V78.1032C48.3021 76.392 47.9584 74.6983 47.2915 73.1238C46.6247 71.5492 45.6485 70.1261 44.4213 68.9398C43.1942 67.7535 41.7414 66.8284 40.15 66.2198C38.5586 65.6113 36.8613 65.3318 35.1599 65.3983C31.9803 65.5329 28.9671 66.8627 26.7168 69.1242C24.4666 71.3858 23.1434 74.4141 23.0094 77.6096C22.8888 80.7498 23.929 83.8238 25.9294 86.239C27.9299 88.6543 30.7491 90.2399 33.8437 90.6903V98.0831C33.8459 100.009 34.6082 101.856 35.9635 103.218C37.3187 104.58 39.1562 105.346 41.0729 105.349V110.798C41.0729 111.279 41.2633 111.741 41.6022 112.082C41.9412 112.423 42.4009 112.614 42.8802 112.614H48.3021C48.6377 112.614 48.9667 112.52 49.2521 112.343C49.5376 112.165 49.7684 111.912 49.9185 111.61L53.0336 105.349H86.9456L90.0607 111.61C90.2108 111.912 90.4416 112.165 90.727 112.343C91.0125 112.52 91.3415 112.614 91.6771 112.614H97.099C97.5783 112.614 98.038 112.423 98.377 112.082C98.7159 111.741 98.9063 111.279 98.9063 110.798V105.349C100.823 105.346 102.66 104.58 104.016 103.218C105.371 101.856 106.133 100.009 106.135 98.0831V90.6883C109.145 90.2476 111.896 88.7338 113.887 86.4233C115.878 84.1128 116.975 81.1597 116.979 78.1032ZM47.1852 108.981H44.6875V105.349H48.9925L47.1852 108.981ZM95.2917 108.981H92.794L90.9867 105.349H95.2917V108.981ZM104.328 87.185C103.849 87.185 103.389 87.3763 103.05 87.717C102.711 88.0576 102.521 88.5196 102.521 89.0013V98.0831C102.52 99.0462 102.139 99.9696 101.461 100.651C100.783 101.332 99.8646 101.715 98.9063 101.716H41.0729C40.1146 101.715 39.1959 101.332 38.5182 100.651C37.8406 99.9696 37.4594 99.0462 37.4583 98.0831V89.0013C37.4583 88.5196 37.2679 88.0576 36.929 87.717C36.59 87.3763 36.1303 87.185 35.651 87.185C34.4345 87.185 33.2306 86.9382 32.1113 86.4593C30.992 85.9804 29.9805 85.2793 29.1373 84.3981C28.2941 83.5168 27.6366 82.4736 27.2043 81.3308C26.772 80.188 26.5737 78.9693 26.6213 77.7477C26.7171 75.4662 27.6618 73.3041 29.2684 71.6895C30.875 70.0748 33.0263 69.1254 35.2963 69.0292C36.5119 68.9812 37.7245 69.1803 38.8617 69.6147C39.9988 70.0491 41.0369 70.7098 41.9138 71.5571C42.7908 72.4044 43.4885 73.421 43.9651 74.5458C44.4417 75.6706 44.6874 76.8806 44.6875 78.1032V85.5049C41.8385 86.5039 40.3414 87.3307 40.1869 87.4182L41.9551 90.5866C42.0484 90.5343 51.5084 85.3686 69.9896 85.3686C88.4708 85.3686 97.9308 90.5343 98.0203 90.5845L99.7923 87.4182C99.6378 87.3307 98.1407 86.5029 95.2917 85.5049V78.2826C95.2917 73.259 99.2759 69.105 104.173 69.0228C105.366 69.002 106.552 69.219 107.661 69.6611C108.77 70.1032 109.781 70.7618 110.636 71.5988C111.491 72.4358 112.172 73.4346 112.64 74.5376C113.109 75.6406 113.355 76.826 113.366 78.0252C113.376 79.2245 113.15 80.4139 112.7 81.5248C112.25 82.6358 111.586 83.6462 110.746 84.4978C109.906 85.3494 108.906 86.0254 107.805 86.4866C106.703 86.9478 105.522 87.1852 104.328 87.185Z" fill="#3B5974"/>
<path d="M37.4579 52.6744C37.459 51.7113 37.8402 50.7879 38.5178 50.1069C39.1954 49.4259 40.1141 49.0428 41.0724 49.0416H98.9059C99.8642 49.0428 100.783 49.4259 101.461 50.1069C102.138 50.7879 102.519 51.7113 102.52 52.6744V61.7561H106.135V52.6744C106.133 50.7481 105.371 48.9014 104.015 47.5393C102.66 46.1773 100.823 45.4111 98.9059 45.4089H41.0724C39.1558 45.4111 37.3183 46.1773 35.963 47.5393C34.6077 48.9014 33.8454 50.7481 33.8433 52.6744V61.7561H37.4579V52.6744Z" fill="#3B5974"/>
<path d="M59.146 56.3069H62.7606V59.9396H59.146V56.3069Z" fill="#3B5974"/>
<path d="M68.1826 65.3888H71.7972V69.0215H68.1826V65.3888Z" fill="#3B5974"/>
<path d="M50.1099 65.3888H53.7245V69.0215H50.1099V65.3888Z" fill="#3B5974"/>
<path d="M59.146 74.4705H62.7606V78.1032H59.146V74.4705Z" fill="#3B5974"/>
<path d="M77.2188 56.3069H80.8333V59.9396H77.2188V56.3069Z" fill="#3B5974"/>
<path d="M86.2559 65.3888H89.8704V69.0215H86.2559V65.3888Z" fill="#3B5974"/>
<path d="M77.2188 74.4705H80.8333V78.1032H77.2188V74.4705Z" fill="#3B5974"/>
<path d="M124.209 0H73.6047C71.688 0.00216338 69.8505 0.76832 68.4952 2.13038C67.14 3.49244 66.3776 5.33917 66.3755 7.26542V9.08177H69.9901V7.26542C69.9912 6.30232 70.3724 5.37898 71.05 4.69797C71.7276 4.01695 72.6464 3.63385 73.6047 3.63271H97.0995V41.7762H100.714V3.63271H124.209C125.167 3.63385 126.086 4.01695 126.764 4.69797C127.441 5.37898 127.822 6.30232 127.824 7.26542V98.0832C127.822 99.0463 127.441 99.9696 126.764 100.651C126.086 101.332 125.167 101.715 124.209 101.716H107.943V105.349H112.248L115.363 111.61C115.513 111.912 115.744 112.165 116.03 112.343C116.315 112.52 116.644 112.614 116.98 112.614H122.402C122.881 112.614 123.341 112.423 123.68 112.082C124.019 111.741 124.209 111.279 124.209 110.798V105.349C126.126 105.346 127.963 104.58 129.318 103.218C130.674 101.856 131.436 100.009 131.438 98.0832V7.26542C131.436 5.33917 130.674 3.49244 129.318 2.13038C127.963 0.76832 126.126 0.00216338 124.209 0ZM120.594 108.981H118.097L116.289 105.349H120.594V108.981Z" fill="#3B5974"/>
<path d="M35.6505 38.1436H51.9161V41.7763H55.5307V38.1436H71.7964C72.0464 38.1436 72.2936 38.0914 72.5226 37.9905C72.7515 37.8895 72.9571 37.7419 73.1263 37.557C73.2956 37.3721 73.4249 37.1539 73.5059 36.9163C73.587 36.6786 73.6181 36.4266 73.5974 36.1763L71.7901 14.38C71.7524 13.926 71.5463 13.5028 71.2127 13.1943C70.8791 12.8859 70.4424 12.7146 69.9891 12.7146H55.5307V9.08191H51.9161V12.7146H37.4578C37.0045 12.7146 36.5677 12.8859 36.2341 13.1943C35.9006 13.5028 35.6945 13.926 35.6568 14.38L33.8495 36.1763C33.8287 36.4266 33.8599 36.6786 33.9409 36.9163C34.022 37.1539 34.1513 37.3721 34.3205 37.557C34.4898 37.7419 34.6954 37.8895 34.9243 37.9905C35.1532 38.0914 35.4005 38.1436 35.6505 38.1436ZM39.1207 16.3473H68.3262L69.8323 34.5109H37.6146L39.1207 16.3473Z" fill="#3B5974"/>
</svg>
