<svg width="155" height="113" viewBox="0 0 155 113" fill="none" xmlns="http://www.w3.org/2000/svg">
<g clip-path="url(#clip0_3_6978)">
<path d="M80.7996 110.602H49.4398C46.4676 110.602 44.0581 108.186 44.0581 105.206V89.9847H80.7994V110.602H80.7996Z" fill="white"/>
<path d="M70.2157 110.602H54.6416V104.057C54.6416 102.826 55.6365 101.829 56.8639 101.829H67.9932C69.2206 101.829 70.2155 102.826 70.2155 104.057V110.602H70.2157Z" fill="#B1E4F9"/>
<path d="M84.0128 2.69067H40.8441C38.2947 2.69067 36.296 4.88619 36.5281 7.43175L44.0577 89.9847H80.7989L88.3285 7.43175C88.5608 4.88619 86.5621 2.69067 84.0128 2.69067Z" fill="#D3EFFB"/>
<path d="M46.8295 2.50269H38.1706C37.4821 2.50269 36.9423 4.69662 37.005 7.24036L39.0385 89.7341H54.5L47.995 7.24036C48.0578 4.69662 47.518 2.50269 46.8295 2.50269Z" fill="#B1E4F9"/>
<path d="M84.0128 2.69067H40.8441C38.2947 2.69067 36.296 4.88619 36.5281 7.43175L37.007 12.6815H87.8499L88.3288 7.43175C88.5608 4.88619 86.5621 2.69067 84.0128 2.69067Z" fill="#D3EFFB"/>
<path d="M123.94 110.602H79.9329C74.566 110.602 70.2153 106.24 70.2153 100.858V84.0357C70.2153 81.5507 72.2246 79.5361 74.703 79.5361H129.17C131.648 79.5361 133.657 81.5507 133.657 84.0357V100.858C133.657 106.24 129.306 110.602 123.94 110.602Z" fill="#FFCFBA"/>
<path d="M79.3151 110.79H71.6849C70.7544 110.79 70 106.425 70 101.041V84.2094C70 81.723 70.3484 79.7074 70.7781 79.7074H80.2219C80.6516 79.7074 81 81.723 81 84.2094V101.041C81 106.425 80.2456 110.79 79.3151 110.79Z" fill="#F4BBA3"/>
<path d="M129.959 64.0035H73.913C71.8706 64.0035 70.2148 65.6637 70.2148 67.7116V79.5364H133.657V67.7116C133.657 65.6637 132.001 64.0035 129.959 64.0035Z" fill="white"/>
<path d="M89.4678 90.2438H114.405V99.8944H89.4678V90.2438Z" fill="white"/>
<path d="M57.4909 53.7215C54.924 51.1479 54.7523 47.0317 57.0956 44.2521L61.4454 39.0923C61.9593 38.4828 62.8966 38.4828 63.4104 39.0923L67.7603 44.2521C70.1035 47.0317 69.9318 51.1481 67.365 53.7215C64.6383 56.4555 60.2176 56.4555 57.4909 53.7215Z" fill="white"/>
<path d="M124.25 21.1503C128.616 21.6786 132.483 23.5813 135.491 26.3543C132.984 28.3167 131.064 30.9507 130.041 33.9702C127.013 42.906 118.061 48.7957 108.351 47.596C106.062 47.3133 103.91 46.6577 101.946 45.699C101.473 43.5379 101.35 41.2634 101.621 38.9436C102.918 27.8054 113.068 19.797 124.25 21.1503Z" fill="#C1EECC"/>
<path d="M129.959 61.81H111.78C110.572 61.81 109.592 62.7919 109.592 64.0033C109.592 65.2147 110.572 66.1966 111.78 66.1966H129.959C130.792 66.1966 131.469 66.8761 131.469 67.7113V77.3429H72.4023V67.7113C72.4023 66.8761 73.08 66.1966 73.913 66.1966H92.092C93.3 66.1966 94.2795 65.2147 94.2795 64.0033C94.2795 62.7919 93.3 61.81 92.092 61.81H85.5647L90.5063 7.63152C90.673 5.8058 90.0616 3.98206 88.8289 2.62812C87.5965 1.27397 85.8408 0.497314 84.0123 0.497314H40.8435C39.015 0.497314 37.2593 1.27397 36.0266 2.62812C34.794 3.98228 34.1826 5.8058 34.3492 7.63152L41.8699 90.0849V105.206C41.8699 109.391 45.2653 112.795 49.4391 112.795H123.939C130.504 112.795 135.844 107.441 135.844 100.859V84.036C135.844 82.9891 135.603 81.998 135.174 81.1147C135.587 80.7157 135.844 80.1569 135.844 79.5366V67.7118C135.844 64.4573 133.204 61.81 129.959 61.81ZM73.913 61.81C70.6677 61.81 68.0273 64.4573 68.0273 67.7113V79.5362C68.0273 80.1564 68.2852 80.7153 68.698 81.1145C68.2688 81.9977 68.0273 82.9889 68.0273 84.0358V87.7914H46.0539L39.403 14.8747H85.4525L81.1716 61.8102H73.913V61.81ZM39.2582 5.58516C39.6697 5.13311 40.2327 4.88395 40.8435 4.88395H84.0123C84.623 4.88395 85.1859 5.13289 85.5976 5.58516C86.0093 6.03742 86.2052 6.62238 86.1497 7.2319L85.8526 10.4879H39.0029L38.7059 7.2319C38.6503 6.62238 38.8465 6.03742 39.2582 5.58516ZM46.2449 105.206V92.178H68.0276V99.6371C68.0157 99.6371 68.0046 99.6353 67.9928 99.6353H56.8634C54.4318 99.6353 52.4536 101.619 52.4536 104.057V108.409H49.4388C47.6777 108.409 46.2449 106.972 46.2449 105.206ZM56.8284 108.409V104.057C56.8284 104.038 56.844 104.022 56.8632 104.022H67.9926C68.0118 104.022 68.0273 104.038 68.0273 104.057V108.409H56.8284ZM131.469 100.859C131.469 105.022 128.091 108.409 123.939 108.409H79.9326C75.7805 108.409 72.4026 105.022 72.4026 100.859V84.0358C72.4026 82.7641 73.4344 81.7295 74.7027 81.7295H129.17C130.438 81.7295 131.47 82.7641 131.47 84.0358V100.859H131.469Z" fill="#3B5974"/>
<path d="M114.404 88.0504H89.4663C88.2584 88.0504 87.2788 89.0324 87.2788 90.2437V99.8943C87.2788 101.106 88.2584 102.088 89.4663 102.088H114.404C115.612 102.088 116.591 101.106 116.591 99.8943V90.2437C116.591 89.0324 115.612 88.0504 114.404 88.0504ZM112.216 97.701H91.6538V92.4371H112.216V97.701Z" fill="#3B5974"/>
<path d="M65.0809 37.6763C64.4194 36.8915 63.4523 36.4417 62.4277 36.4417C61.4031 36.4417 60.436 36.8917 59.7745 37.6763L55.4246 42.8358C52.372 46.4568 52.5999 51.9197 55.9437 55.2722C57.6756 57.0086 59.9784 57.9649 62.4277 57.9649C64.8771 57.9649 67.1798 57.0086 68.9117 55.2722C72.2555 51.9195 72.4836 46.457 69.431 42.8358L65.0809 37.6763ZM65.8181 52.1704C64.9125 53.0784 63.7085 53.5785 62.4277 53.5785C61.1471 53.5785 59.9431 53.0784 59.0375 52.1704C57.2891 50.4175 57.1698 47.5611 58.7661 45.6678L62.4277 41.3244L66.0894 45.6678C67.6858 47.5611 67.5666 50.4175 65.8181 52.1704Z" fill="#3B5974"/>
<path d="M136.971 24.74C133.493 21.5323 129.184 19.5381 124.512 18.9729C118.513 18.2463 112.595 19.9117 107.848 23.6607C103.125 27.3909 100.142 32.7281 99.4475 38.6891C99.162 41.139 99.2718 43.5828 99.7675 45.9578C98.924 47.9592 98.3517 50.0854 98.093 52.2807C97.9512 53.4835 98.8085 54.574 100.009 54.7161C100.096 54.7264 100.182 54.7315 100.268 54.7315C101.361 54.7315 102.306 53.911 102.438 52.7954C102.606 51.3676 102.928 49.9876 103.388 48.6713C104.903 49.2032 106.473 49.5741 108.083 49.773C108.998 49.886 109.908 49.9413 110.812 49.9413C120.307 49.9411 129.003 43.8502 132.112 34.676C132.985 32.0991 134.619 29.8193 136.837 28.0833C137.343 27.6868 137.651 27.0869 137.677 26.4429C137.702 25.799 137.444 25.1763 136.971 24.74ZM127.969 33.2646C125.228 41.354 117.089 46.4653 108.618 45.4193C107.494 45.2805 106.395 45.037 105.328 44.6968C106.927 42.2162 109.111 40.1185 111.768 38.5805C112.814 37.975 113.173 36.6335 112.569 35.5845C111.965 34.5354 110.627 34.1759 109.58 34.7817C107.37 36.0613 105.409 37.6918 103.755 39.5816C103.767 39.4537 103.778 39.326 103.793 39.1982C104.351 34.404 106.753 30.1097 110.555 27.1066C114.382 24.0845 119.153 22.7435 123.987 23.3278C126.941 23.6853 129.715 24.7534 132.126 26.4484C130.249 28.4035 128.831 30.7212 127.969 33.2646Z" fill="#3B5974"/>
<path d="M101.935 66.1966C103.143 66.1966 104.123 65.2146 104.123 64.0033C104.123 62.7919 103.143 61.8099 101.935 61.8099C100.727 61.8099 99.7476 62.7919 99.7476 64.0033C99.7476 65.2146 100.727 66.1966 101.935 66.1966Z" fill="#3B5974"/>
</g>
<path d="M44.6078 75.135H24.7822V63.9535C24.7822 62.81 25.7067 61.8828 26.8474 61.8828H42.5426C43.6831 61.8828 44.6078 62.8098 44.6078 63.9535V75.135Z" fill="#D2D8FF"/>
<path d="M44.1953 110.75H25.1957C22.9144 110.75 21.0654 108.896 21.0654 106.609V77.2057C21.0654 76.0622 21.9899 75.135 23.1306 75.135H46.2605C47.4011 75.135 48.3257 76.062 48.3257 77.2057V106.609C48.3255 108.896 46.4764 110.75 44.1953 110.75Z" fill="#FFDEAD"/>
<path d="M28.6363 110.79H22.3636C21.6104 110.79 21 108.911 21 106.593V76.7927C21 75.6337 21.3052 74.6941 21.6818 74.6941H29.3182C29.6947 74.6941 30 75.6335 30 76.7927V106.593C29.9999 108.911 29.3894 110.79 28.6363 110.79Z" fill="#F1CD98"/>
<path d="M42.1299 61.8828H27.2607V43.8151C27.2607 40.6853 30.5904 38.6865 33.3418 40.1647L39.9503 43.7151C41.2922 44.4362 42.1299 45.8388 42.1299 47.3655V61.8828Z" fill="#F2828C"/>
<path d="M46.6732 73.0853V63.9535C46.6732 62.2591 45.652 60.801 44.1951 60.1605V47.3657C44.1951 45.0717 42.9424 42.9739 40.9257 41.8902L34.3172 38.3398C32.379 37.2987 30.0957 37.3526 28.2087 38.4856C26.3219 39.6178 25.1957 41.6102 25.1957 43.8151V60.1602C23.7387 60.8008 22.7176 62.2589 22.7176 63.9533V73.0851C20.6331 73.2936 19 75.0616 19 77.2056V106.609C19 110.034 21.7792 112.821 25.1955 112.821H44.1949C47.6111 112.821 50.3903 110.034 50.3903 106.609V77.2056C50.3905 75.0618 48.7574 73.2938 46.6732 73.0853ZM26.8476 63.9535H27.2607H42.1299H42.543V73.0644H26.8478L26.8476 63.9535ZM29.3259 43.8151C29.3259 42.7558 30.0283 42.2199 30.3301 42.0385C30.6321 41.8573 31.4351 41.4899 32.3662 41.99L38.9747 45.5404C39.647 45.9016 40.0645 46.6009 40.0645 47.3655V59.8119H29.3259V43.8151ZM46.2601 106.609C46.2601 107.751 45.3338 108.68 44.1949 108.68H40.4775V92.9429C40.4775 91.7995 39.5531 90.8722 38.4123 90.8722C37.2716 90.8722 36.3471 91.7993 36.3471 92.9429V108.68H25.1955C24.0568 108.68 23.1302 107.751 23.1302 106.609V77.2058H46.2601V106.609Z" fill="#3B5974"/>
<path d="M38.4129 83.0035C37.8697 83.0035 37.337 83.2249 36.9528 83.6103C36.5687 83.9955 36.3477 84.5296 36.3477 85.0743C36.3477 85.6189 36.5687 86.153 36.9528 86.538C37.337 86.9232 37.8697 87.145 38.4129 87.145C38.9581 87.145 39.4888 86.9234 39.8729 86.538C40.2571 86.153 40.4781 85.6189 40.4781 85.0743C40.4781 84.5296 40.2571 83.9955 39.8729 83.6103C39.4888 83.2251 38.9581 83.0035 38.4129 83.0035Z" fill="#3B5974"/>
<defs>
<clipPath id="clip0_3_6978">
<rect width="112" height="112.298" fill="white" transform="translate(30 0.497314)"/>
</clipPath>
</defs>
</svg>
