<svg width="112" height="113" viewBox="0 0 112 113" fill="none" xmlns="http://www.w3.org/2000/svg">
<path d="M82.4564 102.276C82.218 107.34 78.0746 111.323 73.0497 111.323H43.318C38.2931 111.323 34.1497 107.34 33.9113 102.276C33.2659 88.6567 32.999 75.0374 33.1106 61.4183C33.1631 55.0212 33.3009 48.622 33.5197 42.2228C33.5219 42.1764 33.5241 42.1301 33.5263 42.086C33.9835 30.7086 43.0511 21.604 54.348 21.2355C56.9053 21.1516 59.4626 21.1516 62.02 21.2355C73.3627 21.6062 82.4567 30.7814 82.8482 42.2228C83.5349 62.2391 83.4037 82.2577 82.4564 102.276Z" fill="#D3EFFB"/>
<path d="M58.1854 21.175C57.6094 21.175 57.0334 21.1947 56.4576 21.2364C51.3495 21.6064 47.2569 30.7816 47.0797 42.2219C46.771 62.2416 46.8294 82.2588 47.2571 102.279C47.3641 107.341 49.2279 111.324 51.4928 111.324H43.3177C38.292 111.324 34.1511 107.34 33.9105 102.279C32.9628 82.2588 32.8315 62.2416 33.5193 42.2219C33.9131 30.7818 43.0068 21.6067 54.3483 21.2364C55.6263 21.1947 56.9045 21.175 58.1854 21.175Z" fill="#B1E4F9"/>
<path d="M56.5315 57.4301C56.2878 59.4977 54.5964 61.0915 52.5347 61.1937C50.6551 61.2868 48.776 61.359 46.8977 61.4095C42.3015 61.5375 37.7053 61.5397 33.1113 61.4184C33.1643 54.9763 33.3036 48.5323 33.525 42.088L33.527 42.0861C38.0444 41.9735 42.564 41.9823 47.0814 42.1103C48.9002 42.1604 50.7181 42.2312 52.5363 42.3217C54.5974 42.4243 56.2878 44.018 56.5317 46.0851C56.9774 49.8666 56.9774 53.6484 56.5315 57.4301Z" fill="#ECECEC"/>
<path d="M47.0805 42.1103C47.0805 42.1478 47.0783 42.1854 47.0783 42.2229C46.9798 48.6177 46.9186 55.0125 46.8967 61.4095C42.3005 61.5375 37.7043 61.5397 33.1104 61.4184C33.1629 55.0213 33.3007 48.6221 33.5194 42.2229C33.5216 42.1765 33.5238 42.1302 33.526 42.0861C38.0434 41.9735 42.563 41.9823 47.0805 42.1103Z" fill="#DADADA"/>
<path d="M70.4227 14.1885H45.9461C43.494 14.1885 41.5063 16.1936 41.5063 18.6668C41.5063 21.1403 43.4942 23.1452 45.9461 23.1452H70.4229C72.875 23.1452 74.8627 21.14 74.8627 18.6668C74.8627 16.1936 72.8748 14.1885 70.4227 14.1885Z" fill="#ECECEC"/>
<path d="M52.8379 21.8339C53.6422 22.6453 54.7529 23.1453 55.9777 23.1453H45.9461C44.7212 23.1453 43.6108 22.6453 42.8064 21.8339C42.0045 21.0226 41.5063 19.9047 41.5063 18.667C41.5063 16.1936 43.4942 14.1885 45.9463 14.1885H55.9779C53.5258 14.1885 51.538 16.1936 51.538 18.667C51.5378 19.9049 52.0361 21.0226 52.8379 21.8339Z" fill="#DADADA"/>
<path d="M65.2135 1.65503H51.1557C48.2785 1.65503 45.9463 4.00752 45.9463 6.90968V14.1887H70.4231V6.90968C70.4229 4.00752 68.0907 1.65503 65.2135 1.65503Z" fill="#ECECEC"/>
<path d="M58.6317 1.65405C55.7544 1.65405 53.4239 4.00718 53.4239 6.90953V14.1874H45.9463V6.90953C45.9463 4.00718 48.2767 1.65405 51.1541 1.65405H58.6317Z" fill="#DADADA"/>
<path d="M109.414 96.1517C109.145 96.5357 108.816 99.2282 108.435 99.5349C95.123 110.214 76.1619 110.214 62.8502 99.5349C62.4696 99.2282 62.1399 96.5357 61.8706 96.1517L80.2098 59.3464C82.4567 54.8418 88.8328 54.8418 91.0797 59.3488L93.8302 64.8696C91.14 65.4034 89.1112 67.7939 89.1112 70.662C89.1112 73.9234 91.7318 76.5668 94.9627 76.5668C96.4761 76.5668 97.8571 75.9884 98.8947 75.0356L109.414 96.1517Z" fill="#FFD575"/>
<path d="M108.436 103.316C95.1239 113.992 76.1628 113.992 62.8511 103.316C60.9547 101.794 60.3837 99.137 61.4723 96.9524L61.8715 96.1516C62.1408 96.5356 62.4702 96.8869 62.8511 97.1936C76.1628 107.872 95.1239 107.872 108.436 97.1936C108.816 96.8869 109.146 96.5358 109.415 96.1516L109.814 96.9524C110.903 99.137 110.332 101.794 108.436 103.316Z" fill="#F7798D"/>
<path d="M93.1945 97.1724C96.3233 97.1724 98.8597 94.614 98.8597 91.458C98.8597 88.302 96.3233 85.7435 93.1945 85.7435C90.0657 85.7435 87.5293 88.302 87.5293 91.458C87.5293 94.614 90.0657 97.1724 93.1945 97.1724Z" fill="#FFD17B"/>
<path d="M81.2526 84.1411C83.2881 84.1411 84.9382 82.4766 84.9382 80.4234C84.9382 78.3702 83.2881 76.7057 81.2526 76.7057C79.217 76.7057 77.5669 78.3702 77.5669 80.4234C77.5669 82.4766 79.217 84.1411 81.2526 84.1411Z" fill="#FFD17B"/>
<path d="M74.1692 90.591C74.1692 81.6853 67.0117 67.7175 58.1827 67.7175C49.3537 67.7175 42.1963 81.6853 42.1963 90.591C42.1963 99.4968 49.3537 106.716 58.1827 106.716C67.0117 106.716 74.1692 99.4968 74.1692 90.591Z" fill="#ECECEC"/>
<path d="M58.1842 106.717C49.3554 106.717 42.1973 99.4982 42.1973 90.5911C42.1973 81.6856 49.3554 67.718 58.1842 67.718C53.9067 67.718 50.4382 81.6858 50.4382 90.5911C50.4382 99.4982 53.9065 106.717 58.1842 106.717Z" fill="#DADADA"/>
<path d="M39.6814 90.591C39.6814 81.6853 32.524 67.7175 23.6949 67.7175C14.8659 67.7175 7.7085 81.6851 7.7085 90.591C7.7085 99.497 14.8659 106.716 23.6949 106.716C32.524 106.716 39.6814 99.4968 39.6814 90.591Z" fill="#ECECEC"/>
<path d="M23.6954 106.717C14.8666 106.717 7.7085 99.4982 7.7085 90.5911C7.7085 81.6856 14.8666 67.718 23.6954 67.718C19.4179 67.718 15.9495 81.6858 15.9495 90.5911C15.9495 99.4982 19.4177 106.717 23.6954 106.717Z" fill="#DADADA"/>
<path d="M75.4279 90.5906C75.4279 90.7179 75.4279 90.8452 75.426 90.9725C75.4056 92.7306 75.2407 94.4906 75.0024 96.2486C74.4956 99.9966 73.6465 103.745 73.111 107.495C72.8769 109.132 71.586 110.407 69.9571 110.594C63.8736 111.29 58.7854 111.489 53.2658 111.185C51.0832 111.068 48.8313 110.871 46.4269 110.596C44.7941 110.407 43.4889 109.136 43.2549 107.494C43.1002 106.412 42.921 105.12 42.7296 103.742C42.5666 102.572 41.5588 102.056 40.6509 102.194C39.9343 102.301 39.2787 102.818 39.1505 103.742C38.959 105.12 38.7779 106.412 38.6232 107.494C38.3892 109.135 37.084 110.407 35.4512 110.596C26.965 111.567 20.4111 111.565 11.921 110.594C10.2921 110.407 9.00138 109.131 8.76709 107.495C8.23156 103.745 7.38473 99.9966 6.87764 96.2486C6.63941 94.4906 6.47446 92.7306 6.45412 90.9725C6.45215 90.8452 6.45215 90.7179 6.45215 90.5906H75.4279Z" fill="#FFCF9C"/>
<path d="M75.4267 90.9725C75.4063 92.7306 75.2414 94.4906 75.0031 96.2486H6.87811C6.63988 94.4906 6.47493 92.7306 6.45459 90.9725H75.4267Z" fill="#E1AA73"/>
<path d="M18.766 111.186C16.5815 111.067 14.3295 110.868 11.921 110.593C10.2921 110.406 9.00138 109.13 8.76708 107.494C7.96292 101.858 6.45215 96.225 6.45215 90.5895H14.2197C14.4092 96.4735 15.9422 102.357 16.781 108.239C16.9621 109.508 17.7136 110.582 18.766 111.186Z" fill="#E1AA73"/>
<path d="M53.2667 111.185C51.0842 111.068 48.8322 110.871 46.4278 110.596C44.795 110.407 43.4898 109.136 43.2558 107.494C43.1011 106.412 42.9219 105.12 42.7305 103.742C42.5676 102.572 41.5597 102.056 40.6519 102.194C40.7496 97.842 40.9592 93.4616 40.9592 90.5925H48.7266C48.916 96.4765 50.4491 102.36 51.2878 108.242C51.469 109.509 52.2182 110.581 53.2667 111.185Z" fill="#E1AA73"/>
<path d="M77.6261 93.2292H4.25343C2.80895 93.2292 1.6377 92.048 1.6377 90.5908C1.6377 89.1335 2.80873 87.9523 4.25343 87.9523H77.6259C79.0704 87.9523 80.2416 89.1335 80.2416 90.5908C80.2416 92.048 79.0706 93.2292 77.6261 93.2292Z" fill="#FFCF9C"/>
<path d="M13.5034 93.2299H4.25187C2.80828 93.2299 1.6377 92.0469 1.6377 90.591C1.6377 89.1329 2.80849 87.9519 4.25187 87.9519H13.5034C12.0578 87.9519 10.8871 89.1329 10.8871 90.591C10.8871 92.0469 12.0578 93.2299 13.5034 93.2299Z" fill="#E1AA73"/>
<path d="M111.284 96.2083L100.363 74.292C100.133 73.8293 99.7006 73.502 99.196 73.4078C98.6911 73.3136 98.1715 73.4632 97.7922 73.8121C97.021 74.5211 96.0174 74.9116 94.9664 74.9116C92.6443 74.9116 90.7553 73.0051 90.7553 70.6617C90.7553 68.6369 92.1829 66.8839 94.1502 66.4931C94.6534 66.3932 95.0813 66.0617 95.3068 65.5972C95.5324 65.1327 95.5295 64.5886 95.2994 64.1263L92.5493 58.6046C91.2298 55.958 88.5854 54.3138 85.6485 54.3136C85.6483 54.3136 85.6481 54.3136 85.6478 54.3136C85.3639 54.3136 85.0841 54.3335 84.8065 54.3637C84.7345 50.2755 84.6302 46.1819 84.4917 42.1657C84.3528 38.1079 83.1699 34.1445 81.0707 30.704C80.5958 29.9255 79.5851 29.6827 78.8135 30.162C78.0419 30.6411 77.8013 31.6605 78.2762 32.4388C80.0777 35.3915 81.093 38.7946 81.2122 42.2804C81.3625 46.6303 81.4728 51.0714 81.5443 55.4977C80.3728 56.238 79.3987 57.2976 78.7477 58.6029L70.7206 74.7133C67.6131 69.8419 63.2622 66.063 58.1862 66.063C49.3325 66.063 42.6837 77.5574 40.9953 86.2972H40.8892C40.0233 81.8155 37.853 76.6107 34.7499 72.6015C34.7275 69.448 34.7271 66.2802 34.7461 63.1057C36.4413 63.1397 38.1404 63.162 39.8442 63.162C44.1013 63.162 48.3757 63.0563 52.6161 62.8458C55.4909 62.703 57.824 60.507 58.1639 57.624C58.6229 53.7311 58.6229 49.7832 58.1639 45.8902C57.824 43.0073 55.4911 40.8112 52.617 40.6687C46.8791 40.384 41.0684 40.2933 35.3162 40.3944C36.1716 33.5999 40.3453 27.757 46.5532 24.8001H69.822C71.4537 25.5773 72.9765 26.5756 74.3501 27.7771C74.6605 28.0487 75.0431 28.1818 75.4242 28.1818C75.8834 28.1818 76.3402 27.9885 76.6646 27.6111C77.2581 26.9207 77.1844 25.8754 76.4999 25.2765C75.7607 24.63 74.9823 24.0362 74.1733 23.4916C75.5922 22.3677 76.5064 20.6234 76.5064 18.6668C76.5064 15.8582 74.6246 13.4863 72.0667 12.7621V6.90963C72.066 3.09966 68.9933 0 65.2159 0H51.1581C47.3809 0 44.308 3.09966 44.308 6.90963V12.7625C41.7498 13.4867 39.868 15.8586 39.868 18.6672C39.868 20.6236 40.7818 22.3675 42.2002 23.4914C39.7232 25.1578 37.5743 27.2963 35.8817 29.805C33.4174 33.4576 32.0346 37.7321 31.883 42.1657C31.5752 51.1255 31.4306 60.1826 31.4507 69.1468C29.1542 67.2493 26.54 66.0633 23.698 66.0633C19.7087 66.0633 15.6719 68.527 12.3312 73.0005C11.7858 73.7304 11.9306 74.7682 12.6545 75.3181C13.3784 75.8682 14.407 75.7221 14.9521 74.992C16.5194 72.8934 19.7395 69.3732 23.6982 69.3732C26.7817 69.3732 30.0209 71.5514 32.8195 75.5061C35.0356 78.6378 36.7353 82.5556 37.5408 86.2974H9.8539C10.273 84.3556 10.9396 82.3434 11.8182 80.3845C12.1916 79.5517 11.8252 78.5713 10.9996 78.1944C10.1742 77.8178 9.20199 78.1874 8.82835 79.0202C7.75095 81.4225 6.96297 83.9098 6.50925 86.2972H4.25645C1.90935 86.2972 0 88.2231 0 90.5906C0 92.9579 1.90957 94.8841 4.25645 94.8841H5.0628C5.33516 97.4195 5.79434 99.9463 6.24346 102.403C6.56351 104.154 6.89449 105.964 7.14607 107.729C7.4869 110.111 9.37525 111.965 11.7392 112.237C16.0409 112.73 19.8675 112.977 23.6956 112.977C27.518 112.977 31.342 112.731 35.6404 112.239C36.4249 112.149 37.1549 111.884 37.7961 111.486C39.4705 112.465 41.3571 112.978 43.3214 112.978H58.1884L58.1843 112.977C62.0135 112.977 65.842 112.73 70.1459 112.237C71.2857 112.106 72.3128 111.604 73.1115 110.856C77.1708 112.269 81.3934 112.964 85.5971 112.964C94.1472 112.964 102.616 110.099 109.459 104.611C111.947 102.617 112.715 99.0829 111.284 96.2083ZM47.5894 6.90963C47.5894 4.92476 49.1903 3.30995 51.1581 3.30995H65.2159C67.1837 3.30995 68.7846 4.92476 68.7846 6.90963V12.5337H47.5894V6.90963ZM45.9487 15.8436H70.4253C71.9689 15.8436 73.2244 17.1102 73.2244 18.667C73.2244 20.224 71.9687 21.4906 70.4253 21.4906H45.9487C44.4051 21.4906 43.1494 20.224 43.1494 18.667C43.1494 17.1102 44.4053 15.8436 45.9487 15.8436ZM52.4553 43.9751C53.7246 44.038 54.755 45.008 54.905 46.2815C55.3334 49.9151 55.3334 53.6 54.905 57.2334C54.755 58.5069 53.7244 59.4771 52.4545 59.54C46.5796 59.8317 40.6405 59.9169 34.7731 59.7989C34.8293 54.4312 34.9441 49.0554 35.1174 43.7092C40.8804 43.6024 46.7045 43.69 52.4553 43.9751ZM81.6786 60.0901C82.4491 58.5457 83.9325 57.6238 85.6474 57.6238H85.6478C87.3629 57.624 88.847 58.5466 89.6173 60.0914L91.5354 63.9425C89.0966 65.2137 87.4738 67.7835 87.4738 70.6619C87.4738 74.8304 90.8349 78.2218 94.9664 78.2218C96.1235 78.2218 97.2492 77.9552 98.2654 77.4519L107.445 95.8742C107.435 95.8821 107.426 95.891 107.416 95.8989C102.801 99.6014 97.2829 102.078 91.4577 103.061C86.2066 103.947 80.7889 103.609 75.6986 102.094C76.1295 99.734 76.5611 97.3134 76.8217 94.8841H77.6289C79.976 94.8841 81.8854 92.9581 81.8854 90.5906C81.8854 88.2231 79.976 86.2972 77.6289 86.2972H75.3765C74.878 83.7165 73.9471 80.8962 72.6543 78.2019L81.6786 60.0901ZM49.0641 75.5065C51.8629 71.5514 55.1026 69.3732 58.1858 69.3732C61.2699 69.3732 64.5096 71.5514 67.3082 75.5065C69.524 78.638 71.2236 82.5558 72.0288 86.2976H44.3428C45.148 82.5563 46.8478 78.6384 49.0641 75.5065ZM3.28143 90.5911C3.28143 90.0487 3.71895 89.6076 4.25645 89.6076H77.6289C78.1666 89.6076 78.6039 90.0487 78.6039 90.5911C78.6039 91.1332 78.1666 91.5746 77.6289 91.5746H4.25645C3.71873 91.5744 3.28143 91.1332 3.28143 90.5911ZM39.9448 108.892C40.0872 108.522 40.1931 108.134 40.2508 107.729C40.4042 106.644 40.5862 105.351 40.7765 103.971C40.7897 103.878 40.7967 103.826 40.9421 103.826C41.0878 103.826 41.0948 103.878 41.1077 103.97C41.2983 105.351 41.4803 106.644 41.6339 107.731C41.7299 108.403 41.9535 109.032 42.2735 109.597C41.4615 109.487 40.6785 109.25 39.9448 108.892ZM69.7745 108.949C61.4429 109.904 54.9494 109.905 46.6153 108.951C45.7221 108.849 45.0091 108.153 44.882 107.262C44.7291 106.18 44.5478 104.891 44.3574 103.512C44.1124 101.748 42.7078 100.516 40.9419 100.516C39.1761 100.516 37.7716 101.748 37.5266 103.514C37.3365 104.891 37.1551 106.18 37.0024 107.26C36.8751 108.153 36.1622 108.849 35.2696 108.951C26.9339 109.905 20.4404 109.904 12.1104 108.949C11.2277 108.847 10.5218 108.151 10.3938 107.257C10.133 105.429 9.79615 103.585 9.47019 101.803C9.05389 99.5264 8.62927 97.1885 8.36457 94.8843H73.5197C73.2546 97.1946 72.8288 99.539 72.4117 101.822C72.087 103.599 71.7512 105.436 71.4905 107.258C71.3627 108.152 70.6568 108.847 69.7745 108.949ZM107.416 102.02C98.2293 109.389 85.8351 111.58 74.7065 107.903C74.7165 107.845 74.7301 107.789 74.7384 107.732C74.8502 106.951 74.9786 106.161 75.1134 105.371C78.5414 106.355 82.0995 106.855 85.664 106.855C87.7825 106.855 89.9032 106.679 91.9991 106.325C98.061 105.303 103.817 102.799 108.713 99.0683C108.776 100.182 108.317 101.298 107.416 102.02Z" fill="#3B5974"/>
<path d="M87.1772 95.6327C88.2828 97.2548 89.9484 98.3453 91.8671 98.7036C92.316 98.7875 92.766 98.829 93.2127 98.829C94.6762 98.829 96.1045 98.3846 97.3365 97.5302C98.9446 96.415 100.026 94.7348 100.381 92.7994C100.736 90.864 100.323 88.9048 99.2176 87.2827C98.112 85.6606 96.4464 84.5701 94.5277 84.2118C92.6083 83.8534 90.6666 84.2702 89.0585 85.3852C87.4504 86.5005 86.3693 88.1806 86.014 90.116C85.6583 92.0516 86.0716 94.0109 87.1772 95.6327ZM89.2403 90.7186C89.4361 89.6524 90.0317 88.7269 90.9175 88.1126C91.5961 87.6419 92.3827 87.3972 93.1889 87.3972C93.435 87.3972 93.683 87.4202 93.93 87.4663C94.9871 87.6638 95.9045 88.2644 96.5138 89.1581C97.1228 90.0515 97.3503 91.1308 97.1547 92.197C96.959 93.2633 96.3633 94.1887 95.4775 94.803C94.5915 95.4173 93.5214 95.6468 92.465 95.4496C91.408 95.2521 90.4905 94.6514 89.8812 93.7578C89.2722 92.8641 89.0445 91.7848 89.2403 90.7186Z" fill="#3B5974"/>
<path d="M80.2857 85.7061C80.613 85.7672 80.9411 85.7974 81.2669 85.7974C82.3337 85.7974 83.375 85.4733 84.2733 84.8506C85.4456 84.0375 86.2338 82.8126 86.4928 81.4017C86.752 79.9906 86.4506 78.5622 85.6447 77.3795C84.8387 76.1968 83.6242 75.4017 82.2255 75.1405C79.3376 74.6014 76.553 76.5322 76.0184 79.4451C75.4833 82.358 77.3979 85.1668 80.2857 85.7061ZM79.2447 80.0477C79.4498 78.9294 80.5191 78.1875 81.6278 78.3952C82.1649 78.4956 82.631 78.8008 82.9406 79.2549C83.2501 79.709 83.3656 80.2573 83.2663 80.7991C83.1668 81.3408 82.8642 81.8112 82.414 82.1232C81.964 82.4355 81.4209 82.5522 80.8832 82.4518C79.7745 82.2444 79.0395 81.166 79.2447 80.0477Z" fill="#3B5974"/>
</svg>
