<svg width="155" height="113" viewBox="0 0 155 113" fill="none" xmlns="http://www.w3.org/2000/svg">
<path d="M116.158 2.13159H37.8451C32.859 2.13159 28.8169 6.1844 28.8169 11.1839V101.973H125.186V11.1839C125.186 6.1844 121.144 2.13159 116.158 2.13159Z" fill="#ECECEC"/>
<path d="M126.789 101.975H27.2112C24.6868 101.975 22.6406 104.026 22.6406 106.557C22.6406 109.088 24.687 111.14 27.2112 111.14H126.789C129.313 111.14 131.359 109.088 131.359 106.557C131.359 104.026 129.313 101.975 126.789 101.975Z" fill="#C2BDB8"/>
<path d="M33.6634 109.796C34.4925 110.625 35.6344 111.139 36.8966 111.139H27.2103C25.9481 111.139 24.8062 110.625 23.9794 109.796C23.1525 108.967 22.6406 107.822 22.6406 106.557C22.6406 104.026 24.6859 101.973 27.2103 101.973H36.8966C34.3722 101.973 32.3247 104.026 32.3247 106.557C32.3247 107.822 32.8366 108.967 33.6634 109.796Z" fill="#B0A8A8"/>
<path d="M56.5637 44.3756C57.4632 34.9474 57.5735 25.5192 56.8945 16.091C56.7276 13.7731 54.9087 11.9187 52.6002 11.7088C45.9231 11.1021 39.2459 11.1021 32.5688 11.7088C30.2606 11.9185 28.4417 13.7731 28.2745 16.091C27.5955 25.5192 27.7058 34.9474 28.6053 44.3756" fill="#FFCF9C"/>
<path d="M33.8785 44.376H28.6045C27.7054 34.9491 27.5938 25.5201 28.2741 16.091C28.4404 13.7748 30.2604 11.9193 32.5682 11.7087C33.4126 11.632 34.257 11.5662 35.1013 11.507C34.3204 12.347 33.7888 13.742 33.7188 15.3431C33.2857 25.02 33.3382 34.6991 33.8785 44.376Z" fill="#E1AA73"/>
<path d="M42.5842 36.3601C47.2833 36.3601 51.0927 33.5161 51.0927 30.0078C51.0927 26.4995 47.2833 23.6555 42.5842 23.6555C37.8851 23.6555 34.0757 26.4995 34.0757 30.0078C34.0757 33.5161 37.8851 36.3601 42.5842 36.3601Z" fill="#F2828C"/>
<path d="M90.9798 44.3756C91.8793 34.9474 91.9895 25.5192 91.3105 16.091C91.1436 13.7731 89.3247 11.9187 87.0162 11.7088C80.3391 11.1021 73.662 11.1021 66.9848 11.7088C64.6766 11.9185 62.8577 13.7731 62.6906 16.091C62.0116 25.5192 62.1218 34.9474 63.0213 44.3756" fill="#FFCF9C"/>
<path d="M68.2936 44.376H63.0195C62.1204 34.9491 62.0089 25.5201 62.6892 16.091C62.8554 13.7748 64.6754 11.9193 66.9832 11.7087C67.8276 11.632 68.672 11.5662 69.5164 11.507C68.7354 12.347 68.2039 13.742 68.1339 15.3431C67.7007 25.02 67.7532 34.6991 68.2936 44.376Z" fill="#E1AA73"/>
<path d="M76.9992 36.3601C81.6984 36.3601 85.5077 33.5161 85.5077 30.0078C85.5077 26.4995 81.6984 23.6555 76.9992 23.6555C72.3001 23.6555 68.4907 26.4995 68.4907 30.0078C68.4907 33.5161 72.3001 36.3601 76.9992 36.3601Z" fill="#F2828C"/>
<path d="M125.396 44.3756C126.295 34.9474 126.406 25.5192 125.727 16.091C125.56 13.7731 123.741 11.9187 121.432 11.7088C114.755 11.1021 108.078 11.1021 101.401 11.7088C99.0926 11.9185 97.2737 13.7731 97.1066 16.091C96.4276 25.5192 96.5378 34.9474 97.4373 44.3756" fill="#FFCF9C"/>
<path d="M102.712 44.376H97.4375C96.5384 34.9491 96.4268 25.5201 97.1072 16.091C97.2734 13.7748 99.0934 11.9193 101.401 11.7087C102.246 11.632 103.09 11.5662 103.934 11.507C103.153 12.347 102.622 13.742 102.552 15.3431C102.119 25.02 102.171 34.6991 102.712 44.376Z" fill="#E1AA73"/>
<path d="M111.417 36.3601C116.116 36.3601 119.926 33.5161 119.926 30.0078C119.926 26.4995 116.116 23.6555 111.417 23.6555C106.718 23.6555 102.909 26.4995 102.909 30.0078C102.909 33.5161 106.718 36.3601 111.417 36.3601Z" fill="#F2828C"/>
<path d="M126.789 44.3774H27.2112C24.6868 44.3774 22.6406 46.4293 22.6406 48.9602C22.6406 51.4912 24.687 53.5429 27.2112 53.5429H126.789C129.313 53.5429 131.359 51.491 131.359 48.9602C131.359 46.4293 129.313 44.3774 126.789 44.3774Z" fill="#C2BDB8"/>
<path d="M33.6634 52.1992C34.4925 53.0282 35.6344 53.5415 36.8966 53.5415H27.2103C25.9481 53.5415 24.8062 53.0282 23.9794 52.1992C23.1525 51.3701 22.6406 50.2252 22.6406 48.9596C22.6406 46.4286 24.6859 44.3756 27.2103 44.3756H36.8966C34.3722 44.3756 32.3247 46.4286 32.3247 48.9596C32.3247 50.2252 32.8366 51.3701 33.6634 52.1992Z" fill="#B0A8A8"/>
<path d="M47.3069 86.4624H39.8169C38.2045 86.4624 36.8975 87.7729 36.8975 89.3896V99.0463C36.8975 100.663 38.2045 101.974 39.8169 101.974H47.3069C48.9193 101.974 50.2263 100.663 50.2263 99.0463V89.3896C50.2266 87.7731 48.9193 86.4624 47.3069 86.4624Z" fill="#E4F0FF"/>
<path d="M44.8184 101.975H39.8156C38.2034 101.975 36.8975 100.665 36.8975 99.0466V89.3916C36.8975 87.7751 38.2034 86.4635 39.8156 86.4635H44.8184C43.204 86.4635 41.8981 87.7749 41.8981 89.3916V99.0466C41.8981 100.665 43.204 101.975 44.8184 101.975Z" fill="#CBDEF7"/>
<path d="M48.4177 80.5125H38.7052C37.7066 80.5125 36.897 81.3242 36.897 82.3254V84.6495C36.897 85.6507 37.7066 86.4625 38.7052 86.4625H48.4177C49.4163 86.4625 50.2259 85.6507 50.2259 84.6495V82.3254C50.2261 81.324 49.4165 80.5125 48.4177 80.5125Z" fill="#F2828C"/>
<path d="M43.0526 86.4639H38.706C37.7063 86.4639 36.897 85.6524 36.897 84.65V82.3273C36.897 81.325 37.7063 80.5134 38.706 80.5134H43.0526C42.0551 80.5134 41.2457 81.325 41.2457 82.3273V84.65C41.2457 85.6524 42.0551 86.4639 43.0526 86.4639Z" fill="#F6798D"/>
<path d="M47.3069 65.0011H39.8169C38.2045 65.0011 36.8975 66.3116 36.8975 67.9283V77.585C36.8975 79.2017 38.2045 80.5122 39.8169 80.5122H47.3069C48.9193 80.5122 50.2263 79.2017 50.2263 77.585V67.9283C50.2266 66.3116 48.9193 65.0011 47.3069 65.0011Z" fill="#E4F0FF"/>
<path d="M44.8184 80.5131H39.8156C38.2034 80.5131 36.8975 79.2037 36.8975 77.585V67.93C36.8975 66.3136 38.2034 65.002 39.8156 65.002H44.8184C43.204 65.002 41.8981 66.3133 41.8981 67.93V77.585C41.8981 79.2039 43.204 80.5131 44.8184 80.5131Z" fill="#CBDEF7"/>
<path d="M48.4177 59.0509H38.7052C37.7066 59.0509 36.897 59.8627 36.897 60.8639V63.1879C36.897 64.1892 37.7066 65.0009 38.7052 65.0009H48.4177C49.4163 65.0009 50.2259 64.1892 50.2259 63.1879V60.8639C50.2261 59.8627 49.4165 59.0509 48.4177 59.0509Z" fill="#F2828C"/>
<path d="M43.0526 65.0024H38.706C37.7063 65.0024 36.897 64.1908 36.897 63.1885V60.8658C36.897 59.8634 37.7063 59.0519 38.706 59.0519H43.0526C42.0551 59.0519 41.2457 59.8634 41.2457 60.8658V63.1885C41.2457 64.1908 42.0551 65.0024 43.0526 65.0024Z" fill="#F6798D"/>
<path d="M60.636 86.4625H53.146C51.5336 86.4625 50.2266 87.773 50.2266 89.3897V99.0465C50.2266 100.663 51.5336 101.974 53.146 101.974H60.636C62.2484 101.974 63.5554 100.663 63.5554 99.0465V89.3897C63.5554 87.7733 62.2484 86.4625 60.636 86.4625Z" fill="#E4F0FF"/>
<path d="M58.1475 101.975H53.1447C51.5325 101.975 50.2266 100.665 50.2266 99.0467V89.3917C50.2266 87.7752 51.5325 86.4636 53.1447 86.4636H58.1475C56.5331 86.4636 55.2272 87.775 55.2272 89.3917V99.0467C55.2272 100.665 56.5331 101.975 58.1475 101.975Z" fill="#CBDEF7"/>
<path d="M61.7477 80.5125H52.0352C51.0366 80.5125 50.2271 81.3242 50.2271 82.3254V84.6495C50.2271 85.6507 51.0366 86.4625 52.0352 86.4625H61.7477C62.7463 86.4625 63.5559 85.6507 63.5559 84.6495V82.3254C63.5559 81.324 62.7463 80.5125 61.7477 80.5125Z" fill="#F2828C"/>
<path d="M56.3827 86.4639H52.0361C51.0364 86.4639 50.2271 85.6524 50.2271 84.65V82.3273C50.2271 81.325 51.0364 80.5134 52.0361 80.5134H56.3827C55.3852 80.5134 54.5758 81.325 54.5758 82.3273V84.65C54.5758 85.6524 55.3852 86.4639 56.3827 86.4639Z" fill="#F6798D"/>
<path d="M60.636 65.0011H53.146C51.5336 65.0011 50.2266 66.3116 50.2266 67.9283V77.585C50.2266 79.2017 51.5336 80.5122 53.146 80.5122H60.636C62.2484 80.5122 63.5554 79.2017 63.5554 77.585V67.9283C63.5554 66.3116 62.2484 65.0011 60.636 65.0011Z" fill="#E4F0FF"/>
<path d="M58.1475 80.5131H53.1447C51.5325 80.5131 50.2266 79.2037 50.2266 77.585V67.93C50.2266 66.3136 51.5325 65.002 53.1447 65.002H58.1475C56.5331 65.002 55.2272 66.3133 55.2272 67.93V77.585C55.2272 79.2039 56.5331 80.5131 58.1475 80.5131Z" fill="#CBDEF7"/>
<path d="M61.7477 59.0509H52.0352C51.0366 59.0509 50.2271 59.8627 50.2271 60.8639V63.1879C50.2271 64.1892 51.0366 65.0009 52.0352 65.0009H61.7477C62.7463 65.0009 63.5559 64.1892 63.5559 63.1879V60.8639C63.5559 59.8627 62.7463 59.0509 61.7477 59.0509Z" fill="#F2828C"/>
<path d="M56.3827 65.0024H52.0361C51.0364 65.0024 50.2271 64.1908 50.2271 63.1885V60.8658C50.2271 59.8634 51.0364 59.0519 52.0361 59.0519H56.3827C55.3852 59.0519 54.5758 59.8634 54.5758 60.8658V63.1885C54.5758 64.1908 55.3852 65.0024 56.3827 65.0024Z" fill="#F6798D"/>
<path d="M104.784 65.0011H97.2944C95.682 65.0011 94.375 66.3116 94.375 67.9283V77.585C94.375 79.2017 95.682 80.5122 97.2944 80.5122H104.784C106.397 80.5122 107.704 79.2017 107.704 77.585V67.9283C107.704 66.3116 106.397 65.0011 104.784 65.0011Z" fill="#E4F0FF"/>
<path d="M102.296 80.5131H97.2931C95.6809 80.5131 94.375 79.2037 94.375 77.585V67.93C94.375 66.3136 95.6809 65.002 97.2931 65.002H102.296C100.682 65.002 99.3756 66.3133 99.3756 67.93V77.585C99.3756 79.2039 100.682 80.5131 102.296 80.5131Z" fill="#CBDEF7"/>
<path d="M105.896 59.0509H96.1837C95.1851 59.0509 94.3755 59.8627 94.3755 60.8639V63.1879C94.3755 64.1892 95.1851 65.0009 96.1837 65.0009H105.896C106.895 65.0009 107.704 64.1892 107.704 63.1879V60.8639C107.705 59.8627 106.895 59.0509 105.896 59.0509Z" fill="#F2828C"/>
<path d="M100.531 65.0024H96.1846C95.1849 65.0024 94.3755 64.1908 94.3755 63.1885V60.8658C94.3755 59.8634 95.1849 59.0519 96.1846 59.0519H100.531C99.5336 59.0519 98.7242 59.8634 98.7242 60.8658V63.1885C98.7242 64.1908 99.5336 65.0024 100.531 65.0024Z" fill="#F6798D"/>
<path d="M83.9485 86.4624H76.4585C74.8461 86.4624 73.5391 87.7729 73.5391 89.3896V99.0463C73.5391 100.663 74.8461 101.974 76.4585 101.974H83.9485C85.5609 101.974 86.8679 100.663 86.8679 99.0463V89.3896C86.8681 87.7731 85.5609 86.4624 83.9485 86.4624Z" fill="#F2828C"/>
<path d="M81.46 101.975H76.4572C74.845 101.975 73.5391 100.665 73.5391 99.0466V89.3916C73.5391 87.7751 74.845 86.4635 76.4572 86.4635H81.46C79.8456 86.4635 78.5397 87.7749 78.5397 89.3916V99.0466C78.5397 100.665 79.8456 101.975 81.46 101.975Z" fill="#F6798D"/>
<path d="M85.0602 80.5125H75.3477C74.3491 80.5125 73.5396 81.3242 73.5396 82.3254V84.6495C73.5396 85.6507 74.3491 86.4625 75.3477 86.4625H85.0602C86.0588 86.4625 86.8684 85.6507 86.8684 84.6495V82.3254C86.8684 81.324 86.0588 80.5125 85.0602 80.5125Z" fill="#E4F2FC"/>
<path d="M79.6942 86.4639H75.3476C74.3479 86.4639 73.5386 85.6524 73.5386 84.65V82.3273C73.5386 81.325 74.3479 80.5134 75.3476 80.5134H79.6942C78.6967 80.5134 77.8873 81.325 77.8873 82.3273V84.65C77.8873 85.6524 78.6967 86.4639 79.6942 86.4639Z" fill="#365E7D"/>
<path d="M83.9485 65.0011H76.4585C74.8461 65.0011 73.5391 66.3116 73.5391 67.9283V77.585C73.5391 79.2017 74.8461 80.5122 76.4585 80.5122H83.9485C85.5609 80.5122 86.8679 79.2017 86.8679 77.585V67.9283C86.8681 66.3116 85.5609 65.0011 83.9485 65.0011Z" fill="#F2828C"/>
<path d="M81.46 80.5131H76.4572C74.845 80.5131 73.5391 79.2037 73.5391 77.585V67.93C73.5391 66.3136 74.845 65.002 76.4572 65.002H81.46C79.8456 65.002 78.5397 66.3133 78.5397 67.93V77.585C78.5397 79.2039 79.8456 80.5131 81.46 80.5131Z" fill="#F6798D"/>
<path d="M85.0602 59.0509H75.3477C74.3491 59.0509 73.5396 59.8627 73.5396 60.8639V63.1879C73.5396 64.1892 74.3491 65.0009 75.3477 65.0009H85.0602C86.0588 65.0009 86.8684 64.1892 86.8684 63.1879V60.8639C86.8684 59.8627 86.0588 59.0509 85.0602 59.0509Z" fill="#E4F2FC"/>
<path d="M79.6942 65.0024H75.3476C74.3479 65.0024 73.5386 64.1908 73.5386 63.1885V60.8658C73.5386 59.8634 74.3479 59.0519 75.3476 59.0519H79.6942C78.6967 59.0519 77.8873 59.8634 77.8873 60.8658V63.1885C77.8873 64.1908 78.6967 65.0024 79.6942 65.0024Z" fill="#365E7D"/>
<path d="M97.2766 86.4625H89.7866C88.1742 86.4625 86.8672 87.773 86.8672 89.3897V99.0465C86.8672 100.663 88.1742 101.974 89.7866 101.974H97.2766C98.889 101.974 100.196 100.663 100.196 99.0465V89.3897C100.196 87.7733 98.889 86.4625 97.2766 86.4625Z" fill="#F2828C"/>
<path d="M94.7881 101.975H89.7853C88.1731 101.975 86.8672 100.665 86.8672 99.0467V89.3917C86.8672 87.7752 88.1731 86.4636 89.7853 86.4636H94.7881C93.1737 86.4636 91.8678 87.775 91.8678 89.3917V99.0467C91.8678 100.665 93.1737 101.975 94.7881 101.975Z" fill="#F6798D"/>
<path d="M98.3884 80.5125H88.6759C87.6773 80.5125 86.8677 81.3242 86.8677 82.3254V84.6495C86.8677 85.6507 87.6773 86.4625 88.6759 86.4625H98.3884C99.387 86.4625 100.197 85.6507 100.197 84.6495V82.3254C100.197 81.324 99.3872 80.5125 98.3884 80.5125Z" fill="#E4F2FC"/>
<path d="M93.0233 86.4639H88.6767C87.677 86.4639 86.8677 85.6524 86.8677 84.65V82.3273C86.8677 81.325 87.677 80.5134 88.6767 80.5134H93.0233C92.0258 80.5134 91.2164 81.325 91.2164 82.3273V84.65C91.2164 85.6524 92.0258 86.4639 93.0233 86.4639Z" fill="#365E7D"/>
<path d="M110.606 86.4625H103.116C101.503 86.4625 100.196 87.773 100.196 89.3897V99.0465C100.196 100.663 101.503 101.974 103.116 101.974H110.606C112.218 101.974 113.525 100.663 113.525 99.0465V89.3897C113.525 87.7733 112.218 86.4625 110.606 86.4625Z" fill="#F2828C"/>
<path d="M108.117 101.975H103.114C101.502 101.975 100.196 100.665 100.196 99.0467V89.3917C100.196 87.7752 101.502 86.4636 103.114 86.4636H108.117C106.503 86.4636 105.197 87.775 105.197 89.3917V99.0467C105.197 100.665 106.503 101.975 108.117 101.975Z" fill="#F6798D"/>
<path d="M111.718 80.5125H102.006C101.007 80.5125 100.198 81.3242 100.198 82.3254V84.6495C100.198 85.6507 101.007 86.4625 102.006 86.4625H111.718C112.717 86.4625 113.527 85.6507 113.527 84.6495V82.3254C113.527 81.324 112.717 80.5125 111.718 80.5125Z" fill="#E4F2FC"/>
<path d="M106.352 86.4639H102.006C101.006 86.4639 100.197 85.6524 100.197 84.65V82.3273C100.197 81.325 101.006 80.5134 102.006 80.5134H106.352C105.355 80.5134 104.546 81.325 104.546 82.3273V84.65C104.546 85.6524 105.355 86.4639 106.352 86.4639Z" fill="#365E7D"/>
<path d="M126.825 100.33V55.1865C130.233 55.167 133 52.3817 133 48.9597C133 45.6609 130.429 42.9546 127.19 42.7462C127.944 33.8554 128.002 24.8573 127.363 15.972C127.308 15.2065 127.121 14.4805 126.825 13.8153V11.1835C126.825 5.28524 122.039 0.486694 116.156 0.486694H37.8438C31.9611 0.486694 27.1753 5.28524 27.1753 11.1835V13.819C26.88 14.4834 26.6932 15.2082 26.6381 15.9726C25.9984 24.8534 26.0571 33.8512 26.8111 42.7462C23.5723 42.9539 21 45.6605 21 48.9597C21 52.3817 23.767 55.167 27.1753 55.1865V100.33C23.767 100.349 21 103.135 21 106.558C21 108.221 21.6462 109.784 22.8191 110.96C23.9923 112.137 25.5517 112.785 27.2103 112.785H36.6931C37.5992 112.785 38.3337 112.048 38.3337 111.14C38.3337 110.231 37.5992 109.495 36.6931 109.495H27.2103C26.4283 109.495 25.6928 109.189 25.1394 108.634C24.586 108.079 24.2812 107.342 24.2812 106.558C24.2812 104.937 25.5953 103.619 27.2103 103.619H126.79C127.572 103.619 128.307 103.924 128.859 104.478C129.414 105.035 129.719 105.774 129.719 106.558C129.719 108.177 128.405 109.495 126.79 109.495H43.2556C42.3496 109.495 41.615 110.231 41.615 111.14C41.615 112.048 42.3496 112.785 43.2556 112.785H126.79C130.214 112.785 133 109.991 133 106.558C133 104.897 132.354 103.333 131.181 102.153C130.016 100.985 128.47 100.339 126.825 100.33ZM103.11 100.329C102.407 100.325 101.837 99.7517 101.837 99.0467V89.39C101.837 88.6829 102.411 88.1078 103.116 88.1078H110.606C111.311 88.1078 111.885 88.6831 111.885 89.39V99.0467C111.885 99.7517 111.314 100.325 110.612 100.329H103.11ZM89.7805 100.329C89.0783 100.325 88.508 99.7517 88.508 99.0467V89.39C88.508 88.6829 89.0818 88.1078 89.7868 88.1078H97.2768C97.9821 88.1078 98.5558 88.6831 98.5558 89.39V99.0467C98.5558 99.7517 97.9853 100.325 97.2832 100.329H89.7805ZM76.4516 100.329C75.7494 100.325 75.1791 99.7517 75.1791 99.0467V89.39C75.1791 88.6829 75.7529 88.1078 76.4579 88.1078H83.9479C84.6532 88.1078 85.227 88.6831 85.227 89.39V99.0467C85.227 99.7517 84.6565 100.325 83.9543 100.329H76.4516ZM75.3465 63.3562C75.2542 63.3562 75.1789 63.2807 75.1789 63.1882V60.8639C75.1789 60.7714 75.2542 60.6959 75.3465 60.6959H85.059C85.1513 60.6959 85.2265 60.7714 85.2265 60.8639V63.1882C85.2265 63.2807 85.1513 63.3562 85.059 63.3562H75.3465ZM96.1831 63.3562C96.0908 63.3562 96.0155 63.2807 96.0155 63.1882V60.8639C96.0155 60.7714 96.0908 60.6959 96.1831 60.6959H105.896C105.988 60.6959 106.063 60.7714 106.063 60.8639V63.1882C106.063 63.2807 105.988 63.3562 105.896 63.3562H96.1831ZM111.885 84.6496C111.885 84.7421 111.809 84.8176 111.717 84.8176H102.005C101.912 84.8176 101.837 84.7421 101.837 84.6496V82.3253C101.837 82.2328 101.912 82.1573 102.005 82.1573H111.717C111.809 82.1573 111.885 82.2328 111.885 82.3253V84.6496ZM96.0155 77.5851V67.9284C96.0155 67.2213 96.5893 66.6462 97.2945 66.6462H104.785C105.49 66.6462 106.063 67.2215 106.063 67.9284V77.5851C106.063 78.2923 105.49 78.8673 104.785 78.8673H102.005H98.3883H97.2945C96.5893 78.8673 96.0155 78.2923 96.0155 77.5851ZM98.3881 82.1573C98.4804 82.1573 98.5556 82.2328 98.5556 82.3253V84.6496C98.5556 84.7421 98.4804 84.8176 98.3881 84.8176H88.6756C88.5833 84.8176 88.508 84.7421 88.508 84.6496V82.3253C88.508 82.2328 88.5833 82.1573 88.6756 82.1573H98.3881ZM75.3465 84.8176C75.2542 84.8176 75.1789 84.7421 75.1789 84.6496V82.3253C75.1789 82.2328 75.2542 82.1573 75.3465 82.1573H85.059C85.1513 82.1573 85.2265 82.2328 85.2265 82.3253V84.6496C85.2265 84.7421 85.1513 84.8176 85.059 84.8176H75.3465ZM75.1789 67.9284C75.1789 67.2213 75.7527 66.6462 76.4577 66.6462H83.9477C84.653 66.6462 85.2268 67.2215 85.2268 67.9284V77.5851C85.2268 78.2923 84.653 78.8673 83.9477 78.8673H76.4577C75.7525 78.8673 75.1789 78.292 75.1789 77.5851V67.9284ZM114.387 86.8359C114.873 86.2395 115.166 85.4784 115.166 84.6496V82.3253C115.166 80.4187 113.619 78.8673 111.717 78.8673H109.159C109.278 78.46 109.345 78.0306 109.345 77.5851V67.9284C109.345 66.9833 109.057 66.1042 108.565 65.3743C109.052 64.7779 109.345 64.0168 109.345 63.188V60.8637C109.345 58.9571 107.797 57.4057 105.896 57.4057H96.1833C94.2817 57.4057 92.7345 58.9571 92.7345 60.8637V63.188C92.7345 64.0168 93.0274 64.7779 93.5139 65.3743C93.0219 66.104 92.7345 66.9831 92.7345 67.9284V77.5851C92.7345 78.0306 92.8014 78.46 92.9204 78.8673H88.676C88.555 78.8673 88.4356 78.8739 88.3177 78.8862C88.4402 78.4734 88.5084 78.0372 88.5084 77.5851V67.9284C88.5084 66.9833 88.2208 66.1042 87.729 65.3743C88.2158 64.7779 88.5084 64.0168 88.5084 63.188V60.8637C88.5084 58.9571 86.9612 57.4057 85.0596 57.4057H75.3471C73.4455 57.4057 71.8983 58.9571 71.8983 60.8637V63.188C71.8983 64.0168 72.1912 64.7779 72.6777 65.3743C72.1857 66.104 71.8983 66.9831 71.8983 67.9284V77.5851C71.8983 78.5302 72.186 79.4093 72.6777 80.1393C72.191 80.7356 71.8983 81.4967 71.8983 82.3255V84.6498C71.8983 85.4787 72.1912 86.2397 72.6777 86.8361C72.1857 87.5658 71.8983 88.4449 71.8983 89.3902V99.047C71.8983 99.4922 71.9652 99.9217 72.084 100.329H65.0099C65.1289 99.9217 65.1956 99.4922 65.1956 99.047V89.3902C65.1956 88.4449 64.9079 87.566 64.4162 86.8361C64.9029 86.2397 65.1956 85.4787 65.1956 84.6498V82.3255C65.1956 81.4967 64.9027 80.7356 64.4162 80.1393C64.9082 79.4095 65.1956 78.5304 65.1956 77.5851V67.9284C65.1956 66.9833 64.9079 66.1042 64.4162 65.3743C64.9029 64.7779 65.1956 64.0168 65.1956 63.188V60.8637C65.1956 58.9571 63.6484 57.4057 61.7468 57.4057H52.0343C51.3708 57.4057 50.7526 57.5979 50.2261 57.9247C49.6996 57.5979 49.0814 57.4057 48.4179 57.4057H38.7054C36.8038 57.4057 35.2566 58.9571 35.2566 60.8637V63.188C35.2566 64.0168 35.5495 64.7779 36.036 65.3743C35.544 66.104 35.2566 66.9831 35.2566 67.9284V77.5851C35.2566 78.5302 35.5443 79.4093 36.036 80.1393C35.5493 80.7356 35.2566 81.4967 35.2566 82.3255V84.6498C35.2566 85.4787 35.5495 86.2397 36.036 86.8361C35.544 87.5658 35.2566 88.4449 35.2566 89.3902V99.047C35.2566 99.4922 35.3235 99.9217 35.4423 100.329H30.4566V55.1874H123.543V100.329H114.98C115.099 99.9214 115.166 99.492 115.166 99.0467V89.39C115.166 88.4447 114.879 87.5656 114.387 86.8359ZM53.1387 100.329C52.4366 100.325 51.8663 99.7517 51.8663 99.0467V89.39C51.8663 88.6829 52.4401 88.1078 53.1451 88.1078H60.6351C61.3403 88.1078 61.9139 88.6831 61.9139 89.39V99.0467C61.9139 99.7517 61.3436 100.325 60.6414 100.329H53.1387ZM39.8097 100.329C39.1075 100.325 38.5372 99.7517 38.5372 99.0467V89.39C38.5372 88.6829 39.111 88.1078 39.816 88.1078H47.306C48.0112 88.1078 48.5848 88.6831 48.5848 89.39V99.0467C48.5848 99.7517 48.0145 100.325 47.3123 100.329H39.8097ZM38.7048 63.3562C38.6124 63.3562 38.5372 63.2807 38.5372 63.1882V60.8639C38.5372 60.7714 38.6124 60.6959 38.7048 60.6959H48.4172C48.5096 60.6959 48.5848 60.7714 48.5848 60.8639V63.1882C48.5848 63.2807 48.5096 63.3562 48.4172 63.3562H38.7048ZM38.7048 84.8176C38.6124 84.8176 38.5372 84.7421 38.5372 84.6496V82.3253C38.5372 82.2328 38.6124 82.1573 38.7048 82.1573H48.4172C48.5096 82.1573 48.5848 82.2328 48.5848 82.3253V84.6496C48.5848 84.7421 48.5096 84.8176 48.4172 84.8176H38.7048ZM38.5372 67.9284C38.5372 67.2213 39.111 66.6462 39.816 66.6462H47.306C48.0112 66.6462 48.5848 67.2215 48.5848 67.9284V77.5851C48.5848 78.2923 48.011 78.8673 47.306 78.8673H39.816C39.1108 78.8673 38.5372 78.292 38.5372 77.5851V67.9284ZM61.9139 67.9284V77.5851C61.9139 78.2923 61.3401 78.8673 60.6351 78.8673H53.1451C52.4398 78.8673 51.8663 78.292 51.8663 77.5851V67.9284C51.8663 67.2213 52.4401 66.6462 53.1451 66.6462H60.6351C61.3403 66.6462 61.9139 67.2213 61.9139 67.9284ZM52.0338 84.8176C51.9415 84.8176 51.8663 84.7421 51.8663 84.6496V82.3253C51.8663 82.2328 51.9415 82.1573 52.0338 82.1573H61.7463C61.8387 82.1573 61.9139 82.2328 61.9139 82.3253V84.6496C61.9139 84.7421 61.8387 84.8176 61.7463 84.8176H52.0338ZM61.9139 63.1882C61.9139 63.2807 61.8387 63.3562 61.7463 63.3562H52.0338C51.9415 63.3562 51.8663 63.2807 51.8663 63.1882V60.8639C51.8663 60.7714 51.9415 60.6959 52.0338 60.6959H61.7463C61.8387 60.6959 61.9139 60.7714 61.9139 60.8639V63.1882ZM37.8438 3.77667H116.156C120.019 3.77667 123.196 6.76441 123.515 10.5553C122.914 10.2992 122.264 10.1318 121.58 10.0693C114.835 9.45802 107.997 9.45781 101.253 10.0693C98.1297 10.354 95.6972 12.8357 95.4691 15.9711C95.3936 17.0153 95.3297 18.0365 95.2787 19.0062C95.2313 19.9134 95.926 20.6876 96.831 20.7352C97.7338 20.7804 98.5079 20.0862 98.5554 19.1788C98.6051 18.2306 98.6678 17.2314 98.7416 16.2095C98.8523 14.6884 100.033 13.4841 101.549 13.3459C108.096 12.7522 114.736 12.7522 121.284 13.3459C122.801 13.4843 123.981 14.688 124.09 16.2082C124.723 25.0108 124.657 33.9258 123.897 42.7318H98.9393C98.4484 37.0669 98.2411 31.341 98.3301 25.6875C98.3443 24.779 97.6216 24.0311 96.7157 24.0166C95.8158 24.0103 95.0637 24.727 95.0493 25.6353C94.9598 31.3059 95.1622 37.0478 95.6452 42.7315H92.7747C93.5277 33.8409 93.5858 24.8481 92.9467 15.9722C92.7207 12.8362 90.2891 10.354 87.1642 10.0702C80.4202 9.45737 73.5809 9.45759 66.8367 10.0702C63.7118 10.354 61.28 12.8362 61.054 15.9722C60.4148 24.8481 60.473 33.8409 61.2259 42.7315H58.3586C59.1115 33.8411 59.1697 24.8483 58.5305 15.9722C58.3045 12.8362 55.8727 10.354 52.7481 10.0702C46.0038 9.45737 39.1648 9.45759 32.4205 10.0702C31.7369 10.1323 31.0863 10.2996 30.4848 10.556C30.8037 6.76507 33.9813 3.77667 37.8438 3.77667ZM64.5203 42.7318C63.7593 33.9216 63.6932 25.0069 64.3267 16.2093C64.4363 14.6884 65.6165 13.4847 67.1326 13.347C73.6802 12.752 80.3202 12.752 86.868 13.347C88.3844 13.4847 89.5643 14.6887 89.6739 16.2093C90.3074 25.0067 90.2414 33.9216 89.4803 42.7318H64.5203ZM30.1044 42.7318C29.3433 33.9216 29.2773 25.0069 29.9108 16.2093C30.0204 14.6884 31.2005 13.4847 32.7167 13.347C39.2643 12.752 45.904 12.752 52.4519 13.347C53.9683 13.4847 55.1482 14.6887 55.2578 16.2093C55.8913 25.0069 55.8252 33.9216 55.0642 42.7318H30.1044ZM24.2812 48.9597C24.2812 47.3397 25.5957 46.0217 27.2114 46.0217H126.789C128.404 46.0217 129.719 47.3397 129.719 48.9597C129.719 50.5797 128.404 51.8974 126.789 51.8974H27.2114C25.5957 51.8974 24.2812 50.5797 24.2812 48.9597Z" fill="#3B5974"/>
<path d="M42.5832 22.0105C36.9869 22.0105 32.4341 25.5981 32.4341 30.008C32.4341 34.4179 36.9869 38.0053 42.5832 38.0053C48.1795 38.0053 52.7323 34.4177 52.7323 30.008C52.7323 25.5983 48.1795 22.0105 42.5832 22.0105ZM42.5832 34.7153C38.8605 34.7153 35.7153 32.5595 35.7153 30.008C35.7153 27.4563 38.8603 25.3005 42.5832 25.3005C46.3061 25.3005 49.4511 27.4563 49.4511 30.008C49.4511 32.5595 46.3059 34.7153 42.5832 34.7153Z" fill="#3B5974"/>
<path d="M77.0007 22.0105C71.4044 22.0105 66.8516 25.5981 66.8516 30.008C66.8516 34.4179 71.4044 38.0053 77.0007 38.0053C82.597 38.0053 87.1498 34.4177 87.1498 30.008C87.1498 25.5983 82.597 22.0105 77.0007 22.0105ZM77.0007 34.7153C73.2778 34.7153 70.1328 32.5595 70.1328 30.008C70.1328 27.4563 73.2778 25.3005 77.0007 25.3005C80.7234 25.3005 83.8686 27.4563 83.8686 30.008C83.8686 32.5595 80.7236 34.7153 77.0007 34.7153Z" fill="#3B5974"/>
<path d="M111.417 38.0053C117.013 38.0053 121.566 34.4177 121.566 30.008C121.566 25.5983 117.013 22.0105 111.417 22.0105C105.82 22.0105 101.268 25.5981 101.268 30.008C101.268 34.4179 105.82 38.0053 111.417 38.0053ZM111.417 25.3005C115.139 25.3005 118.285 27.4563 118.285 30.008C118.285 32.5597 115.14 34.7153 111.417 34.7153C107.694 34.7153 104.549 32.5595 104.549 30.008C104.549 27.4561 107.694 25.3005 111.417 25.3005Z" fill="#3B5974"/>
</svg>
