<svg width="155" height="113" viewBox="0 0 155 113" fill="none" xmlns="http://www.w3.org/2000/svg">
<path d="M100.366 40.6467C76.491 40.6467 52.6162 38.9961 28.7413 38.9961C24.6058 62.8105 24.6058 87.165 28.7413 110.98H100.366C104.501 87.165 104.501 64.4614 100.366 40.6467Z" fill="#F5C28B"/>
<path d="M40.3159 110.981H28.742C24.6101 87.1648 24.6101 62.8125 28.742 38.9961H40.3159C36.1784 62.8125 36.1784 87.1648 40.3159 110.981Z" fill="#E1AC76"/>
<path d="M76.1246 69.2662L64.5544 61.9355L52.9844 69.2662V38.9961H76.1246V69.2662Z" fill="#E77F8F"/>
<path d="M111.188 1.83922C100.159 1.4359 89.1307 1.82471 78.1029 3.00409C75.0354 3.33132 72.6335 5.80026 72.3884 8.88979C70.7989 28.9206 70.7989 48.9515 72.3884 68.9838C72.6335 72.0733 75.0354 74.5423 78.1029 74.8695C94.5519 76.629 111.002 76.629 127.453 74.8695C130.519 74.5423 132.922 72.0733 133.168 68.9838C134.354 54.0224 134.655 39.0625 134.069 24.1026" fill="#ECECEC"/>
<path d="M134.069 24.1026C128.648 23.9067 123.226 23.5179 117.804 22.9378C114.738 22.6105 112.334 20.1416 112.089 17.0521C111.686 11.9811 111.386 6.91019 111.188 1.83948C116.609 2.03542 133.87 19.0317 134.069 24.1026Z" fill="#DADADA"/>
<path d="M53.9377 102.415C48.3593 102.885 42.7806 102.885 37.2022 102.415C35.6755 102.286 34.4679 101.072 34.3396 99.5377C33.8718 93.9311 33.8718 88.3247 34.3396 82.7183C34.4676 81.184 35.6753 79.9703 37.2022 79.8414C42.7806 79.3712 48.3593 79.3712 53.9377 79.8414C55.4644 79.97 56.672 81.1837 56.8003 82.7183C57.2681 88.3247 57.2681 93.9313 56.8003 99.5377C56.6722 101.072 55.4646 102.286 53.9377 102.415Z" fill="#ECECEC"/>
<path d="M132.278 57.1591C132.234 58.0689 132.932 58.8423 133.838 58.8865C133.865 58.8879 133.892 58.8885 133.919 58.8885C134.789 58.8885 135.514 58.2017 135.556 57.3192C136.091 46.261 136.143 35.0651 135.71 24.0425C135.71 24.0409 135.71 24.0394 135.71 24.0377C135.547 19.8706 128.033 12.2095 125.733 9.9607C123.431 7.70859 115.582 0.349477 111.25 0.190921C111.25 0.190921 111.249 0.190701 111.249 0.190701C100.184 -0.213276 88.9742 0.181905 77.9311 1.36459C74.0802 1.77604 71.0625 4.88558 70.7555 8.75822C70.0021 18.2445 69.6102 27.7942 69.5706 37.3476L28.7423 37.3482C27.9447 37.3482 27.2627 37.9244 27.1257 38.7141C23.6293 58.8518 23.0632 79.3598 25.4426 99.6682C25.541 100.507 26.2498 101.125 27.0703 101.125C27.1342 101.125 27.1992 101.121 27.2642 101.113C28.1644 101.007 28.8082 100.187 28.7023 99.2825C26.4137 79.7502 26.8931 60.031 30.1263 40.6469H51.3445V69.2661C51.3445 69.8667 51.6694 70.42 52.1928 70.7103C52.4401 70.8473 52.713 70.9155 52.9856 70.9155C53.2902 70.9155 53.5941 70.8304 53.8609 70.6612L64.5554 63.8853L70.6535 67.7481C70.6881 68.2037 70.7192 68.6601 70.7553 69.1155C71.0623 72.9886 74.0802 76.0981 77.9306 76.5096C85.8532 77.3569 93.8297 77.7925 101.808 77.8257C101.663 88.3711 100.716 98.9535 98.9845 109.33H30.1269C29.9232 108.107 29.734 106.909 29.562 105.754C29.4281 104.853 28.5926 104.232 27.6964 104.367C26.7999 104.501 26.1819 105.341 26.3159 106.242C26.5552 107.851 26.8274 109.539 27.1253 111.261C27.2618 112.051 27.9441 112.628 28.7421 112.628H100.369C101.166 112.628 101.848 112.052 101.986 111.262C103.897 100.261 104.939 89.0174 105.09 77.8165C112.622 77.7424 120.15 77.3092 127.629 76.5093C131.48 76.0977 134.498 72.9881 134.805 69.1144C134.941 67.3808 135.068 65.6367 135.181 63.9302C135.241 63.0213 134.556 62.2356 133.652 62.1751C132.754 62.117 131.966 62.8025 131.906 63.7114C131.794 65.404 131.669 67.1343 131.533 68.8531C131.352 71.1448 129.564 72.9853 127.282 73.2289C111.024 74.968 94.5367 74.9678 78.2781 73.2289C75.9968 72.9853 74.209 71.1448 74.0272 68.8529C72.4509 49.0009 72.4509 28.8702 74.0272 9.01992C74.209 6.72822 75.9965 4.888 78.2783 4.64434C88.6648 3.53203 99.2003 3.12784 109.618 3.43857C109.816 8.02064 110.093 12.6355 110.455 17.1826C110.762 21.0563 113.781 24.1663 117.632 24.5773C122.565 25.1049 127.552 25.4767 132.482 25.6881C132.848 36.1249 132.783 46.7032 132.278 57.1591ZM65.4304 60.5403C64.8959 60.2014 64.2149 60.2014 63.6801 60.5403L54.6267 66.2762V40.6467H69.5711C69.6054 48.333 69.8706 56.0165 70.3669 63.6674L65.4304 60.5403ZM117.979 21.2976C115.697 21.0541 113.909 19.2132 113.727 16.9207C113.389 12.6759 113.121 8.3703 112.927 4.08973C113.689 4.4627 114.717 5.06415 116.075 6.03264C118.304 7.62348 120.922 9.85822 123.444 12.325C127.696 16.4826 130.536 20.1186 131.755 22.3558C127.177 22.1418 122.554 21.7869 117.979 21.2976Z" fill="#3B5974"/>
<path d="M88.8061 21.6181C87.9995 21.2036 87.0107 21.524 86.5976 22.3353L83.0817 29.2418L81.9149 27.1898C81.4648 26.399 80.4622 26.1241 79.6758 26.576C78.889 27.028 78.6154 28.0354 79.0651 28.8264L81.7364 33.5246C82.0289 34.0392 82.5731 34.3556 83.1611 34.3556C83.1738 34.3556 83.1865 34.3556 83.1994 34.3552C83.8016 34.3411 84.3479 33.9965 84.6223 33.4575L89.5196 23.8375C89.9325 23.0267 89.613 22.0331 88.8061 21.6181Z" fill="#3B5974"/>
<path d="M93.4028 28.0916H109.092C109.999 28.0916 110.734 27.3532 110.734 26.4423C110.734 25.5314 109.999 24.793 109.092 24.793H93.4028C92.4963 24.793 91.7617 25.5314 91.7617 26.4423C91.7617 27.3532 92.4965 28.0916 93.4028 28.0916Z" fill="#3B5974"/>
<path d="M125.318 32.259C125.318 31.3481 124.583 30.6096 123.677 30.6096H93.4028C92.4963 30.6096 91.7617 31.3481 91.7617 32.259C91.7617 33.1698 92.4963 33.9083 93.4028 33.9083H123.677C124.583 33.9083 125.318 33.1698 125.318 32.259Z" fill="#3B5974"/>
<path d="M88.8061 37.7259C87.9995 37.3114 87.0107 37.6318 86.5976 38.4431L83.0817 45.3496L81.9149 43.2976C81.4648 42.5068 80.4622 42.2319 79.6758 42.6838C78.889 43.1358 78.6154 44.1432 79.0651 44.9342L81.7364 49.6324C82.0289 50.147 82.5731 50.4634 83.1611 50.4634C83.1738 50.4634 83.1865 50.4634 83.1994 50.463C83.8016 50.4491 84.3479 50.1043 84.6223 49.5653L89.5196 39.9453C89.9325 39.1345 89.613 38.1407 88.8061 37.7259Z" fill="#3B5974"/>
<path d="M93.4028 44.1993H109.092C109.999 44.1993 110.734 43.4608 110.734 42.55C110.734 41.6391 109.999 40.9006 109.092 40.9006H93.4028C92.4963 40.9006 91.7617 41.6391 91.7617 42.55C91.7617 43.4608 92.4965 44.1993 93.4028 44.1993Z" fill="#3B5974"/>
<path d="M124.812 48.366C124.812 47.4551 124.077 46.7167 123.171 46.7167H93.4028C92.4963 46.7167 91.7617 47.4551 91.7617 48.366C91.7617 49.2769 92.4963 50.0153 93.4028 50.0153H123.171C124.077 50.0153 124.812 49.2769 124.812 48.366Z" fill="#3B5974"/>
<path d="M88.8061 53.8335C87.9995 53.4187 87.0107 53.7393 86.5976 54.5506L83.0817 61.4571L81.9149 59.4051C81.4648 58.6143 80.4622 58.3394 79.6758 58.7913C78.889 59.2433 78.6154 60.2507 79.0651 61.0417L81.7364 65.7399C82.0289 66.2545 82.5731 66.5709 83.1611 66.5709C83.1738 66.5709 83.1865 66.5709 83.1994 66.5705C83.8016 66.5564 84.3479 66.2118 84.6223 65.6728L89.5196 56.0528C89.9325 55.2422 89.613 54.2484 88.8061 53.8335Z" fill="#3B5974"/>
<path d="M93.4028 60.3072H109.092C109.999 60.3072 110.734 59.5688 110.734 58.6579C110.734 57.747 109.999 57.0085 109.092 57.0085H93.4028C92.4963 57.0085 91.7617 57.747 91.7617 58.6579C91.7617 59.5688 92.4965 60.3072 93.4028 60.3072Z" fill="#3B5974"/>
<path d="M93.4028 66.1246H111.366C112.273 66.1246 113.007 65.3861 113.007 64.4753C113.007 63.5644 112.273 62.8259 111.366 62.8259H93.4028C92.4963 62.8259 91.7617 63.5644 91.7617 64.4753C91.7617 65.3861 92.4965 66.1246 93.4028 66.1246Z" fill="#3B5974"/>
<path d="M37.0668 104.058C39.8884 104.296 42.7299 104.415 45.5717 104.415C48.4132 104.415 51.2549 104.296 54.0765 104.058C56.4078 103.862 58.2417 102.019 58.4373 99.6756C58.9106 94.0039 58.9106 88.2521 58.4373 82.5804C58.2417 80.2375 56.4078 78.3944 54.0765 78.198C48.4331 77.7224 42.71 77.7221 37.0668 78.198C34.7355 78.3944 32.9014 80.2375 32.706 82.5804C32.2328 88.2515 32.2328 94.0033 32.706 99.6756C32.9017 102.019 34.7355 103.862 37.0668 104.058ZM35.9769 82.8562C36.0381 82.1232 36.6117 81.5466 37.341 81.4853C40.0718 81.2552 42.8216 81.1402 45.5717 81.1402C48.3215 81.1402 51.0716 81.2552 53.8024 81.4853C54.5317 81.5468 55.1054 82.1234 55.1665 82.8562C55.6244 88.3449 55.6244 93.9113 55.1665 99.4001C55.1052 100.133 54.5315 100.71 53.8024 100.771C48.3408 101.232 42.8024 101.232 37.341 100.771C36.6117 100.71 36.0379 100.133 35.9769 99.4003C35.5189 93.9107 35.5189 88.3445 35.9769 82.8562Z" fill="#3B5974"/>
<path d="M39.7217 89.5002H51.4232C52.3295 89.5002 53.0643 88.7618 53.0643 87.8509C53.0643 86.94 52.3295 86.2015 51.4232 86.2015H39.7217C38.8153 86.2015 38.0806 86.94 38.0806 87.8509C38.0806 88.7618 38.8153 89.5002 39.7217 89.5002Z" fill="#3B5974"/>
<path d="M39.7217 96.0548H51.4232C52.3295 96.0548 53.0643 95.3163 53.0643 94.4054C53.0643 93.4946 52.3295 92.7561 51.4232 92.7561H39.7217C38.8153 92.7561 38.0806 93.4946 38.0806 94.4054C38.0806 95.3163 38.8153 96.0548 39.7217 96.0548Z" fill="#3B5974"/>
</svg>
