<svg width="155" height="113" viewBox="0 0 155 113" fill="none" xmlns="http://www.w3.org/2000/svg">
<path d="M64.9517 74.747C85.4116 76.7229 105.871 76.7229 126.331 74.747C128.93 74.496 130.982 72.4341 131.231 69.8224C133.197 49.2599 133.197 28.6975 131.231 8.13503C130.982 5.52307 128.93 3.46121 126.331 3.21041C105.871 1.23455 85.4116 1.23455 64.9517 3.21041C62.3528 3.46144 60.3012 5.5233 60.0517 8.13503C58.0856 28.6975 58.0856 49.2599 60.0517 69.8224C60.3014 72.4343 62.353 74.496 64.9517 74.747Z" fill="#C1EECC"/>
<path d="M65.4492 72.2499C65.5431 73.2131 65.8625 74.109 66.354 74.8791C65.8871 74.8387 65.4202 74.7938 64.9533 74.7489C62.3528 74.4974 60.3019 72.4362 60.0517 69.8227C58.0856 49.2603 58.0856 28.6978 60.0517 8.13535C60.3019 5.52406 62.3528 3.46288 64.9533 3.2114C65.4202 3.1665 65.8871 3.12159 66.354 3.08118C65.8603 3.85131 65.5431 4.74494 65.4492 5.70818C63.3291 27.8895 63.3291 50.0708 65.4492 72.2499Z" fill="#78C2A4"/>
<path d="M123.589 38.9779C123.589 39.623 123.568 40.2611 123.523 40.8943C122.586 54.8782 111.464 66.0564 97.5494 66.9981C96.9194 67.0432 96.2844 67.0646 95.6426 67.0646C89.5681 67.0646 83.9466 65.1172 79.3636 61.8088C74.4573 58.2702 70.738 53.1707 68.9254 47.2366C68.1254 44.6253 67.6958 41.8526 67.6958 38.9779C67.6958 23.4665 80.2083 10.8912 95.6424 10.8912C98.5027 10.8912 101.261 11.3228 103.86 12.1268C109.764 13.9484 114.838 17.6862 118.359 22.6173C121.652 27.2233 123.589 32.8729 123.589 38.9779Z" fill="#D3EFFB"/>
<path d="M123.589 38.9779C123.589 39.623 123.568 40.2611 123.523 40.8943L97.5496 66.9981C96.9195 67.0432 96.2846 67.0646 95.6428 67.0646C89.5682 67.0646 83.9468 65.1172 79.3638 61.8088L97.2122 43.8709C98.7745 43.3681 100.009 42.1251 100.512 40.555L118.36 22.6173C121.652 27.2233 123.589 32.8729 123.589 38.9779Z" fill="#ECF9F9"/>
<path d="M103.86 12.127L68.9254 47.2366C68.1254 44.6253 67.6958 41.8526 67.6958 38.9779C67.6958 23.4665 80.2083 10.8912 95.6424 10.8912C98.5027 10.8912 101.261 11.323 103.86 12.127Z" fill="#ECF9F9"/>
<path d="M95.6416 44.1192C98.4664 44.1192 100.756 41.8177 100.756 38.9788C100.756 36.1398 98.4664 33.8384 95.6416 33.8384C92.8168 33.8384 90.5269 36.1398 90.5269 38.9788C90.5269 41.8177 92.8168 44.1192 95.6416 44.1192Z" fill="#C1EECC"/>
<path d="M97.9765 59.1093C78.2997 57.6723 59.1856 57.6786 39.3247 59.1284C29.6106 59.8374 22.0276 67.8412 21.7707 77.6265C21.6422 82.5226 21.6378 87.4185 21.7575 92.3146C22.0088 102.6 30.3275 110.87 40.5646 110.929C41.1144 110.932 41.6642 110.932 42.214 110.928C50.5783 110.869 57.6856 105.322 60.0287 97.6543C60.9344 94.6901 63.6147 92.6359 66.7 92.6359H70.5851C73.6704 92.6359 76.3506 94.6901 77.2563 97.6543C79.5994 105.322 86.7068 110.869 95.071 110.928C95.6208 110.932 96.1707 110.932 96.7205 110.929C106.958 110.87 115.276 102.6 115.528 92.3143C115.648 87.3944 115.643 82.4745 115.512 77.5546C115.254 67.7851 107.675 59.8177 97.9765 59.1093Z" fill="#ECECEC"/>
<path d="M25.8761 92.3143C25.7565 87.4182 25.7608 82.5223 25.8892 77.6262C26.1104 69.1951 31.771 61.5274 39.547 59.113C39.4728 59.1184 39.3991 59.1229 39.3247 59.1283C29.6106 59.8374 22.0276 67.8412 21.7707 77.6264C21.6422 82.5223 21.6378 87.4184 21.7575 92.3145C22.0088 102.6 30.3275 110.87 40.5646 110.929C41.1144 110.932 41.6642 110.932 42.214 110.928C42.6164 110.925 43.0147 110.906 43.4111 110.878C33.7656 110.174 26.1169 102.17 25.8761 92.3143Z" fill="#DADADA"/>
<path d="M81.3751 97.6543C80.4694 94.6901 77.7892 92.6359 74.7039 92.6359H70.8188C70.7797 92.6359 70.741 92.6377 70.7021 92.6383C73.7381 92.6895 76.3625 94.7278 77.2568 97.6543C79.5999 105.322 86.7072 110.869 95.0715 110.928C95.6213 110.932 96.1711 110.932 96.7209 110.929C97.1485 110.927 97.5725 110.909 97.993 110.878C90.154 110.327 83.6056 104.954 81.3751 97.6543Z" fill="#DADADA"/>
<path d="M50.7173 77.0757H45.8662V72.2003C45.8662 70.4988 44.4938 69.1193 42.8005 69.1193H40.1303C38.4373 69.1193 37.0647 70.4985 37.0647 72.2003V77.0757H32.2136C30.5206 77.0757 29.1479 78.455 29.1479 80.1567V82.8405C29.1479 84.542 30.5204 85.9215 32.2136 85.9215H37.0647V90.797C37.0647 92.4984 38.4371 93.878 40.1303 93.878H42.8008C44.4938 93.878 45.8664 92.4987 45.8664 90.797V85.9213H50.7175C52.4105 85.9213 53.7831 84.542 53.7831 82.8403V80.1565C53.7829 78.455 52.4105 77.0757 50.7173 77.0757Z" fill="#97BDD9"/>
<path d="M39.5781 72.2003C39.5781 70.4988 40.9505 69.1193 42.6438 69.1193H40.1311C38.4381 69.1193 37.0654 70.4985 37.0654 72.2003V77.0757H38.1653C38.9456 77.0757 39.5781 76.4401 39.5781 75.6558V72.2003Z" fill="#365E7D"/>
<path d="M31.6614 82.8404V80.1566C31.6614 78.4551 33.0338 77.0758 34.727 77.0758H32.2141C30.5211 77.0758 29.1484 78.4551 29.1484 80.1566V82.8404C29.1484 84.5419 30.5208 85.9212 32.2141 85.9212H34.7268C33.0338 85.9212 31.6614 84.5419 31.6614 82.8404Z" fill="#365E7D"/>
<path d="M39.5781 90.7967V87.3412C39.5781 86.5569 38.9456 85.9213 38.1653 85.9213H37.0654V90.7967C37.0654 92.4982 38.4378 93.8775 40.1308 93.8775H42.6435C40.9505 93.8777 39.5781 92.4982 39.5781 90.7967Z" fill="#365E7D"/>
<path d="M100.492 79.4548C103.331 79.4548 105.634 77.1411 105.634 74.287C105.634 71.433 103.331 69.1193 100.492 69.1193C97.6518 69.1193 95.3496 71.433 95.3496 74.287C95.3496 77.1411 97.6518 79.4548 100.492 79.4548Z" fill="#80B4FB"/>
<path d="M101.784 79.2905C101.371 79.3987 100.937 79.4555 100.491 79.4555C97.6506 79.4555 95.3486 77.142 95.3486 74.2875C95.3486 71.4331 97.6506 69.1195 100.491 69.1195C100.937 69.1195 101.371 69.1765 101.784 69.2845C99.5693 69.8596 97.9339 71.881 97.9339 74.2875C97.9339 76.694 99.5693 78.7155 101.784 79.2905Z" fill="#61A2F9"/>
<path d="M91.704 92.6238C94.5439 92.6238 96.846 90.3101 96.846 87.456C96.846 84.6019 94.5439 82.2882 91.704 82.2882C88.8642 82.2882 86.562 84.6019 86.562 87.456C86.562 90.3101 88.8642 92.6238 91.704 92.6238Z" fill="#DB6F80"/>
<path d="M92.996 92.4583C92.5825 92.5665 92.1499 92.6235 91.7042 92.6235C88.864 92.6235 86.562 90.31 86.562 87.4555C86.562 84.6029 88.864 82.2893 91.7042 82.2893C92.1499 82.2893 92.5825 82.3463 92.996 82.4543C90.7809 83.0294 89.1455 85.0506 89.1455 87.4553C89.1453 89.8618 90.7809 91.8832 92.996 92.4583Z" fill="#E77D86"/>
<path d="M71.7039 78.7194H65.583C64.1165 78.7194 62.9277 79.9141 62.9277 81.3879C62.9277 82.8617 64.1165 84.0564 65.583 84.0564H71.7039C73.1704 84.0564 74.3592 82.8617 74.3592 81.3879C74.3592 79.9143 73.1704 78.7194 71.7039 78.7194Z" fill="#97BDD9"/>
<path d="M132.902 7.97493C132.578 4.56813 129.883 1.8594 126.495 1.53473C106.024 -0.442028 85.2648 -0.441804 64.7953 1.53473C61.4087 1.8594 58.7137 4.56723 58.3873 7.97403C56.8484 24.084 56.5137 40.4069 57.3839 56.521C51.3648 56.6943 45.3169 57.0022 39.2075 57.4476C34.095 57.8212 29.331 60.0811 25.7931 63.8115C22.2576 67.5396 20.236 72.4298 20.1008 77.5814C19.971 82.4836 19.9666 87.4547 20.0874 92.356C20.1985 96.9393 21.759 101.249 24.6003 104.82C25.1783 105.546 26.2328 105.664 26.9555 105.083C27.6782 104.502 27.7955 103.443 27.2175 102.716C24.8378 99.7255 23.5306 96.1146 23.4374 92.2731C23.3181 87.4284 23.3226 82.5155 23.4509 77.6704C23.6861 68.7056 30.5647 61.4555 39.4504 60.8066C59.1989 59.3665 78.3047 59.3606 97.8596 60.7886C106.734 61.4357 113.604 68.6627 113.841 77.5994C113.971 82.4526 113.977 87.3898 113.857 92.2736C113.746 96.8127 111.914 101.068 108.697 104.257C105.478 107.447 101.223 109.219 96.7184 109.244C96.1735 109.247 95.6284 109.247 95.0886 109.244C87.5744 109.19 81.0542 104.334 78.8635 97.1589C77.7272 93.4463 74.4017 90.9517 70.5886 90.9517H66.7035C62.8916 90.9517 59.5673 93.4461 58.4308 97.1593C56.2383 104.333 49.7178 109.19 42.2108 109.244C41.6661 109.246 41.121 109.246 40.5784 109.244C37.4776 109.226 34.4399 108.367 31.7934 106.759C31.0014 106.277 29.9713 106.533 29.4928 107.329C29.014 108.124 29.2678 109.16 30.0598 109.641C33.2235 111.563 36.8543 112.591 40.562 112.612C41.1163 112.614 41.6704 112.614 42.23 112.612C46.6564 112.58 50.8612 111.154 54.3896 108.49C57.8629 105.867 60.3682 102.291 61.6341 98.1488C62.3351 95.8584 64.3724 94.3195 66.7035 94.3195H70.5886C72.9212 94.3195 74.9594 95.8584 75.66 98.1477C76.9249 102.29 79.4298 105.866 82.904 108.49C86.4328 111.155 90.6378 112.58 95.0696 112.612C95.3462 112.613 95.623 112.614 95.8998 112.614C96.1777 112.614 96.4561 112.613 96.7349 112.612C102.121 112.581 107.205 110.465 111.05 106.655C114.889 102.85 117.075 97.7721 117.207 92.356C117.328 87.4147 117.323 82.4194 117.191 77.5089C117.189 77.3994 117.18 77.2914 117.175 77.1822C120.279 76.9741 123.405 76.721 126.495 76.4222C129.884 76.0944 132.579 73.3859 132.902 69.9836C134.871 49.4103 134.871 28.547 132.902 7.97493ZM129.566 69.6629C129.395 71.4637 127.969 72.8966 126.174 73.0704C123.055 73.372 119.898 73.6266 116.767 73.8347C115.996 70.0745 114.221 66.6931 111.724 63.9859C120.131 58.5204 125.268 49.1369 125.268 38.9778C125.268 32.6124 123.296 26.5395 119.565 21.4153C119.018 20.6647 117.97 20.5017 117.223 21.0506C116.477 21.5998 116.314 22.6536 116.861 23.4042C120.169 27.9473 121.917 33.3324 121.917 38.9778C121.917 48.2879 117.052 56.865 109.149 61.6317C106.059 59.2542 102.267 57.7332 98.1022 57.4294C90.6653 56.8863 83.2928 56.5495 75.9256 56.4179C71.6967 51.6002 69.3755 45.4353 69.3755 38.9778C69.3755 24.4195 81.1606 12.5753 95.6462 12.5753C101.851 12.5753 107.874 14.791 112.604 18.8139C113.311 19.4147 114.368 19.326 114.966 18.6163C115.563 17.9063 115.475 16.8439 114.769 16.243C109.435 11.7059 102.643 9.20737 95.6462 9.20737C79.3127 9.20737 66.0243 22.5624 66.0243 38.9778C66.0243 45.2772 67.9847 51.3296 71.6015 56.3665C67.9836 56.3414 64.3637 56.3654 60.7357 56.4395C59.8678 40.4604 60.1971 24.2727 61.723 8.29623C61.8957 6.4928 63.3217 5.05918 65.1146 4.88741C85.3727 2.93108 105.916 2.93131 126.175 4.88741C127.969 5.05918 129.395 6.49213 129.566 8.296C131.514 28.6557 131.514 49.3019 129.566 69.6629Z" fill="#3B5974"/>
<path d="M95.6453 32.1543C91.9012 32.1543 88.855 35.2158 88.855 38.9787C88.855 42.7416 91.9012 45.803 95.6453 45.803C99.3894 45.803 102.436 42.7416 102.436 38.9787C102.436 35.2158 99.3894 32.1543 95.6453 32.1543ZM95.6453 42.4351C93.749 42.4351 92.2061 40.8845 92.2061 38.9787C92.2061 37.0728 93.749 35.5222 95.6453 35.5222C97.5416 35.5222 99.0845 37.0728 99.0845 38.9787C99.0845 40.8845 97.5416 42.4351 95.6453 42.4351Z" fill="#3B5974"/>
<path d="M42.8042 67.4352H40.1336C37.5195 67.4352 35.3926 69.5727 35.3926 72.2002V75.3916H32.2171C29.6029 75.3916 27.4761 77.5291 27.4761 80.1566V82.8404C27.4761 85.4676 29.6029 87.6052 32.2171 87.6052H35.3926V90.7966C35.3926 93.4238 37.5195 95.5614 40.1336 95.5614H42.804C45.4183 95.5614 47.5452 93.4238 47.5452 90.7966V87.6052H50.7208C53.3351 87.6052 55.462 85.4676 55.462 82.8404V80.1566C55.462 77.5291 53.3351 75.3916 50.7208 75.3916H47.5452V72.2002C47.5452 69.5727 45.4183 67.4352 42.8042 67.4352ZM50.7208 78.7596C51.4873 78.7596 52.1108 79.3862 52.1108 80.1566V82.8404C52.1108 83.6105 51.4873 84.2372 50.7208 84.2372H45.8696C44.9443 84.2372 44.1941 84.9912 44.1941 85.9212V90.7966C44.1941 91.5668 43.5705 92.1934 42.804 92.1934H40.1336C39.3673 92.1934 38.7438 91.5668 38.7438 90.7966V85.9212C38.7438 84.9912 37.9935 84.2372 37.0682 84.2372H32.2171C31.4508 84.2372 30.8272 83.6105 30.8272 82.8404V80.1566C30.8272 79.3862 31.4508 78.7596 32.2171 78.7596H37.0682C37.9935 78.7596 38.7438 78.0056 38.7438 77.0756V72.2002C38.7438 71.4298 39.3673 70.8031 40.1336 70.8031H42.804C43.5705 70.8031 44.1941 71.4298 44.1941 72.2002V77.0756C44.1941 78.0056 44.9443 78.7596 45.8696 78.7596H50.7208Z" fill="#3B5974"/>
<path d="M107.313 74.2869C107.313 70.5088 104.255 67.4352 100.495 67.4352C96.736 67.4352 93.6777 70.5088 93.6777 74.2869C93.6777 78.0651 96.736 81.1387 100.495 81.1387C104.255 81.1387 107.313 78.0651 107.313 74.2869ZM97.0287 74.2869C97.0287 72.3659 98.5836 70.8031 100.495 70.8031C102.407 70.8031 103.962 72.3659 103.962 74.2869C103.962 76.208 102.407 77.7707 100.495 77.7707C98.5836 77.7707 97.0287 76.208 97.0287 74.2869Z" fill="#3B5974"/>
<path d="M84.8901 87.456C84.8901 91.2342 87.9484 94.3078 91.7077 94.3078C95.467 94.3078 98.5253 91.2342 98.5253 87.456C98.5253 83.6778 95.467 80.6042 91.7077 80.6042C87.9484 80.6042 84.8901 83.6781 84.8901 87.456ZM95.1744 87.456C95.1744 89.3771 93.6194 90.9398 91.7079 90.9398C89.7964 90.9398 88.2415 89.3771 88.2415 87.456C88.2415 85.5349 89.7964 83.9722 91.7079 83.9722C93.6194 83.9722 95.1744 85.5351 95.1744 87.456Z" fill="#3B5974"/>
<path d="M71.7086 85.7407C74.0966 85.7407 76.0394 83.7882 76.0394 81.3882C76.0394 78.9882 74.0966 77.0356 71.7086 77.0356H65.5876C63.1996 77.0356 61.2568 78.9882 61.2568 81.3882C61.2568 83.7882 63.1996 85.7407 65.5876 85.7407H71.7086ZM64.6078 81.3882C64.6078 80.8452 65.0472 80.4036 65.5874 80.4036H71.7084C72.2486 80.4036 72.688 80.8452 72.688 81.3882C72.688 81.9311 72.2486 82.3727 71.7084 82.3727H65.5874C65.0472 82.3727 64.6078 81.9311 64.6078 81.3882Z" fill="#3B5974"/>
</svg>
