<svg width="155" height="113" viewBox="0 0 155 113" fill="none" xmlns="http://www.w3.org/2000/svg">
<g clip-path="url(#clip0_3_7233)">
<path d="M109.5 104.037L94.1784 107.501L83.0542 104.987L78.8564 104.037L80.9753 92.9596L93.9113 88.1158L94.1784 88.0155L94.4456 88.1158L107.382 92.9596L108.037 96.3871L109.5 104.037Z" fill="#ECECEC"/>
<path d="M108.038 96.3872H88.027C86.0332 96.3872 84.326 97.8237 83.9758 99.7965L83.0542 104.987L78.8564 104.037L80.9753 92.9597L93.9114 88.1158H94.4456L107.382 92.9597L108.038 96.3872Z" fill="#DADADA"/>
<path d="M141.942 85.1295C141.512 88.6633 138.661 91.3916 135.127 91.644C107.828 93.6012 80.5291 93.6012 53.2299 91.644C49.6959 91.3916 46.8457 88.6633 46.4152 85.1295C44.057 65.7846 44.057 46.4415 46.4149 27.0966C46.8455 23.5628 49.6959 20.8344 53.2297 20.5801C55.8169 20.3958 58.402 20.2274 60.9892 20.0773C79.8151 18.9835 98.6392 18.8212 117.465 19.5885C123.353 19.8269 129.239 20.1595 135.127 20.5801C138.661 20.8344 141.511 23.5628 141.942 27.0966C144.3 46.4415 144.3 65.7846 141.942 85.1295Z" fill="#ECECEC"/>
<path d="M54.9891 91.7672C54.4031 91.7272 53.817 91.6872 53.2312 91.645C49.6972 91.3906 46.845 88.6622 46.4145 85.1285C44.0585 65.7835 44.0585 46.4405 46.4145 27.0955C46.845 23.5618 49.6974 20.8336 53.2312 20.579C53.8172 20.537 54.4033 20.4968 54.9891 20.4568C53.7055 21.6867 52.8365 23.3514 52.6073 25.2265C50.0979 45.8174 50.0979 66.4066 52.6073 86.9975C52.8365 88.8726 53.7057 90.5373 54.9891 91.7672Z" fill="#DADADA"/>
<path d="M136.682 78.1604C136.517 79.9012 135.115 81.2593 133.381 81.3736C120.352 82.233 107.18 82.6696 94.1785 82.6696C81.1767 82.6696 68.0055 82.233 54.9758 81.3736C53.2418 81.2595 51.8406 79.9012 51.675 78.1604C50.0923 61.4216 50.3157 44.5205 52.3508 27.8278C52.4326 27.1507 52.9806 26.6239 53.6543 26.5758C55.4363 26.4476 57.2223 26.3273 59.0121 26.2192C70.7124 25.4921 82.5161 25.1234 94.1785 25.1234C102.662 25.1234 111.223 25.3178 119.761 25.7043C124.754 25.9285 129.741 26.2192 134.703 26.5756C135.376 26.6237 135.924 27.1505 136.006 27.8276C138.041 44.5205 138.265 61.4216 136.682 78.1604Z" fill="#D3E6FF"/>
<path d="M117.581 110.965H70.7763C68.8727 110.965 67.3296 109.414 67.3296 107.501C67.3296 105.588 68.8727 104.037 70.7763 104.037H117.581C119.484 104.037 121.028 105.588 121.028 107.501C121.028 109.414 119.484 110.965 117.581 110.965Z" fill="#ECECEC"/>
<path d="M80.0703 110.965H70.7759C68.8723 110.965 67.3296 109.414 67.3296 107.501C67.3296 106.546 67.7164 105.678 68.3381 105.051C68.962 104.426 69.825 104.037 70.7759 104.037H80.0703C79.1176 104.037 78.2565 104.426 77.6326 105.051C77.0087 105.678 76.6242 106.546 76.6242 107.501C76.6239 109.414 78.1668 110.965 80.0703 110.965Z" fill="#DADADA"/>
<path d="M144.974 64.3038C134.568 65.4107 124.162 65.4107 113.756 64.3038C110.024 63.9067 107.116 60.8714 106.877 57.1066C105.874 41.3125 105.874 25.5184 106.877 9.72428C107.116 5.95971 110.024 2.92418 113.756 2.52712C124.162 1.42016 134.568 1.42016 144.974 2.52712C148.707 2.92418 151.614 5.95949 151.853 9.72428C152.857 25.5184 152.857 41.3125 151.853 57.1066C151.614 60.8714 148.707 63.9067 144.974 64.3038Z" fill="#CECECE"/>
<path d="M112.666 64.1079C109.47 63.2936 107.092 60.4957 106.877 57.1069C105.874 41.3128 105.874 25.5187 106.877 9.72455C107.092 6.33572 109.47 3.53785 112.666 2.72351C110.73 4.08661 109.431 6.28339 109.271 8.79281C108.228 25.2085 108.228 41.623 109.271 58.0386C109.431 60.548 110.73 62.7446 112.666 64.1079Z" fill="#B8DEFB"/>
<path d="M145.995 50.9564C145.818 53.7402 143.668 55.9852 140.909 56.2791C133.213 57.0974 125.518 57.0974 117.824 56.2791C115.063 55.9852 112.913 53.7402 112.736 50.9564C111.994 39.2773 111.994 27.5971 112.736 15.9183C112.913 13.1345 115.063 10.8895 117.824 10.5956C118.724 10.4999 119.623 10.4155 120.523 10.3425C120.835 11.5676 121.877 12.4984 123.167 12.6365C127.299 13.0753 131.432 13.0753 135.564 12.6365C136.854 12.4986 137.896 11.5676 138.208 10.3425C139.108 10.4155 140.008 10.4997 140.909 10.5956C143.668 10.8895 145.818 13.1345 145.995 15.9183C146.738 27.5974 146.738 39.2773 145.995 50.9564Z" fill="#D3E6FF"/>
<path d="M120.856 51.3141C120.809 54.1389 120.246 56.4169 119.524 56.7152C117.509 57.5455 115.494 57.5455 113.479 56.7152C112.756 56.4169 112.193 54.1389 112.147 51.3141C111.953 39.4631 111.953 27.6109 112.147 15.7601C112.193 12.9353 112.756 10.6573 113.479 10.3591C113.715 10.262 113.95 10.1764 114.186 10.1023C114.268 11.3454 114.541 12.2899 114.878 12.43C115.96 12.8753 117.042 12.8753 118.124 12.43C118.462 12.2901 118.735 11.3454 118.817 10.1023C119.052 10.1764 119.288 10.2618 119.524 10.3591C120.246 10.6573 120.809 12.9353 120.856 15.7601C121.05 27.6111 121.05 39.4631 120.856 51.3141Z" fill="#BDD5F4"/>
<path d="M94.1782 86.3669C93.2719 86.3669 92.5376 87.1052 92.5376 88.0158V88.116C92.5376 89.0266 93.2719 89.7649 94.1782 89.7649C95.0845 89.7649 95.8188 89.0266 95.8188 88.116V88.0158C95.8188 87.1052 95.0843 86.3669 94.1782 86.3669Z" fill="#3B5974"/>
<path d="M153.491 9.61966C153.2 5.04339 149.691 1.37116 145.147 0.887705C134.675 -0.226077 124.055 -0.226077 113.584 0.887705C109.039 1.37116 105.53 5.04339 105.24 9.61966C105.072 12.2632 104.934 14.9133 104.823 17.5672C90.2376 17.295 75.4684 17.5843 60.8954 18.431C58.3884 18.5759 55.843 18.741 53.114 18.936C48.8128 19.2436 45.31 22.5915 44.7854 26.8967C42.4244 46.2835 42.4244 65.9435 44.7854 85.3305C45.3102 89.6344 48.813 92.9812 53.1138 93.2888C61.7133 93.9053 70.3492 94.3258 78.9998 94.5532L77.5015 102.388H70.776C67.9709 102.388 65.6886 104.682 65.6886 107.501C65.6886 110.32 67.9709 112.614 70.776 112.614H117.58C120.385 112.614 122.668 110.32 122.668 107.501C122.668 104.682 120.385 102.388 117.58 102.388H110.855L109.357 94.5532C118.008 94.3258 126.645 93.905 135.243 93.2888C139.545 92.9812 143.047 89.6337 143.569 85.3303C144.353 78.8984 144.879 72.3848 145.143 65.9439C145.144 65.9439 145.145 65.9437 145.146 65.9437C149.691 65.4603 153.2 61.788 153.491 57.212C154.494 41.4218 154.494 25.4094 153.491 9.61966ZM119.386 107.501C119.386 108.502 118.576 109.316 117.58 109.316H70.776C69.78 109.316 68.97 108.502 68.97 107.501C68.97 106.5 69.78 105.686 70.776 105.686H117.58C118.576 105.686 119.386 106.5 119.386 107.501ZM107.514 102.388H80.8428L82.3269 94.6275C86.2757 94.7084 90.2269 94.7537 94.1785 94.7537C98.1293 94.7537 102.08 94.7084 106.029 94.6272L107.514 102.388ZM140.312 84.9301C139.979 87.6715 137.75 89.8034 135.01 89.9993C107.916 91.9413 80.4408 91.9413 53.3467 89.9993C50.6077 89.8034 48.3766 87.6711 48.0423 84.9295C45.7136 65.8085 45.7136 46.4182 48.0423 27.2975C48.3766 24.5544 50.6077 22.4211 53.3467 22.2252C56.0606 22.0313 58.5917 21.8671 61.0842 21.7231C75.5535 20.8826 90.2168 20.5948 104.698 20.8628C104.668 21.7664 104.641 22.6704 104.618 23.5747C101.135 23.5087 97.6307 23.4736 94.1765 23.4736C82.5124 23.4736 70.6468 23.8438 58.9132 24.5735C57.2892 24.6713 55.5308 24.7883 53.5373 24.931C52.0799 25.0354 50.8958 26.1705 50.7216 27.6262C48.6769 44.4035 48.4479 61.4578 50.0411 78.3176C50.2852 80.876 52.3162 82.8525 54.8673 83.0174C55.6993 83.0724 56.529 83.1256 57.3609 83.1764C57.3946 83.1783 57.4285 83.1794 57.4618 83.1794C58.3226 83.1794 59.0452 82.5054 59.0979 81.6303C59.1528 80.7215 58.4641 79.9399 57.5596 79.8847C56.7335 79.8343 55.9093 79.7818 55.0804 79.7268C54.1426 79.6662 53.3968 78.9411 53.3076 78.0045C51.7428 61.4451 51.9613 44.6926 53.9569 28.2075C55.8614 28.0716 57.5486 27.9597 59.1125 27.8656C70.7824 27.1396 82.5795 26.7716 94.1765 26.7716C97.6069 26.7716 101.087 26.8066 104.546 26.8719C104.371 36.9988 104.601 47.1504 105.24 57.2118C105.53 61.7878 109.039 65.4603 113.584 65.9437C118.82 66.5006 124.093 66.7792 129.365 66.7792C131.523 66.7792 133.68 66.7299 135.835 66.6367C135.665 70.4257 135.405 74.2399 135.048 78.003C134.959 78.9413 134.213 79.6664 133.273 79.7271C120.263 80.5854 107.11 81.0207 94.1768 81.0207C84.2421 81.0207 74.1191 80.7617 64.0888 80.2512C63.1812 80.2028 62.4132 80.905 62.3672 81.8146C62.3213 82.7241 63.0178 83.4987 63.9226 83.5448C74.0082 84.0582 84.187 84.3187 94.1768 84.3187C107.181 84.3187 120.407 83.8812 133.486 83.0181C136.039 82.8532 138.07 80.8765 138.314 78.3169C138.687 74.3908 138.955 70.4105 139.128 66.4597C140.035 66.4004 140.941 66.3307 141.847 66.2546C141.581 72.4615 141.067 78.734 140.312 84.9301ZM150.216 57.0018C150.028 59.9692 147.751 62.3504 144.801 62.6642C134.559 63.754 124.172 63.7538 113.929 62.6642C110.98 62.3504 108.702 59.9692 108.514 57.0018C107.52 41.351 107.52 25.4802 108.514 9.8294C108.702 6.86203 110.98 4.48079 113.929 4.16705C119.051 3.62225 124.207 3.35007 129.365 3.35007C134.522 3.35007 139.681 3.62247 144.801 4.16727C147.75 4.48101 150.028 6.86225 150.216 9.82962C151.21 25.4802 151.21 41.3512 150.216 57.0018Z" fill="#3B5974"/>
<path d="M146.257 20.6327C145.352 20.6698 144.648 21.4378 144.685 22.3475C145.069 31.7896 144.959 41.3794 144.356 50.8516C144.232 52.8369 142.709 54.4293 140.734 54.6386C133.192 55.4426 125.54 55.4426 117.994 54.6386C116.022 54.4298 114.499 52.8367 114.373 50.8508C113.639 39.2968 113.639 27.5787 114.373 16.0228C114.499 14.0381 116.023 12.4451 117.992 12.2349C118.521 12.1795 119.023 12.1296 119.505 12.0852C120.26 13.2893 121.539 14.1208 122.994 14.2771C127.221 14.725 131.508 14.725 135.737 14.2769C137.19 14.121 138.469 13.2893 139.225 12.0852C139.71 12.13 140.21 12.1795 140.734 12.2347C142.692 12.4431 144.214 14.0208 144.352 15.9858C144.416 16.8943 145.197 17.5795 146.105 17.5142C147.009 17.4498 147.689 16.6614 147.626 15.753C147.375 12.1914 144.622 9.33258 141.078 8.95531C140.102 8.85264 139.206 8.76866 138.339 8.69874C137.543 8.63477 136.817 9.15516 136.619 9.93213C136.472 10.5064 135.978 10.9349 135.391 10.9978C131.392 11.4212 127.337 11.4212 123.34 10.998C122.752 10.9347 122.258 10.5077 122.113 9.93499C121.916 9.15648 121.189 8.63543 120.392 8.69852C119.536 8.76734 118.64 8.85132 117.649 8.95531C114.082 9.33588 111.327 12.2197 111.099 15.8126C110.356 27.5082 110.356 39.3673 111.099 51.0607C111.327 54.6564 114.082 57.5405 117.649 57.918C121.537 58.3324 125.451 58.5395 129.366 58.5395C133.28 58.5395 137.194 58.3324 141.079 57.918C144.65 57.5401 147.405 54.6556 147.631 51.0607C148.241 41.4753 148.353 31.7692 147.963 22.2125C147.926 21.303 147.173 20.5935 146.257 20.6327Z" fill="#3B5974"/>
<path d="M124.677 7.68624H134.053C134.959 7.68624 135.694 6.94797 135.694 6.03734C135.694 5.1267 134.959 4.38843 134.053 4.38843H124.677C123.771 4.38843 123.037 5.1267 123.037 6.03734C123.037 6.94797 123.771 7.68624 124.677 7.68624Z" fill="#3B5974"/>
</g>
<g clip-path="url(#clip1_3_7233)">
<path d="M29.4248 51.2035L2.4502 51.2035L2.45019 86.208L29.4248 86.208L29.4248 51.2035Z" fill="#ADAAAF"/>
<path d="M73.8829 47.0892L55.8125 47.0892L55.8125 69.0289L73.8829 69.0289L73.8829 47.0892Z" fill="#ADAAAF"/>
<path d="M24.8309 40.1805L7.04541 40.1805L7.04541 51.2032L24.8309 51.2032L24.8309 40.1805Z" fill="#E8E7E9"/>
<path d="M69.442 40.1805L60.2529 40.1805L60.2529 47.0892L69.442 47.0892L69.442 40.1805Z" fill="#E8E7E9"/>
<path fill-rule="evenodd" clip-rule="evenodd" d="M73.8829 45.6299L70.8942 45.6299L70.8942 40.1805C70.8942 39.3747 70.2441 38.7213 69.4424 38.7213L60.2533 38.7213C59.4515 38.7213 58.8014 39.3747 58.8014 40.1805L58.8014 45.63L55.8125 45.63C55.0107 45.63 54.3607 46.2834 54.3607 47.0892L54.3607 52.2225C54.3607 53.0282 55.0107 53.6816 55.8125 53.6816C56.6143 53.6816 57.2644 53.0282 57.2644 52.2225L57.2644 48.5483L60.2533 48.5483L69.4424 48.5483L72.4311 48.5483L72.431 67.5696L57.2644 67.5696L57.2644 63.8956C57.2644 63.0899 56.6143 62.4365 55.8125 62.4365C55.0107 62.4365 54.3607 63.0899 54.3607 63.8956L54.3607 69.0288C54.3607 69.8345 55.0107 70.4879 55.8125 70.4879L63.3957 70.4879L63.3957 99.2164C63.3957 104.545 59.0827 108.879 53.7812 108.879L27.004 108.879C21.7025 108.879 17.3895 104.545 17.3895 99.2164L17.3895 87.6666L29.425 87.6666C30.2268 87.6666 30.8769 87.0132 30.8769 86.2075L30.8769 51.2031C30.8769 50.3974 30.2268 49.744 29.425 49.744L26.2823 49.744L26.2823 40.1805C26.2823 39.3747 25.6323 38.7213 24.8304 38.7213L7.04489 38.7213C6.24316 38.7213 5.59301 39.3747 5.59301 40.1805L5.59301 49.7439L2.45041 49.7439C1.64869 49.7439 0.998533 50.3974 0.998533 51.2031L0.998531 62.8686C0.998531 63.6745 1.64868 64.3278 2.45041 64.3278C3.25214 64.3278 3.90229 63.6745 3.90229 62.8686L3.90229 52.6623L7.04489 52.6623L24.8304 52.6623L27.9732 52.6623L27.9732 84.7483L3.90229 84.7483L3.90229 74.5419C3.90229 73.7362 3.25214 73.0828 2.45041 73.0828C1.64868 73.0828 0.998529 73.7362 0.998529 74.5419L0.998527 86.2075C0.998527 87.0132 1.64868 87.6666 2.45041 87.6666L14.4858 87.6666L14.4858 99.2163C14.4858 106.154 20.1015 111.797 27.004 111.797L53.7813 111.797C60.6839 111.797 66.2996 106.154 66.2996 99.2163L66.2996 70.4879L73.8829 70.4879C74.6847 70.4879 75.3348 69.8345 75.3348 69.0288L75.3348 47.089C75.3348 46.2833 74.6847 45.6299 73.8829 45.6299ZM61.7051 45.6299L61.7051 41.6396L67.9905 41.6396L67.9905 45.63L61.7051 45.63L61.7051 45.6299ZM8.49677 49.7439L8.49677 41.6396L23.3785 41.6396L23.3785 49.744L8.49677 49.7439Z" fill="#3B5974"/>
<path fill-rule="evenodd" clip-rule="evenodd" d="M13.8842 44.2324L11.2322 44.2324C10.4303 44.2324 9.78027 44.8858 9.78027 45.6916C9.78027 46.4973 10.4303 47.1507 11.2322 47.1507L13.8842 47.1507C14.6859 47.1507 15.336 46.4973 15.336 45.6916C15.336 44.8858 14.6859 44.2324 13.8842 44.2324Z" fill="#3B5974"/>
<path fill-rule="evenodd" clip-rule="evenodd" d="M20.6425 44.2324L17.9905 44.2324C17.1887 44.2324 16.5386 44.8858 16.5386 45.6916C16.5386 46.4973 17.1887 47.1507 17.9905 47.1507L20.6425 47.1507C21.4442 47.1507 22.0943 46.4973 22.0943 45.6916C22.0943 44.8858 21.4442 44.2324 20.6425 44.2324Z" fill="#3B5974"/>
<path fill-rule="evenodd" clip-rule="evenodd" d="M2.45042 70.1644C3.25011 70.1644 3.9023 69.509 3.9023 68.7053C3.9023 67.9015 3.25011 67.2461 2.45042 67.2461C1.65072 67.2461 0.998535 67.9015 0.998535 68.7052C0.998535 69.509 1.65072 70.1644 2.45042 70.1644Z" fill="#3B5974"/>
<path fill-rule="evenodd" clip-rule="evenodd" d="M55.8127 59.518C56.6124 59.518 57.2646 58.8624 57.2646 58.0588C57.2646 57.2551 56.6124 56.5995 55.8127 56.5995C55.013 56.5995 54.3608 57.2551 54.3608 58.0588C54.3608 58.8624 55.013 59.518 55.8127 59.518Z" fill="#3B5974"/>
</g>
<defs>
<clipPath id="clip0_3_7233">
<rect width="112" height="112.561" fill="white" transform="translate(42.6289 0.0522461)"/>
</clipPath>
<clipPath id="clip1_3_7233">
<rect width="74.3363" height="74.7089" fill="white" transform="translate(0.998535 37.905)"/>
</clipPath>
</defs>
</svg>
