<svg width="155" height="113" viewBox="0 0 155 113" fill="none" xmlns="http://www.w3.org/2000/svg">
<path d="M61.3879 25.4461C61.3879 23.7765 61.952 22.1639 62.9569 20.8327C64.4343 18.8759 65.3115 16.4383 65.3115 13.7946C65.3115 7.18739 59.8391 1.86171 53.191 2.12561C47.353 2.35727 42.2375 7.50372 42.0244 13.3579C41.9207 16.2066 42.8361 18.8369 44.4331 20.9139C45.4283 22.2084 45.9401 23.8116 45.9401 25.4461C45.9401 26.7369 45.1113 27.8702 43.894 28.2898C39.265 29.886 36.2217 32.5836 36.2217 35.644C36.2217 40.5476 44.0307 44.5229 53.6638 44.5229C63.2969 44.5229 71.1059 40.5476 71.1059 35.644C71.1059 32.5836 68.0627 29.886 63.4336 28.2898C62.2165 27.8699 61.3879 26.7369 61.3879 25.4461Z" fill="#FFE6CC"/>
<path d="M53.6648 44.5248C44.0308 44.5248 36.2227 40.5476 36.2227 35.6449C36.2227 32.5843 39.2658 29.8882 43.8943 28.2916C44.503 28.0806 45.0145 27.6929 45.3731 27.1965C45.7317 26.6976 45.9402 26.092 45.9402 25.447C45.9402 23.8136 45.4287 22.2102 44.4336 20.9155C42.8367 18.8387 41.9204 16.2075 42.0245 13.3581C42.2374 7.50375 47.3542 2.3595 53.1906 2.12762C53.3504 2.1206 53.5077 2.11841 53.665 2.11841C53.591 2.11841 53.5193 2.12082 53.4451 2.12762C50.7376 2.35972 48.3655 7.50397 48.2659 13.3581C48.2173 16.2075 48.6431 18.8387 49.3837 20.9155C49.8443 22.2102 50.0825 23.8136 50.0825 25.447C50.0825 26.0922 49.9854 26.6976 49.8187 27.1965C49.6519 27.6931 49.4159 28.0806 49.1336 28.2916C46.986 29.888 45.5744 32.5843 45.5744 35.6449C45.5744 40.5479 49.1962 44.5248 53.6648 44.5248Z" fill="#FFC78C"/>
<path d="M68.6979 35.9432C58.6752 34.8868 48.6527 34.8868 38.6299 35.9432C34.6639 36.3614 31.5687 39.5837 31.3235 43.5745C30.3512 59.3964 30.3512 75.2184 31.3235 91.0403C31.5687 95.0313 34.6637 98.2537 38.6299 98.6716C48.6527 99.7281 58.6752 99.7281 68.6979 98.6716C72.6639 98.2535 75.7591 95.0311 76.0044 91.0403C76.9767 75.2184 76.9767 59.3964 76.0044 43.5745C75.7591 39.5837 72.6642 36.3614 68.6979 35.9432Z" fill="#80B4FB"/>
<path d="M41.3877 41.9572C40.8532 58.8565 40.8532 75.758 41.3877 92.657C41.471 95.2743 42.142 97.5808 43.1557 99.0752C41.6469 98.9637 40.1379 98.8292 38.6292 98.6715C34.6625 98.2538 31.5686 95.0308 31.3231 91.0398C30.3513 75.2172 30.3513 59.397 31.3231 43.5747C31.5684 39.5836 34.6625 36.3606 38.6292 35.9429C40.1379 35.7852 41.6469 35.6505 43.1557 35.5393C42.142 37.0334 41.471 39.3399 41.3877 41.9572Z" fill="#61A2F9"/>
<path d="M68.0715 47.2602C58.4668 46.6874 48.862 46.6874 39.2574 47.2602C31.0604 47.7491 24.5486 54.3601 24.0942 62.5806C23.3739 75.608 23.5115 88.6353 24.507 101.663C24.8553 106.221 28.4457 109.87 32.9888 110.259C46.7726 111.439 60.5563 111.439 74.34 110.259C78.8832 109.87 82.4735 106.221 82.8218 101.663C83.8171 88.6353 83.9547 75.608 83.2347 62.5806C82.7803 54.3601 76.2684 47.7489 68.0715 47.2602Z" fill="#D3EFFB"/>
<path d="M39.2568 47.2594C39.5577 47.2407 39.8585 47.2245 40.1593 47.2083C36.7528 49.8488 34.3623 55.3109 34.1424 61.692C33.6657 75.424 33.756 89.1582 34.4131 102.89C34.5704 106.166 35.723 108.995 37.3893 110.594C35.9221 110.496 34.4549 110.385 32.9876 110.26C28.4449 109.87 24.8555 106.222 24.5061 101.663C23.511 88.6361 23.3745 75.6072 24.0941 62.5807C24.5478 54.3598 31.0599 47.749 39.2568 47.2594Z" fill="#B1E4F9"/>
<path d="M76.7225 82.5011C76.6461 88.7267 76.373 94.9498 75.9009 101.131C75.8129 102.282 74.8872 103.226 73.7511 103.324C67.0861 103.892 60.3288 104.183 53.666 104.183C47.2902 104.183 40.8292 103.918 34.4488 103.396C34.1596 103.373 33.8704 103.35 33.5811 103.324C32.4425 103.227 31.5193 102.282 31.4313 101.131C30.825 93.2328 30.545 85.2646 30.5914 77.315C30.603 75.1246 31.9196 73.18 33.8868 72.3401C34.1183 72.2403 34.3589 72.1567 34.6064 72.0895C45.1498 69.2447 56.4177 79.1156 70.4489 77.0482C73.7765 76.5564 76.7618 79.1296 76.7225 82.5011Z" fill="#ECECEC"/>
<path d="M34.4488 103.396C34.1596 103.373 33.8704 103.349 33.5811 103.324C32.4425 103.227 31.5193 102.282 31.4313 101.131C30.825 93.2327 30.545 85.2644 30.5914 77.3149C30.603 75.1244 31.9196 73.1799 33.8868 72.34C33.7524 82.5241 33.9262 92.7082 34.4145 102.89C34.4235 103.06 34.4327 103.229 34.4488 103.396Z" fill="#DADADA"/>
<path d="M109.193 76.7441C109.193 78.4137 109.757 80.0263 110.762 81.3575C112.239 83.3143 113.116 85.7519 113.116 88.3955C113.116 95.0028 107.644 100.328 100.996 100.065C95.1577 99.8329 90.0422 94.6865 89.8291 88.8323C89.7254 85.9836 90.6408 83.3533 92.2377 81.2763C93.233 79.9818 93.7448 78.3786 93.7448 76.7441C93.7448 75.4533 92.916 74.32 91.6987 73.9004C87.0697 72.3042 84.0264 69.6066 84.0264 66.5459C84.0264 61.6423 91.8354 57.6671 101.468 57.6671C111.102 57.6671 118.911 61.6423 118.911 66.5459C118.911 69.6064 115.867 72.304 111.238 73.9004C110.021 74.3202 109.193 75.4533 109.193 76.7441Z" fill="#FFE6CC"/>
<path d="M101.469 57.6653C91.8355 57.6653 84.0273 61.6425 84.0273 66.5452C84.0273 69.6059 87.0705 72.302 91.699 73.8985C92.3076 74.1096 92.8192 74.4972 93.1778 74.9936C93.5364 75.4925 93.7449 76.0982 93.7449 76.7431C93.7449 78.3766 93.2333 79.98 92.2383 81.2747C90.6413 83.3515 89.7251 85.9826 89.8292 88.832C90.0421 94.6864 95.1589 99.8307 100.995 100.063C101.155 100.07 101.312 100.072 101.469 100.072C101.395 100.072 101.324 100.069 101.25 100.063C98.542 99.8304 96.1699 94.6862 96.0704 88.832C96.0218 85.9826 96.4476 83.3515 97.1882 81.2747C97.6487 79.98 97.887 78.3766 97.887 76.7431C97.887 76.098 97.7898 75.4925 97.6231 74.9936C97.4564 74.497 97.2203 74.1096 96.9381 73.8985C94.7905 72.3022 93.3788 69.6059 93.3788 66.5452C93.3791 61.6425 97.0009 57.6653 101.469 57.6653Z" fill="#FFC78C"/>
<path d="M125.16 29.3149C125.16 16.2404 114.588 5.64258 101.549 5.64258C88.5109 5.64258 77.939 16.2404 77.939 29.3149C77.939 42.3895 88.5109 52.9873 101.549 52.9873C114.588 52.9873 125.16 42.3895 125.16 29.3149ZM117.818 29.3149C117.818 38.3245 110.534 45.6274 101.549 45.6274C92.565 45.6274 85.2815 38.3245 85.2815 29.3149C85.2815 20.3054 92.565 13.0025 101.549 13.0025C110.534 13.0025 117.818 20.3054 117.818 29.3149Z" fill="#F2828C"/>
<path d="M103.008 45.559C103.488 45.6018 103.974 45.6275 104.465 45.6275C113.451 45.6275 120.734 38.3246 120.734 29.315C120.734 20.3054 113.451 13.0026 104.465 13.0026C103.974 13.0026 103.488 13.0282 103.008 13.071C111.31 13.8105 117.819 20.7984 117.819 29.315C117.819 37.8317 111.31 44.8195 103.008 45.559Z" fill="#F6798D"/>
<path d="M80.8535 29.315C80.8535 16.7314 90.6469 6.44375 103.006 5.68889C102.524 5.65949 102.038 5.64282 101.549 5.64282C88.5109 5.64282 77.939 16.2407 77.939 29.3152C77.939 42.3897 88.5109 52.9875 101.549 52.9875C102.038 52.9875 102.524 52.9709 103.006 52.9413C90.6469 52.1862 80.8535 41.8985 80.8535 29.315Z" fill="#F6798D"/>
<path d="M101.47 40.8074C98.8288 40.8074 96.688 42.9539 96.688 45.6017V60.9558H106.251V45.6017C106.251 42.9539 104.11 40.8074 101.47 40.8074Z" fill="#ECECEC"/>
<path d="M103.149 41.1117C101.335 41.7939 100.046 43.5467 100.046 45.6022V57.6655H96.688V45.6022C96.688 42.9544 98.8277 40.8068 101.469 40.8068C102.059 40.8068 102.626 40.9143 103.149 41.1117Z" fill="#DADADA"/>
<path d="M127.563 65.6483H75.3745C73.1764 65.6483 71.3945 63.8617 71.3945 61.6577C71.3945 59.4537 73.1764 57.6671 75.3745 57.6671H127.563C129.761 57.6671 131.543 59.4537 131.543 61.6577C131.543 63.8617 129.761 65.6483 127.563 65.6483Z" fill="#F2828C"/>
<path d="M88.9064 65.6481H75.3743C73.1755 65.6481 71.3945 63.8624 71.3945 61.6577C71.3945 60.5565 71.8409 59.5583 72.5607 58.8366C73.2805 58.1127 74.2738 57.6674 75.3743 57.6674H88.9064C87.8081 57.6674 86.8126 58.1127 86.0928 58.8366C85.3708 59.5583 84.9267 60.5565 84.9267 61.6577C84.9267 63.8624 86.7076 65.6481 88.9064 65.6481Z" fill="#F6798D"/>
<path d="M33.441 104.964C40.1639 105.537 46.9683 105.828 53.665 105.828C60.3595 105.828 67.1638 105.537 73.8897 104.964C75.8194 104.798 77.387 103.205 77.536 101.257V101.257C78.0088 95.0581 78.2864 88.7549 78.3617 82.5226C78.3869 80.4466 77.5082 78.4732 75.9509 77.1078C74.3782 75.7291 72.2851 75.1144 70.2079 75.4202C63.4751 76.4133 57.3787 74.4936 51.4834 72.6372C45.498 70.7526 39.8445 68.9724 34.179 70.5004C31.1185 71.3258 28.9683 74.1246 28.9497 77.3063C28.9035 85.2906 29.1875 93.349 29.794 101.257C29.9428 103.205 31.5106 104.798 33.441 104.964ZM32.2315 77.3254C32.2414 75.6198 33.3928 74.12 35.0314 73.6779C36.2378 73.3526 37.4586 73.2113 38.7037 73.2113C42.3531 73.2113 46.2089 74.4253 50.5002 75.7767C56.4567 77.6523 63.2081 79.778 70.6853 78.6757C71.8109 78.5098 72.9423 78.8411 73.7908 79.585C74.6359 80.3258 75.0939 81.3548 75.0803 82.4824C75.0059 88.6445 74.7311 94.8769 74.264 101.006C74.2375 101.352 73.9444 101.656 73.6111 101.685C66.9781 102.251 60.2674 102.538 53.6652 102.538C47.0608 102.538 40.3503 102.251 33.7199 101.685C33.3861 101.657 33.0929 101.352 33.0664 101.005C32.4665 93.1866 32.1858 85.2195 32.2315 77.3254Z" fill="#3B5974"/>
<path d="M127.563 56.0223H122.189C121.283 56.0223 120.548 56.759 120.548 57.6676C120.548 58.5763 121.283 59.3129 122.189 59.3129H127.563C128.853 59.3129 129.902 60.3648 129.902 61.658C129.902 62.2839 129.658 62.8724 129.214 63.3175C128.775 63.7596 128.188 64.0031 127.563 64.0031H75.3726C74.0829 64.0031 73.0338 62.9512 73.0338 61.658C73.0338 61.0321 73.2773 60.4435 73.7212 59.9984C74.1608 59.5564 74.7473 59.3129 75.3726 59.3129H115.63C116.536 59.3129 117.271 58.5763 117.271 57.6676C117.271 56.759 116.536 56.0223 115.63 56.0223H107.89V53.8267C118.924 50.9647 126.799 40.8673 126.799 29.3161C126.799 15.3559 115.472 3.99844 101.549 3.99844C87.6253 3.99844 76.2981 15.3559 76.2981 29.3161C76.2981 35.1632 78.3337 40.8675 82.0297 45.3784C85.3892 49.4783 89.9729 52.4251 95.0451 53.7806V56.0223H83.2779C82.0549 53.3432 80.2105 51.0534 77.9543 49.3067C77.8642 47.3611 77.7598 45.4035 77.6417 43.4736C77.433 40.0787 75.5306 37.1606 72.7454 35.5603C72.7198 33.6471 71.8171 31.8011 70.1274 30.2166C68.6293 28.8117 66.499 27.6078 63.9669 26.735C63.4055 26.5413 63.0281 26.0233 63.0281 25.4459C63.0281 24.1486 63.4556 22.8971 64.2638 21.827C66.0231 19.4999 66.953 16.7226 66.953 13.7953C66.953 10.136 65.5035 6.72412 62.8719 4.18797C60.2416 1.65314 56.7801 0.337568 53.1255 0.482353C46.4622 0.747354 40.6278 6.61554 40.3847 13.2967C40.2712 16.4034 41.2476 19.4654 43.134 21.9187C43.8856 22.8964 44.2993 24.149 44.2993 25.4459C44.2993 25.7269 44.2103 25.9994 44.0442 26.2304C43.8755 26.4638 43.6383 26.6387 43.3607 26.735C40.8293 27.6081 38.6998 28.812 37.202 30.2168C35.5129 31.8009 34.6104 33.6467 34.5844 35.5592C31.7981 37.1593 29.8946 40.0782 29.6859 43.4743C29.568 45.4006 29.4639 47.3537 29.3739 49.2929C25.3944 52.3735 22.752 57.1113 22.4543 62.4905C21.8699 73.0447 21.8493 83.7557 22.3926 94.3261C22.4379 95.2047 23.1625 95.8867 24.03 95.8867C24.0584 95.8867 24.0871 95.8861 24.116 95.8845C25.0211 95.8378 25.7169 95.0641 25.6703 94.1568C25.1327 83.7031 25.1533 73.1105 25.7311 62.6728C26.1413 55.2618 31.9981 49.342 39.3544 48.9031C48.8495 48.3371 58.4788 48.3371 67.9743 48.9031C72.8126 49.1913 77.1468 51.9096 79.5791 56.0223H75.3724C73.8685 56.0223 72.4564 56.6094 71.3985 57.6735C70.3365 58.7384 69.7517 60.1533 69.7517 61.658C69.7517 64.7656 72.273 67.2936 75.3724 67.2936H81.8123C82.2621 78.6551 82.0523 90.1668 81.1839 101.537C80.8953 105.318 77.9579 108.297 74.2006 108.621C60.5737 109.785 46.755 109.785 33.1288 108.621C29.3691 108.297 26.4308 105.318 26.1422 101.537C26.1205 101.254 26.0991 100.971 26.0796 100.688C26.0175 99.7812 25.2316 99.0957 24.3302 99.1591C23.4261 99.2212 22.7435 100.007 22.8054 100.913C22.8253 101.205 22.8477 101.496 22.8698 101.788C23.2815 107.185 27.4781 111.438 32.849 111.899C39.7548 112.489 46.709 112.784 53.6637 112.784C60.6184 112.784 67.5735 112.489 74.4798 111.899C79.8484 111.438 84.0439 107.185 84.4561 101.788C85.2059 91.9672 85.4709 82.0413 85.2488 72.1948C86.73 73.5047 88.7658 74.6288 91.1605 75.4547C91.4407 75.5519 91.6781 75.7267 91.8448 75.9575C92.0131 76.1913 92.1019 76.4636 92.1019 76.7446C92.1019 78.0415 91.688 79.2941 90.9369 80.2716C89.0503 82.7249 88.0738 85.7871 88.1873 88.8936C88.4304 95.575 94.2651 101.443 100.928 101.708C101.111 101.715 101.293 101.719 101.474 101.719C104.926 101.719 108.176 100.411 110.675 98.0025C113.307 95.4664 114.756 92.0545 114.756 88.3952C114.756 85.4679 113.826 82.6907 112.067 80.3642C111.259 79.2935 110.831 78.042 110.831 76.7446C110.831 76.1674 111.209 75.6493 111.77 75.4558C114.302 74.5829 116.432 73.3788 117.93 71.9739C119.424 70.5735 120.303 68.9688 120.505 67.2939H127.563C129.067 67.2939 130.478 66.7068 131.536 65.6429C132.598 64.5783 133.183 63.1631 133.183 61.6582C133.183 58.5504 130.662 56.0223 127.563 56.0223ZM107.259 42.8184C106.221 40.6574 104.015 39.1621 101.468 39.1621C98.9413 39.1621 96.7516 40.633 95.7036 42.7653C90.3903 40.459 86.9203 35.2409 86.9203 29.3161C86.9203 21.2285 93.4825 14.6489 101.549 14.6489C109.615 14.6489 116.177 21.2285 116.177 29.3161C116.177 35.208 112.58 40.5461 107.259 42.8184ZM104.609 45.602V56.0204H98.3269V45.602C98.3269 43.8654 99.7357 42.4529 101.468 42.4529C103.2 42.4529 104.609 43.8654 104.609 45.602ZM79.58 29.3161C79.58 17.1704 89.4351 7.28901 101.549 7.28901C113.662 7.28901 123.517 17.1704 123.517 29.3161C123.517 39.0772 117.056 47.6443 107.89 50.4099V46.1096C111.019 44.9169 113.808 42.8322 115.838 40.1425C118.207 37.0048 119.459 33.2613 119.459 29.3163C119.459 19.4143 111.424 11.3586 101.549 11.3586C91.6731 11.3586 83.6385 19.4143 83.6385 29.3163C83.6385 33.2297 84.8722 36.9493 87.2061 40.0727C89.2047 42.7477 91.9556 44.8355 95.0453 46.0486V50.3599C85.9734 47.5408 79.58 38.998 79.58 29.3161ZM44.431 29.8456C45.3512 29.5265 46.1365 28.9438 46.7045 28.1576C47.2779 27.3597 47.5811 26.4221 47.5811 25.4459C47.5811 23.4262 46.925 21.4602 45.7332 19.9097C44.3135 18.0634 43.5788 15.7576 43.6644 13.4169C43.8473 8.3874 48.2395 3.96992 53.2557 3.77051C56.0091 3.66017 58.6173 4.65194 60.598 6.56069C62.58 8.47054 63.6713 11.04 63.6713 13.7956C63.6713 15.9991 62.9719 18.0891 61.6484 19.8399C60.4219 21.4635 59.7465 23.4545 59.7465 25.4462C59.7465 27.4277 61.0135 29.1961 62.8997 29.8467C66.1448 30.9655 68.4035 32.6139 69.1739 34.346C69.0726 34.3322 68.9717 34.318 68.8693 34.3072C58.7794 33.2444 48.5478 33.2444 38.4581 34.3072C38.3565 34.318 38.2563 34.3322 38.1557 34.3458C38.9265 32.6137 41.1848 30.9653 44.431 29.8456ZM39.1597 45.6182C36.8837 45.754 34.7253 46.3185 32.761 47.2308C32.8229 46.042 32.8897 44.8539 32.9616 43.6761C33.1581 40.479 35.614 37.9152 38.8011 37.5796C48.6633 36.5406 58.6646 36.5406 68.5267 37.5796C71.7138 37.9152 74.1697 40.479 74.3662 43.6757C74.4384 44.8566 74.5054 46.0486 74.5675 47.2416C72.5861 46.3182 70.4227 45.7525 68.169 45.6182C58.5442 45.0446 48.7843 45.0446 39.1597 45.6182ZM110.702 72.3438C108.817 72.9942 107.55 74.7628 107.55 76.7444C107.55 78.7358 108.225 80.7268 109.452 82.3513C110.775 84.1017 111.474 86.1914 111.474 88.395C111.474 91.1507 110.383 93.72 108.401 95.6298C106.42 97.5386 103.817 98.529 101.058 98.4198C96.0423 98.2204 91.6499 93.8029 91.467 88.7732C91.3814 86.4325 92.1164 84.1267 93.5363 82.2802C94.7276 80.7299 95.3838 78.7637 95.3838 76.7444C95.3838 75.7682 95.0805 74.8304 94.5047 74.0297C93.9389 73.2465 93.1534 72.6636 92.2306 72.3436C88.6442 71.1065 86.2627 69.2223 85.7649 67.2934H117.17C116.673 69.2226 114.29 71.1068 110.702 72.3438Z" fill="#3B5974"/>
<path d="M105.344 90.4158C104.562 90.8749 104.299 91.8829 104.757 92.6669C105.063 93.1898 105.611 93.4809 106.175 93.4809C106.456 93.4809 106.742 93.4081 107.002 93.2552L107.084 93.2076C107.866 92.7485 108.128 91.7405 107.67 90.9565C107.213 90.1723 106.208 89.9091 105.425 90.368L105.344 90.4158Z" fill="white"/>
<path d="M108.496 89.6929C108.777 89.6929 109.063 89.6201 109.323 89.4672L109.404 89.4196C110.186 88.9605 110.449 87.9525 109.991 87.1685C109.533 86.3843 108.528 86.1209 107.746 86.58L107.665 86.6276C106.883 87.0867 106.62 88.0947 107.078 88.8787C107.384 89.4016 107.932 89.6929 108.496 89.6929Z" fill="white"/>
<path d="M103.927 89.6351C104.209 89.6351 104.494 89.5623 104.755 89.4094L104.836 89.3618C105.618 88.9027 105.881 87.8947 105.423 87.1107C104.965 86.3265 103.96 86.0632 103.178 86.5222L103.097 86.5697C102.315 87.0289 102.052 88.0368 102.51 88.8208C102.815 89.3438 103.364 89.6351 103.927 89.6351Z" fill="white"/>
<path d="M58.8132 13.9298L58.8125 14.0241C58.8064 14.9327 59.536 15.6744 60.4422 15.6805H60.4536C61.3545 15.6805 62.0881 14.9514 62.0942 14.0465L62.0949 13.9522C62.101 13.0436 61.3714 12.3019 60.4652 12.2958C60.4613 12.2958 60.4575 12.2958 60.4538 12.2958C59.5529 12.2958 58.8195 13.0249 58.8132 13.9298Z" fill="white"/>
<path d="M58.3831 11.7446H58.3945C59.2954 11.7446 60.029 11.0154 60.0351 10.1106L60.0358 10.0163C60.0419 9.10766 59.3123 8.36601 58.4061 8.35986C58.4022 8.35986 58.3985 8.35986 58.3947 8.35986C57.4938 8.35986 56.7602 9.08902 56.7541 9.99388L56.7535 10.0882C56.7473 10.9968 57.477 11.7385 58.3831 11.7446Z" fill="white"/>
<path d="M55.9974 15.6494H56.0088C56.9097 15.6494 57.6433 14.9202 57.6494 14.0154L57.6501 13.921C57.6562 13.0124 56.9266 12.2708 56.0204 12.2646C56.0164 12.2646 56.0127 12.2646 56.009 12.2646C55.1081 12.2646 54.3745 12.9938 54.3684 13.8987L54.3677 13.993C54.3618 14.9018 55.0914 15.6432 55.9974 15.6494Z" fill="white"/>
</svg>
