<svg width="98" height="80" viewBox="0 0 98 80" fill="none" xmlns="http://www.w3.org/2000/svg">
<g id="Frame" clip-path="url(#clip0_3_7306)">
<path id="Vector" d="M57.9571 28.435H72.7098C72.9893 28.435 73.2573 28.3399 73.4549 28.1706C73.6525 28.0013 73.7635 27.7717 73.7635 27.5323V24.0719C73.7635 23.8325 73.6525 23.6029 73.4549 23.4336C73.2573 23.2644 72.9893 23.1693 72.7098 23.1693H57.9571C57.6776 23.1693 57.4096 23.2644 57.212 23.4336C57.0143 23.6029 56.9033 23.8325 56.9033 24.0719V27.5323C56.9033 27.7717 57.0143 28.0013 57.212 28.1706C57.4096 28.3399 57.6776 28.435 57.9571 28.435ZM64.104 24.9746H71.656V26.6296H64.104V24.9746ZM59.0108 24.9746H61.9965V26.6296H59.0108V24.9746Z" fill="url(#paint0_linear_3_7306)"/>
<path id="Vector_2" d="M57.9069 36.8602H76.975C77.2412 36.8602 77.4964 36.7461 77.6846 36.5429C77.8729 36.3398 77.9786 36.0643 77.9786 35.777V31.6246C77.9786 31.3373 77.8729 31.0617 77.6846 30.8586C77.4964 30.6554 77.2412 30.5413 76.975 30.5413H57.9069C57.6407 30.5413 57.3855 30.6554 57.1973 30.8586C57.0091 31.0617 56.9033 31.3373 56.9033 31.6246V35.777C56.9033 36.0643 57.0091 36.3398 57.1973 36.5429C57.3855 36.7461 57.6407 36.8602 57.9069 36.8602ZM63.7611 32.7078H75.9714V34.6937H63.7611V32.7078ZM58.9105 32.7078H61.754V34.6937H58.9105V32.7078Z" fill="url(#paint1_linear_3_7306)"/>
<path id="Vector_3" d="M57.9571 45.2854H72.7098C72.9893 45.2854 73.2573 45.1903 73.4549 45.021C73.6525 44.8517 73.7635 44.6221 73.7635 44.3827V40.9224C73.7635 40.6829 73.6525 40.4533 73.4549 40.284C73.2573 40.1148 72.9893 40.0197 72.7098 40.0197H57.9571C57.6776 40.0197 57.4096 40.1148 57.212 40.284C57.0143 40.4533 56.9033 40.6829 56.9033 40.9224V44.3827C56.9033 44.6221 57.0143 44.8517 57.212 45.021C57.4096 45.1903 57.6776 45.2854 57.9571 45.2854ZM64.104 41.8251H71.656V43.48H64.104V41.8251ZM59.0108 41.8251H61.9965V43.48H59.0108V41.8251Z" fill="url(#paint2_linear_3_7306)"/>
<path id="Vector_4" d="M57.9389 53.7106H75.8892C76.1639 53.7106 76.4273 53.5965 76.6215 53.3933C76.8157 53.1902 76.9248 52.9147 76.9248 52.6274V48.475C76.9248 48.1877 76.8157 47.9121 76.6215 47.709C76.4273 47.5058 76.1639 47.3917 75.8892 47.3917H57.9389C57.6643 47.3917 57.4009 47.5058 57.2066 47.709C57.0124 47.9121 56.9033 48.1877 56.9033 48.475V52.6274C56.9033 52.9147 57.0124 53.1902 57.2066 53.3933C57.4009 53.5965 57.6643 53.7106 57.9389 53.7106ZM63.9799 49.5582H74.8536V51.5441H63.9799V49.5582ZM58.9745 49.5582H61.9087V51.5441H58.9745V49.5582Z" fill="url(#paint3_linear_3_7306)"/>
<path id="Vector_5" d="M13.6926 60.0276H46.3685C46.6298 60.0434 46.8869 59.958 47.0833 59.7904C47.2797 59.6228 47.3993 59.3865 47.416 59.1335C47.4203 59.084 47.4203 59.0343 47.416 58.9848L44.8496 29.576C44.8283 29.3274 44.713 29.0951 44.5259 28.9236C44.3388 28.7521 44.0929 28.6534 43.8353 28.6464L36.3285 28.5974V26.1196C36.3324 25.1813 36.145 24.2515 35.7772 23.3834C35.4094 22.5152 34.8683 21.7259 34.185 21.0606C33.5016 20.3952 32.6894 19.8669 31.7948 19.5059C30.9002 19.1448 29.9409 18.9582 28.9717 18.9567H28.9385C24.8569 18.9567 21.4735 22.168 21.4735 26.1263V28.5906H16.2589C15.9974 28.5862 15.7439 28.6779 15.5495 28.8473C15.3552 29.0167 15.2343 29.2511 15.2114 29.5033L12.6486 59.0135C12.6366 59.1469 12.6549 59.2813 12.7023 59.4071C12.7496 59.533 12.8249 59.6473 12.9227 59.742C13.0229 59.8395 13.1434 59.9153 13.2761 59.9646C13.4087 60.0138 13.5507 60.0353 13.6926 60.0276ZM42.9467 31.1647L45.1813 56.8163L42.9467 55.067V31.1647ZM43.4006 57.9994H40.2687L41.8923 56.8163L43.4006 57.9994ZM40.8518 55.1667L38.4705 56.8957L40.8518 33.4126V55.1667ZM23.5685 26.1263C23.5685 23.2919 26.0126 20.9866 28.9455 20.9849C29.6383 20.9855 30.3242 21.1183 30.9641 21.3756C31.6039 21.6329 32.1851 22.0097 32.6745 22.4844C33.1639 22.9592 33.552 23.5226 33.8165 24.1426C34.081 24.7625 34.2167 25.4269 34.2161 26.0976V28.5906H23.5667L23.5685 26.1263ZM17.2225 30.6188H21.4735V33.8724C21.4735 34.1413 21.5839 34.3992 21.7803 34.5894C21.9768 34.7796 22.2432 34.8864 22.521 34.8864C22.7988 34.8864 23.0653 34.7796 23.2617 34.5894C23.4581 34.3992 23.5685 34.1413 23.5685 33.8724V30.6188H34.2178V33.8724C34.2178 34.1413 34.3282 34.3992 34.5246 34.5894C34.721 34.7796 34.9875 34.8864 35.2653 34.8864C35.5431 34.8864 35.8095 34.7796 36.0059 34.5894C36.2024 34.3992 36.3127 34.1413 36.3127 33.8724V30.6188H38.9646L36.8487 51.4078H15.4087L17.2225 30.6188ZM15.2324 53.436H36.6427L36.1766 57.9994H14.8326L15.2324 53.436Z" fill="url(#paint4_linear_3_7306)"/>
<path id="Vector_6" d="M77.3745 0H7.98033C5.86381 0 3.83399 0.809769 2.33738 2.25117C0.840783 3.69256 0 5.64752 0 7.68596V61.8219C0 63.8603 0.840783 65.8153 2.33738 67.2567C3.83399 68.6981 5.86381 69.5078 7.98033 69.5078H77.3745C79.491 69.5078 81.5209 68.6981 83.0175 67.2567C84.5141 65.8153 85.3548 63.8603 85.3548 61.8219V7.68596C85.3548 5.64752 84.5141 3.69256 83.0175 2.25117C81.5209 0.809769 79.491 0 77.3745 0ZM2.08183 7.71604C2.08271 6.20685 2.70346 4.75928 3.80856 3.68931C4.91366 2.61934 6.41337 2.01386 7.98033 2.00503H27.4107V7.49715C27.4137 7.9585 27.3221 8.41588 27.1414 8.84312C26.9606 9.27035 26.6941 9.65906 26.3571 9.98699C26.0202 10.3149 25.6194 10.5756 25.1777 10.7542C24.7361 10.9328 24.2621 11.0257 23.7831 11.0277H2.08183V7.71604ZM83.273 61.7918C83.2721 63.301 82.6514 64.7485 81.5463 65.8185C80.4412 66.8885 78.9415 67.494 77.3745 67.5028H7.98033C6.41337 67.494 4.91366 66.8885 3.80856 65.8185C2.70346 64.7485 2.08271 63.301 2.08183 61.7918V13.0327H83.273V61.7918ZM83.273 11.0277H28.1896C29.0448 10.0368 29.5066 8.78555 29.4925 7.49715V2.00503H77.3745C78.9415 2.01386 80.4412 2.61934 81.5463 3.68931C82.6514 4.75928 83.2721 6.20685 83.273 7.71604V11.0277Z" fill="url(#paint5_linear_3_7306)"/>
<path id="Vector_7" d="M9.47621 5.26578C9.26802 5.26807 9.06495 5.36276 8.89262 5.5379C8.7203 5.71304 8.58644 5.96078 8.50794 6.24985C8.42945 6.53893 8.40983 6.85639 8.45157 7.16216C8.49331 7.46793 8.59453 7.74832 8.74246 7.96794C8.89039 8.18755 9.0784 8.33655 9.28277 8.39614C9.48713 8.45572 9.69869 8.42322 9.89075 8.30273C10.0828 8.18224 10.2467 7.97916 10.3619 7.71913C10.477 7.45909 10.5382 7.15375 10.5377 6.84164C10.5372 6.63361 10.5093 6.42777 10.4557 6.23591C10.402 6.04405 10.3236 5.86995 10.225 5.72356C10.1264 5.57718 10.0095 5.46139 9.88104 5.38284C9.75255 5.30429 9.61498 5.26451 9.47621 5.26578Z" fill="url(#paint6_linear_3_7306)"/>
<path id="Vector_8" d="M14.2257 5.26575C13.913 5.26575 13.6074 5.3584 13.3475 5.53198C13.0876 5.70556 12.885 5.95228 12.7653 6.24094C12.6457 6.52959 12.6144 6.84722 12.6754 7.15366C12.7364 7.4601 12.8869 7.74158 13.108 7.9625C13.329 8.18343 13.6107 8.33388 13.9173 8.39484C14.2239 8.45579 14.5417 8.42451 14.8306 8.30494C15.1194 8.18538 15.3662 7.9829 15.5399 7.72312C15.7136 7.46333 15.8063 7.15791 15.8063 6.84547C15.8063 6.4265 15.6398 6.02469 15.3433 5.72844C15.0469 5.43218 14.6449 5.26575 14.2257 5.26575Z" fill="url(#paint7_linear_3_7306)"/>
<path id="Vector_9" d="M20.5484 5.26575C20.2358 5.26575 19.9302 5.3584 19.6703 5.53198C19.4103 5.70556 19.2077 5.95228 19.0881 6.24094C18.9685 6.52959 18.9372 6.84722 18.9981 7.15366C19.0591 7.4601 19.2097 7.74158 19.4307 7.9625C19.6518 8.18343 19.9334 8.33388 20.2401 8.39484C20.5467 8.45579 20.8645 8.42451 21.1533 8.30494C21.4421 8.18538 21.689 7.9829 21.8627 7.72312C22.0364 7.46333 22.1291 7.15791 22.1291 6.84547C22.1291 6.4265 21.9625 6.02469 21.6661 5.72844C21.3697 5.43218 20.9676 5.26575 20.5484 5.26575Z" fill="url(#paint8_linear_3_7306)"/>
<path id="Vector_10" d="M6.32281 18.9567C6.60228 18.9567 6.87031 18.8341 7.06793 18.6158C7.26555 18.3976 7.37657 18.1016 7.37657 17.793V16.9609C7.37657 16.6523 7.26555 16.3563 7.06793 16.1381C6.87031 15.9198 6.60228 15.7972 6.32281 15.7972C6.04333 15.7972 5.7753 15.9198 5.57768 16.1381C5.38006 16.3563 5.26904 16.6523 5.26904 16.9609V17.793C5.26904 18.1016 5.38006 18.3976 5.57768 18.6158C5.7753 18.8341 6.04333 18.9567 6.32281 18.9567Z" fill="url(#paint9_linear_3_7306)"/>
<path id="Vector_11" d="M6.32281 37.9134C6.60228 37.9134 6.87031 37.8086 7.06793 37.622C7.26555 37.4355 7.37657 37.1825 7.37657 36.9187V21.0045C7.37657 20.7407 7.26555 20.4877 7.06793 20.3011C6.87031 20.1146 6.60228 20.0098 6.32281 20.0098C6.04333 20.0098 5.7753 20.1146 5.57768 20.3011C5.38006 20.4877 5.26904 20.7407 5.26904 21.0045V36.9187C5.26904 37.1825 5.38006 37.4355 5.57768 37.622C5.7753 37.8086 6.04333 37.9134 6.32281 37.9134Z" fill="url(#paint10_linear_3_7306)"/>
</g>
<defs>
<linearGradient id="paint0_linear_3_7306" x1="56.9033" y1="17.8323" x2="76.1535" y2="28.4374" gradientUnits="userSpaceOnUse">
<stop stop-color="#009DF5"/>
<stop offset="1" stop-color="#3CC4FF"/>
</linearGradient>
<linearGradient id="paint1_linear_3_7306" x1="56.9033" y1="24.137" x2="80.4987" y2="37.6775" gradientUnits="userSpaceOnUse">
<stop stop-color="#009DF5"/>
<stop offset="1" stop-color="#3CC4FF"/>
</linearGradient>
<linearGradient id="paint2_linear_3_7306" x1="56.9033" y1="34.6828" x2="76.1535" y2="45.2878" gradientUnits="userSpaceOnUse">
<stop stop-color="#009DF5"/>
<stop offset="1" stop-color="#3CC4FF"/>
</linearGradient>
<linearGradient id="paint3_linear_3_7306" x1="56.9033" y1="40.9874" x2="79.8738" y2="53.5102" gradientUnits="userSpaceOnUse">
<stop stop-color="#009DF5"/>
<stop offset="1" stop-color="#3CC4FF"/>
</linearGradient>
<linearGradient id="paint4_linear_3_7306" x1="12.645" y1="-22.6712" x2="63.3231" y2="-15.2888" gradientUnits="userSpaceOnUse">
<stop stop-color="#009DF5"/>
<stop offset="1" stop-color="#3CC4FF"/>
</linearGradient>
<linearGradient id="paint5_linear_3_7306" x1="-8.67408e-07" y1="-70.4471" x2="121.603" y2="-44.7542" gradientUnits="userSpaceOnUse">
<stop stop-color="#009DF5"/>
<stop offset="1" stop-color="#3CC4FF"/>
</linearGradient>
<linearGradient id="paint6_linear_3_7306" x1="8.43018" y1="2.06361" x2="11.526" y2="2.41892" gradientUnits="userSpaceOnUse">
<stop stop-color="#009DF5"/>
<stop offset="1" stop-color="#3CC4FF"/>
</linearGradient>
<linearGradient id="paint7_linear_3_7306" x1="12.645" y1="2.06361" x2="17.2145" y2="2.85027" gradientUnits="userSpaceOnUse">
<stop stop-color="#009DF5"/>
<stop offset="1" stop-color="#3CC4FF"/>
</linearGradient>
<linearGradient id="paint8_linear_3_7306" x1="18.9678" y1="2.06361" x2="23.5372" y2="2.85027" gradientUnits="userSpaceOnUse">
<stop stop-color="#009DF5"/>
<stop offset="1" stop-color="#3CC4FF"/>
</linearGradient>
<linearGradient id="paint9_linear_3_7306" x1="5.26904" y1="12.5951" x2="8.36484" y2="12.9504" gradientUnits="userSpaceOnUse">
<stop stop-color="#009DF5"/>
<stop offset="1" stop-color="#3CC4FF"/>
</linearGradient>
<linearGradient id="paint10_linear_3_7306" x1="5.26904" y1="1.86436" x2="8.40433" y2="1.92786" gradientUnits="userSpaceOnUse">
<stop stop-color="#009DF5"/>
<stop offset="1" stop-color="#3CC4FF"/>
</linearGradient>
<clipPath id="clip0_3_7306">
<rect width="98" height="80" fill="white"/>
</clipPath>
</defs>
</svg>
