<svg width="82" height="81" viewBox="0 0 82 81" fill="none" xmlns="http://www.w3.org/2000/svg">
<g id="Frame" clip-path="url(#clip0_3_7326)">
<path id="Vector" d="M11.3449 36.72H20.9165C21.1078 36.72 21.2972 36.6832 21.474 36.6118C21.6507 36.5404 21.8113 36.4357 21.9465 36.3037C22.0818 36.1718 22.1891 36.0151 22.2623 35.8427C22.3355 35.6703 22.3732 35.4855 22.3732 35.2988V32.146C22.3732 31.8872 22.2678 31.6391 22.0803 31.4561C21.8928 31.2732 21.6384 31.1704 21.3732 31.1704C21.108 31.1704 20.8536 31.2732 20.6661 31.4561C20.4785 31.6391 20.3732 31.8872 20.3732 32.146V34.772H11.8882V26.5037H16.1315C16.3967 26.5037 16.6511 26.4009 16.8386 26.218C17.0262 26.035 17.1315 25.7868 17.1315 25.5281C17.1315 25.2694 17.0262 25.0212 16.8386 24.8382C16.6511 24.6553 16.3967 24.5525 16.1315 24.5525H11.3465C10.9612 24.5525 10.5915 24.7013 10.3183 24.9663C10.045 25.2314 9.89039 25.5912 9.88818 25.9671V35.2923C9.88862 35.6691 10.0422 36.0303 10.3153 36.2967C10.5884 36.5632 10.9587 36.713 11.3449 36.7135V36.72Z" fill="url(#paint0_linear_3_7326)"/>
<path id="Vector_2" d="M23.1998 24.0046C23.0988 23.9227 22.9822 23.861 22.8568 23.8231C22.7313 23.7851 22.5995 23.7716 22.4687 23.7834C22.3379 23.7952 22.2108 23.832 22.0946 23.8917C21.9784 23.9514 21.8754 24.0329 21.7914 24.1314L17.0214 29.7233L15.4898 28.5152C15.2847 28.3582 15.0249 28.2856 14.7657 28.3128C14.5066 28.3399 14.2685 28.4647 14.1023 28.6606C13.9361 28.8565 13.8548 29.108 13.8758 29.3614C13.8968 29.6149 14.0184 29.8503 14.2148 30.0176L14.2331 30.0323L16.0664 31.4843C16.3687 31.727 16.7524 31.852 17.1435 31.8352C17.5346 31.8184 17.9056 31.661 18.1848 31.3932L18.2248 31.3558L23.3331 25.3802C23.4173 25.2816 23.4808 25.1678 23.5198 25.0453C23.5588 24.9227 23.5727 24.7939 23.5607 24.6661C23.5486 24.5383 23.5108 24.4141 23.4494 24.3006C23.3881 24.1871 23.3044 24.0865 23.2031 24.0046H23.1998Z" fill="url(#paint1_linear_3_7326)"/>
<path id="Vector_3" d="M71.6832 25.2322H32.6665C32.4013 25.2322 32.1469 25.335 31.9594 25.518C31.7719 25.701 31.6665 25.9491 31.6665 26.2078C31.6665 26.4666 31.7719 26.7147 31.9594 26.8977C32.1469 27.0807 32.4013 27.1835 32.6665 27.1835H71.6832C71.9484 27.1835 72.2027 27.0807 72.3903 26.8977C72.5778 26.7147 72.6832 26.4666 72.6832 26.2078C72.6832 25.9491 72.5778 25.701 72.3903 25.518C72.2027 25.335 71.9484 25.2322 71.6832 25.2322Z" fill="url(#paint2_linear_3_7326)"/>
<path id="Vector_4" d="M71.6832 33.3152H32.6665C32.4013 33.3152 32.1469 33.418 31.9594 33.6009C31.7719 33.7839 31.6665 34.032 31.6665 34.2908C31.6665 34.5495 31.7719 34.7977 31.9594 34.9807C32.1469 35.1636 32.4013 35.2664 32.6665 35.2664H71.6832C71.9484 35.2664 72.2027 35.1636 72.3903 34.9807C72.5778 34.7977 72.6832 34.5495 72.6832 34.2908C72.6832 34.032 72.5778 33.7839 72.3903 33.6009C72.2027 33.418 71.9484 33.3152 71.6832 33.3152Z" fill="url(#paint3_linear_3_7326)"/>
<path id="Vector_5" d="M21.3732 51.8436C21.108 51.8436 20.8536 51.9464 20.6661 52.1293C20.4785 52.3123 20.3732 52.5605 20.3732 52.8192V55.4468H11.8882V47.1818H16.1315C16.3967 47.1818 16.6511 47.079 16.8386 46.8961C17.0262 46.7131 17.1315 46.4649 17.1315 46.2062C17.1315 45.9475 17.0262 45.6993 16.8386 45.5163C16.6511 45.3334 16.3967 45.2306 16.1315 45.2306H11.3465C10.96 45.2306 10.5894 45.3803 10.3159 45.6467C10.0425 45.9132 9.88863 46.2747 9.88818 46.6517V55.9769C9.88906 56.3536 10.0428 56.7146 10.3158 56.9809C10.5888 57.2472 10.9588 57.3972 11.3449 57.3981H20.9165C21.3027 57.3976 21.673 57.2478 21.946 56.9814C22.2191 56.7149 22.3727 56.3537 22.3732 55.9769V52.8192C22.3732 52.5605 22.2678 52.3123 22.0803 52.1293C21.8928 51.9464 21.6384 51.8436 21.3732 51.8436Z" fill="url(#paint4_linear_3_7326)"/>
<path id="Vector_6" d="M23.2001 44.6826C22.9963 44.5171 22.7335 44.4372 22.4694 44.4607C22.2052 44.4842 21.9615 44.609 21.7918 44.8078L17.0218 50.3997L15.5001 49.1932C15.3989 49.1115 15.2821 49.0501 15.1566 49.0124C15.031 48.9748 14.8991 48.9616 14.7683 48.9737C14.6375 48.9858 14.5105 49.0229 14.3944 49.0828C14.2783 49.1428 14.1755 49.2245 14.0918 49.3233C14.008 49.422 13.9451 49.5359 13.9065 49.6584C13.8679 49.7809 13.8544 49.9096 13.8668 50.0372C13.8791 50.1648 13.9172 50.2888 13.9786 50.402C14.0401 50.5153 14.1239 50.6156 14.2251 50.6973L14.2418 50.7103L16.0751 52.1623C16.3774 52.4051 16.761 52.5301 17.1522 52.5133C17.5433 52.4964 17.9142 52.339 18.1934 52.0713L18.2334 52.0322L23.3334 46.0566C23.5032 45.8578 23.585 45.6014 23.5609 45.3437C23.5369 45.086 23.4089 44.8482 23.2051 44.6826H23.2001Z" fill="url(#paint5_linear_3_7326)"/>
<path id="Vector_7" d="M71.6831 45.9102H63.5581C63.2929 45.9102 63.0385 46.013 62.851 46.196C62.6635 46.3789 62.5581 46.6271 62.5581 46.8858C62.5581 47.1446 62.6635 47.3927 62.851 47.5757C63.0385 47.7586 63.2929 47.8614 63.5581 47.8614H71.6831C71.9483 47.8614 72.2027 47.7586 72.3902 47.5757C72.5777 47.3927 72.6831 47.1446 72.6831 46.8858C72.6831 46.6271 72.5777 46.3789 72.3902 46.196C72.2027 46.013 71.9483 45.9102 71.6831 45.9102Z" fill="url(#paint6_linear_3_7326)"/>
<path id="Vector_8" d="M45.3332 45.9102H32.6665C32.4013 45.9102 32.1469 46.013 31.9594 46.196C31.7719 46.3789 31.6665 46.6271 31.6665 46.8858C31.6665 47.1446 31.7719 47.3927 31.9594 47.5757C32.1469 47.7586 32.4013 47.8614 32.6665 47.8614H45.3332C45.5984 47.8614 45.8527 47.7586 46.0403 47.5757C46.2278 47.3927 46.3332 47.1446 46.3332 46.8858C46.3332 46.6271 46.2278 46.3789 46.0403 46.196C45.8527 46.013 45.5984 45.9102 45.3332 45.9102Z" fill="url(#paint7_linear_3_7326)"/>
<path id="Vector_9" d="M36.0782 53.9932H32.6665C32.4013 53.9932 32.1469 54.096 31.9594 54.2789C31.7719 54.4619 31.6665 54.71 31.6665 54.9688C31.6665 55.2275 31.7719 55.4757 31.9594 55.6586C32.1469 55.8416 32.4013 55.9444 32.6665 55.9444H36.0815C36.3467 55.9444 36.6011 55.8416 36.7886 55.6586C36.9761 55.4757 37.0815 55.2275 37.0815 54.9688C37.0815 54.71 36.9761 54.4619 36.7886 54.2789C36.6011 54.096 36.3467 53.9932 36.0815 53.9932H36.0782Z" fill="url(#paint8_linear_3_7326)"/>
<path id="Vector_10" d="M76.7267 0.438721H4.60667C3.3856 0.440011 2.21489 0.913709 1.35131 1.75592C0.487728 2.59814 0.00176447 3.74012 0 4.9314V63.2404C0.000879514 64.4305 0.485416 65.5717 1.34739 66.4139C2.20936 67.2561 3.37844 67.7304 4.59833 67.733L42.7383 67.9965L44.6667 75.3981L44.6783 75.4387C45.1148 76.8873 46.022 78.1582 47.2632 79.06C48.5044 79.9619 50.0124 80.4457 51.56 80.4387H65.5C67.404 80.4361 69.2292 79.6969 70.5753 78.383C71.9213 77.0692 72.6782 75.2882 72.68 73.4306V67.9509L76.7533 67.7347C77.9701 67.7265 79.1342 67.2496 79.9921 66.4077C80.8499 65.5659 81.332 64.4274 81.3333 63.2404V4.9314C81.3316 3.74012 80.8456 2.59814 79.982 1.75592C79.1184 0.913709 77.9477 0.440011 76.7267 0.438721ZM4.60667 2.38994H76.7267C77.4176 2.39037 78.0801 2.65822 78.5688 3.13469C79.0575 3.61117 79.3325 4.25735 79.3333 4.9314V14.8095H2V4.9314C2.00088 4.25735 2.27585 3.61117 2.76455 3.13469C3.25325 2.65822 3.91576 2.39037 4.60667 2.38994ZM70.6833 73.4306C70.682 74.7714 70.1355 76.0569 69.1637 77.0049C68.1919 77.953 66.8743 78.4862 65.5 78.4875H51.56C50.4487 78.493 49.3655 78.1476 48.4721 77.5028C47.5787 76.858 46.9231 75.9486 46.6033 74.9103L44.4867 66.7802C43.9885 64.8714 43.3239 63.0077 42.5 61.2095L42.3333 60.8306C43.3989 60.8306 44.4486 61.0831 45.3921 61.5663C46.3356 62.0495 47.1447 62.7489 47.75 63.6046L49.47 66.0355V69.6582C49.47 69.917 49.5754 70.1651 49.7629 70.3481C49.9504 70.5311 50.2048 70.6339 50.47 70.6339C50.7352 70.6339 50.9896 70.5311 51.1771 70.3481C51.3646 70.1651 51.47 69.917 51.47 69.6582V43.1428C51.4625 42.8972 51.5056 42.6527 51.5968 42.4237C51.6879 42.1947 51.8252 41.9858 52.0006 41.8095C52.176 41.6332 52.3859 41.4931 52.6178 41.3974C52.8498 41.3017 53.099 41.2524 53.3508 41.2524C53.6027 41.2524 53.8519 41.3017 54.0838 41.3974C54.3158 41.4931 54.5256 41.6332 54.701 41.8095C54.8764 41.9858 55.0138 42.1947 55.1049 42.4237C55.1961 42.6527 55.2392 42.8972 55.2317 43.1428V60.4615C55.2319 60.5568 55.2465 60.6516 55.275 60.7428V64.72C55.275 64.9788 55.3804 65.2269 55.5679 65.4099C55.7554 65.5928 56.0098 65.6956 56.275 65.6956C56.5402 65.6956 56.7946 65.5928 56.9821 65.4099C57.1696 65.2269 57.275 64.9788 57.275 64.72V59.2696C57.314 58.9102 57.488 58.5775 57.7634 58.3358C58.0388 58.094 58.3962 57.9602 58.7667 57.9602C59.1372 57.9602 59.4945 58.094 59.77 58.3358C60.0454 58.5775 60.2193 58.9102 60.2583 59.2696V60.3753C60.2317 60.5459 60.2183 60.7182 60.2183 60.8908V64.72C60.2183 64.9788 60.3237 65.2269 60.5112 65.4099C60.6988 65.5928 60.9531 65.6956 61.2183 65.6956H61.2583C61.5235 65.6956 61.7779 65.5928 61.9654 65.4099C62.153 65.2269 62.2583 64.9788 62.2583 64.72V60.5509C62.3485 60.1793 62.5748 59.8526 62.8946 59.6324C63.2144 59.4121 63.6057 59.3135 63.9948 59.3551C64.384 59.3966 64.7441 59.5755 65.0075 59.858C65.2709 60.1406 65.4194 60.5073 65.425 60.8891V65.7314C65.425 65.9902 65.5304 66.2383 65.7179 66.4213C65.9054 66.6042 66.1598 66.707 66.425 66.707C66.6902 66.707 66.9446 66.6042 67.1321 66.4213C67.3196 66.2383 67.425 65.9902 67.425 65.7314V62.4192C67.4206 61.9983 67.5877 61.5929 67.8897 61.2923C68.1916 60.9916 68.6036 60.8203 69.035 60.816C69.4664 60.8116 69.8819 60.9747 70.1901 61.2693C70.4983 61.5639 70.6739 61.9658 70.6783 62.3867V73.4306H70.6833ZM76.7283 65.7883H76.6667L72.6767 65.9997V62.4225C72.6776 61.7878 72.5033 61.1646 72.1722 60.6184C71.8411 60.0721 71.3653 59.6228 70.7949 59.3178C70.2245 59.0127 69.5804 58.8632 68.9302 58.8847C68.2801 58.9063 67.6479 59.0982 67.1 59.4403C66.7062 58.5916 65.983 57.9301 65.0895 57.6014C64.1959 57.2727 63.2052 57.3037 62.335 57.6875C62.2013 57.7461 62.0716 57.8129 61.9467 57.8875C61.574 57.0647 60.8816 56.42 60.0218 56.0953C59.1619 55.7705 58.2051 55.7923 57.3617 56.1558L57.225 56.2176V43.1428C57.2357 42.639 57.1432 42.1381 56.953 41.6696C56.7628 41.2011 56.4786 40.7744 56.1172 40.4144C55.7558 40.0544 55.3243 39.7684 54.8482 39.5732C54.372 39.3779 53.8607 39.2773 53.3442 39.2773C52.8277 39.2773 52.3163 39.3779 51.8402 39.5732C51.364 39.7684 50.9326 40.0544 50.5711 40.4144C50.2097 40.7744 49.9255 41.2011 49.7353 41.6696C49.5451 42.1381 49.4526 42.639 49.4633 43.1428V62.5997L49.39 62.4956C48.6013 61.3809 47.5472 60.4696 46.3181 59.8397C45.089 59.2098 43.7217 58.8803 42.3333 58.8794C41.9969 58.8769 41.6652 58.9572 41.369 59.113C41.0728 59.2688 40.8217 59.4949 40.639 59.7705C40.4562 60.0461 40.3476 60.3623 40.3233 60.6897C40.299 61.0171 40.3598 61.3452 40.5 61.6436L40.6667 62.0111C41.2669 63.3227 41.778 64.6714 42.1967 66.0485L4.60167 65.7883C3.91047 65.7866 3.24824 65.5173 2.76043 65.0395C2.27261 64.5618 1.99911 63.9147 2 63.2404V16.7607H79.3333V63.2404C79.3325 63.9146 79.0575 64.5609 78.5689 65.0376C78.0802 65.5144 77.4177 65.7826 76.7267 65.7834L76.7283 65.7883Z" fill="url(#paint9_linear_3_7326)"/>
<path id="Vector_11" d="M8.36654 12.216C9.1247 12.216 9.86584 11.9967 10.4962 11.5857C11.1266 11.1748 11.6179 10.5907 11.9081 9.90734C12.1982 9.22397 12.2741 8.47202 12.1262 7.74656C11.9783 7.0211 11.6132 6.35473 11.0771 5.8317C10.541 5.30868 9.85798 4.95249 9.11439 4.80819C8.37079 4.66389 7.60003 4.73795 6.89958 5.02101C6.19913 5.30407 5.60045 5.78341 5.17924 6.39842C4.75802 7.01344 4.5332 7.7365 4.5332 8.47617C4.5332 9.46803 4.93707 10.4193 5.65596 11.1206C6.37485 11.822 7.34987 12.216 8.36654 12.216ZM8.36654 6.68755C8.72914 6.68755 9.08359 6.79245 9.38508 6.98898C9.68657 7.18552 9.92156 7.46486 10.0603 7.79169C10.1991 8.11852 10.2354 8.47815 10.1646 8.82511C10.0939 9.17206 9.9193 9.49077 9.6629 9.74091C9.4065 9.99105 9.07984 10.1614 8.7242 10.2304C8.36857 10.2994 7.99995 10.264 7.66495 10.1286C7.32995 9.99326 7.04363 9.764 6.84218 9.46987C6.64073 9.17573 6.5332 8.82992 6.5332 8.47617C6.53365 8.00208 6.72699 7.54755 7.07076 7.21247C7.41453 6.87739 7.8806 6.68917 8.36654 6.68917V6.68755Z" fill="url(#paint10_linear_3_7326)"/>
<path id="Vector_12" d="M18.4715 12.216C19.2297 12.216 19.9708 11.9967 20.6012 11.5857C21.2316 11.1748 21.7229 10.5907 22.013 9.90734C22.3032 9.22397 22.3791 8.47202 22.2312 7.74656C22.0833 7.0211 21.7182 6.35473 21.1821 5.8317C20.646 5.30868 19.963 4.95249 19.2194 4.80819C18.4758 4.66389 17.705 4.73795 17.0046 5.02101C16.3041 5.30407 15.7054 5.78341 15.2842 6.39842C14.863 7.01344 14.6382 7.7365 14.6382 8.47617C14.6382 9.46803 15.0421 10.4193 15.7609 11.1206C16.4798 11.822 17.4549 12.216 18.4715 12.216ZM18.4715 6.68755C18.8341 6.68755 19.1886 6.79245 19.4901 6.98898C19.7915 7.18552 20.0265 7.46486 20.1653 7.79169C20.3041 8.11852 20.3404 8.47815 20.2696 8.82511C20.1989 9.17206 20.0243 9.49077 19.7679 9.74091C19.5115 9.99105 19.1848 10.1614 18.8292 10.2304C18.4735 10.2994 18.1049 10.264 17.7699 10.1286C17.4349 9.99326 17.1486 9.764 16.9472 9.46987C16.7457 9.17573 16.6382 8.82992 16.6382 8.47617C16.6386 8.00208 16.832 7.54755 17.1757 7.21247C17.5195 6.87739 17.9856 6.68917 18.4715 6.68917V6.68755Z" fill="url(#paint11_linear_3_7326)"/>
<path id="Vector_13" d="M28.578 12.216C29.3361 12.216 30.0773 11.9967 30.7076 11.5857C31.338 11.1748 31.8294 10.5907 32.1195 9.90734C32.4096 9.22397 32.4855 8.47202 32.3376 7.74656C32.1897 7.0211 31.8246 6.35473 31.2885 5.8317C30.7524 5.30868 30.0694 4.95249 29.3258 4.80819C28.5822 4.66389 27.8115 4.73795 27.111 5.02101C26.4106 5.30407 25.8119 5.78341 25.3907 6.39842C24.9694 7.01344 24.7446 7.7365 24.7446 8.47617C24.7446 9.46803 25.1485 10.4193 25.8674 11.1206C26.5863 11.822 27.5613 12.216 28.578 12.216ZM28.578 6.68755C28.9406 6.68755 29.295 6.79245 29.5965 6.98898C29.898 7.18552 30.133 7.46486 30.2717 7.79169C30.4105 8.11852 30.4468 8.47815 30.3761 8.82511C30.3053 9.17206 30.1307 9.49077 29.8743 9.74091C29.6179 9.99105 29.2913 10.1614 28.9356 10.2304C28.58 10.2994 28.2114 10.264 27.8764 10.1286C27.5414 9.99326 27.255 9.764 27.0536 9.46987C26.8522 9.17573 26.7446 8.82992 26.7446 8.47617C26.7451 8.00208 26.9384 7.54755 27.2822 7.21247C27.626 6.87739 28.092 6.68917 28.578 6.68917V6.68755Z" fill="url(#paint12_linear_3_7326)"/>
<path id="Vector_14" d="M43.5 9.26793H75.9883C76.2536 9.26793 76.5079 9.16514 76.6954 8.98218C76.883 8.79922 76.9883 8.55107 76.9883 8.29232C76.9883 8.03357 76.883 7.78542 76.6954 7.60246C76.5079 7.4195 76.2536 7.31671 75.9883 7.31671H43.5C43.2348 7.31671 42.9804 7.4195 42.7929 7.60246C42.6054 7.78542 42.5 8.03357 42.5 8.29232C42.5 8.55107 42.6054 8.79922 42.7929 8.98218C42.9804 9.16514 43.2348 9.26793 43.5 9.26793Z" fill="url(#paint13_linear_3_7326)"/>
</g>
<defs>
<linearGradient id="paint0_linear_3_7326" x1="9.88818" y1="12.2206" x2="27.9076" y2="15.4019" gradientUnits="userSpaceOnUse">
<stop stop-color="#009DF5"/>
<stop offset="1" stop-color="#3CC4FF"/>
</linearGradient>
<linearGradient id="paint1_linear_3_7326" x1="13.8726" y1="15.613" x2="27.7048" y2="18.4758" gradientUnits="userSpaceOnUse">
<stop stop-color="#009DF5"/>
<stop offset="1" stop-color="#3CC4FF"/>
</linearGradient>
<linearGradient id="paint2_linear_3_7326" x1="31.6665" y1="23.2547" x2="36.0015" y2="38.9338" gradientUnits="userSpaceOnUse">
<stop stop-color="#009DF5"/>
<stop offset="1" stop-color="#3CC4FF"/>
</linearGradient>
<linearGradient id="paint3_linear_3_7326" x1="31.6665" y1="31.3376" x2="36.0016" y2="47.0168" gradientUnits="userSpaceOnUse">
<stop stop-color="#009DF5"/>
<stop offset="1" stop-color="#3CC4FF"/>
</linearGradient>
<linearGradient id="paint4_linear_3_7326" x1="9.88818" y1="32.8987" x2="27.9076" y2="36.08" gradientUnits="userSpaceOnUse">
<stop stop-color="#009DF5"/>
<stop offset="1" stop-color="#3CC4FF"/>
</linearGradient>
<linearGradient id="paint5_linear_3_7326" x1="13.8623" y1="36.2897" x2="27.7084" y2="39.1582" gradientUnits="userSpaceOnUse">
<stop stop-color="#009DF5"/>
<stop offset="1" stop-color="#3CC4FF"/>
</linearGradient>
<linearGradient id="paint6_linear_3_7326" x1="62.5581" y1="43.9326" x2="70.943" y2="51.4189" gradientUnits="userSpaceOnUse">
<stop stop-color="#009DF5"/>
<stop offset="1" stop-color="#3CC4FF"/>
</linearGradient>
<linearGradient id="paint7_linear_3_7326" x1="31.6665" y1="43.9326" x2="39.8337" y2="54.4953" gradientUnits="userSpaceOnUse">
<stop stop-color="#009DF5"/>
<stop offset="1" stop-color="#3CC4FF"/>
</linearGradient>
<linearGradient id="paint8_linear_3_7326" x1="31.6665" y1="52.0156" x2="38.2292" y2="55.1492" gradientUnits="userSpaceOnUse">
<stop stop-color="#009DF5"/>
<stop offset="1" stop-color="#3CC4FF"/>
</linearGradient>
<linearGradient id="paint9_linear_3_7326" x1="-8.2654e-07" y1="-80.6424" x2="117.452" y2="-60.097" gradientUnits="userSpaceOnUse">
<stop stop-color="#009DF5"/>
<stop offset="1" stop-color="#3CC4FF"/>
</linearGradient>
<linearGradient id="paint10_linear_3_7326" x1="4.5332" y1="-2.84442" x2="15.5991" y2="-0.892838" gradientUnits="userSpaceOnUse">
<stop stop-color="#009DF5"/>
<stop offset="1" stop-color="#3CC4FF"/>
</linearGradient>
<linearGradient id="paint11_linear_3_7326" x1="14.6382" y1="-2.84442" x2="25.7041" y2="-0.892843" gradientUnits="userSpaceOnUse">
<stop stop-color="#009DF5"/>
<stop offset="1" stop-color="#3CC4FF"/>
</linearGradient>
<linearGradient id="paint12_linear_3_7326" x1="24.7446" y1="-2.84442" x2="35.8105" y2="-0.892844" gradientUnits="userSpaceOnUse">
<stop stop-color="#009DF5"/>
<stop offset="1" stop-color="#3CC4FF"/>
</linearGradient>
<linearGradient id="paint13_linear_3_7326" x1="42.5" y1="5.33912" x2="47.5082" y2="20.57" gradientUnits="userSpaceOnUse">
<stop stop-color="#009DF5"/>
<stop offset="1" stop-color="#3CC4FF"/>
</linearGradient>
<clipPath id="clip0_3_7326">
<rect width="81.3333" height="80" fill="white" transform="translate(0 0.438721)"/>
</clipPath>
</defs>
</svg>
