<svg width="82" height="81" viewBox="0 0 82 81" fill="none" xmlns="http://www.w3.org/2000/svg">
<g id="Frame" clip-path="url(#clip0_3_7349)">
<path id="Vector" d="M15.2616 55.3956C13.0642 55.3953 10.916 56.0173 9.08873 57.183C7.26148 58.3487 5.83723 60.0056 4.99608 61.9444C4.15494 63.8831 3.93469 66.0165 4.36318 68.0748C4.79167 70.1331 5.84967 72.0238 7.40336 73.5078C8.95706 74.9919 10.9367 76.0025 13.0918 76.4121C15.247 76.8216 17.4809 76.6116 19.5111 75.8086C21.5413 75.0055 23.2766 73.6456 24.4974 71.9007C25.7183 70.1559 26.3699 68.1044 26.3699 66.0058C26.3668 63.193 25.1955 60.4962 23.113 58.5071C21.0305 56.518 18.2069 55.399 15.2616 55.3956ZM15.2616 74.706C13.4597 74.7063 11.6982 74.1964 10.1999 73.2406C8.70152 72.2848 7.53361 70.9261 6.84384 69.3364C6.15407 67.7466 5.97343 65.9973 6.32475 64.3095C6.67607 62.6217 7.54358 61.0713 8.81757 59.8544C10.0916 58.6375 11.7148 57.8088 13.482 57.4729C15.2492 57.1371 17.081 57.3093 18.7458 57.9678C20.4105 58.6262 21.8334 59.7413 22.8345 61.1721C23.8356 62.6029 24.3699 64.285 24.3699 66.0058C24.3673 68.3122 23.4068 70.5234 21.6993 72.1544C19.9918 73.7855 17.6766 74.7031 15.2616 74.706Z" fill="url(#paint0_linear_3_7349)"/>
<path id="Vector_2" d="M15.2616 62.5598C15.6005 62.5602 15.9254 62.689 16.1651 62.9178C16.4047 63.1467 16.5395 63.457 16.54 63.7806C16.54 64.0339 16.6453 64.2768 16.8328 64.4559C17.0204 64.635 17.2747 64.7356 17.54 64.7356C17.6693 64.7352 17.7973 64.7105 17.9166 64.6628C18.036 64.6152 18.1443 64.5455 18.2355 64.4579C18.3266 64.3702 18.3988 64.2663 18.4479 64.152C18.497 64.0377 18.5221 63.9153 18.5216 63.7918V63.7806C18.5193 63.1153 18.2955 62.468 17.8827 61.9321C17.4698 61.3962 16.8893 60.9995 16.225 60.7994V60.4094C16.225 60.1561 16.1196 59.9132 15.9321 59.7341C15.7445 59.555 15.4902 59.4544 15.225 59.4544C14.9597 59.4544 14.7054 59.555 14.5178 59.7341C14.3303 59.9132 14.225 60.1561 14.225 60.4094V60.7994C13.5645 61.0011 12.9889 61.3992 12.5823 61.9356C12.1757 62.4719 11.9594 63.1185 11.965 63.7806C11.968 64.6115 12.3156 65.4073 12.9315 65.994C13.5474 66.5808 14.3817 66.9106 15.2516 66.9115C15.5828 66.9196 15.8978 67.0503 16.1301 67.2759C16.3624 67.5015 16.4939 67.8044 16.4969 68.1208C16.4999 68.4371 16.3742 68.7423 16.1463 68.9719C15.9183 69.2015 15.6059 69.3376 15.275 69.3515H15.245C14.9088 69.3474 14.5879 69.2169 14.3518 68.9884C14.1156 68.7599 13.9833 68.4518 13.9833 68.1307C13.9833 67.8774 13.8779 67.6345 13.6904 67.4554C13.5029 67.2763 13.2485 67.1757 12.9833 67.1757C12.7162 67.1752 12.4597 67.2752 12.2691 67.4539C12.0786 67.6326 11.9693 67.8757 11.965 68.1307C11.9593 68.7931 12.1756 69.4398 12.5822 69.9765C12.9888 70.5131 13.5644 70.9116 14.225 71.1135V71.6022C14.225 71.8555 14.3303 72.0984 14.5178 72.2775C14.7054 72.4566 14.9597 72.5572 15.225 72.5572C15.4902 72.5572 15.7445 72.4566 15.9321 72.2775C16.1196 72.0984 16.225 71.8555 16.225 71.6022V71.1135C16.9713 70.8901 17.6092 70.4189 18.0234 69.7853C18.4375 69.1516 18.6005 68.3973 18.4829 67.6589C18.3653 66.9204 17.9749 66.2465 17.3822 65.7591C16.7895 65.2717 16.0338 65.0029 15.2516 65.0014C14.9204 64.9889 14.6071 64.854 14.3779 64.6253C14.1486 64.3966 14.0212 64.0918 14.0225 63.7752C14.0238 63.4586 14.1537 63.1548 14.3848 62.9278C14.6159 62.7008 14.9303 62.5683 15.2616 62.5582V62.5598Z" fill="url(#paint1_linear_3_7349)"/>
<path id="Vector_3" d="M75.7255 45.0066V37.4301C75.7251 35.9364 75.1064 34.5034 74.0044 33.4434C72.9023 32.3835 71.4062 31.7826 69.8421 31.7717H68.0588V17.2411C68.0557 17.0921 68.0166 16.9458 67.9446 16.8136C67.8726 16.6814 67.7697 16.5668 67.6438 16.4787C67.5263 16.3894 67.3881 16.3283 67.2408 16.3006C67.0934 16.2729 66.9413 16.2794 66.7971 16.3195L61.3921 17.7934V4.81795C61.375 3.67742 60.8847 2.58998 60.0288 1.79438C59.1729 0.998782 58.0214 0.560049 56.8271 0.574504L32.0271 0.916718C31.0195 0.935335 30.0481 1.2796 29.2717 1.89332C28.4953 2.50704 27.9596 3.35397 27.7521 4.29588C26.7559 4.49889 25.8625 5.02175 25.2208 5.77736C24.5791 6.53297 24.2278 7.47572 24.2255 8.4486V27.8672L10.5138 31.8115L10.4871 31.8512C10.2742 31.9062 10.0854 32.0249 9.94833 32.1899C9.81125 32.3549 9.73315 32.5576 9.72548 32.7681V52.435C7.5948 53.2264 5.67773 54.4652 4.11612 56.0598C2.55451 57.6544 1.38832 59.5639 0.703855 61.6471C0.0193882 63.7302 -0.16584 65.9337 0.161875 68.0945C0.48959 70.2552 1.32186 72.318 2.5971 74.1301C3.87235 75.9421 5.55792 77.4572 7.52911 78.5631C9.50029 79.669 11.7066 80.3374 13.9849 80.519C16.2631 80.7005 18.5549 80.3905 20.6908 79.6118C22.8266 78.8332 24.7518 77.6059 26.3238 76.0207H69.8421C73.0838 76.0207 75.7255 73.4421 75.7255 70.3463V62.7698C77.1815 62.6357 78.5334 61.9898 79.5189 60.9574C80.5044 59.9251 81.0532 58.58 81.0588 57.183V50.5934C81.0532 49.1965 80.5044 47.8513 79.5189 46.819C78.5334 45.7866 77.1815 45.1407 75.7255 45.0066ZM61.3921 19.7783L66.0588 18.5049V31.7717H61.3921V19.7783ZM29.5588 5.16017C29.5708 4.54449 29.8326 3.9573 30.289 3.52232C30.7454 3.08735 31.3608 2.83854 32.0055 2.82834L56.8155 2.48453C57.4847 2.47336 58.1315 2.71472 58.6155 3.15623C58.8536 3.37041 59.0448 3.62756 59.1781 3.91279C59.3114 4.19803 59.3842 4.50569 59.3921 4.81795V31.7717H57.8921V8.44701C57.8841 8.19676 57.7755 7.95907 57.5888 7.78327L53.9622 4.2147C53.8672 4.12177 53.754 4.04765 53.629 3.99657C53.5041 3.9455 53.3697 3.91848 53.2338 3.91706H35.6038C35.4703 3.91902 35.3385 3.94651 35.2163 3.99791C35.094 4.0493 34.9838 4.12356 34.8921 4.21629L31.3705 7.67026C31.1823 7.84718 31.073 8.0867 31.0655 8.33877V31.7717H29.5655L29.5588 5.16017ZM44.4771 16.9833C41.5187 16.9832 38.6812 18.1044 36.5876 20.1006C34.494 22.0967 33.3153 24.8048 33.3105 27.6301C33.3062 29.0528 33.6075 30.4613 34.1955 31.7685H33.0588V8.72556L36.0271 5.82709H52.8105L55.8921 8.83538V31.7717H54.7605C55.3485 30.4644 55.6497 29.056 55.6455 27.6333C55.6406 24.8079 54.462 22.0999 52.3684 20.1038C50.2747 18.1076 47.4372 16.9864 44.4788 16.9864L44.4771 16.9833ZM53.6438 27.6237C53.6461 29.0724 53.2679 30.4986 52.5438 31.7717H36.4088C35.7536 30.6001 35.3864 29.3014 35.3351 27.9741C35.2838 26.6467 35.5496 25.3257 36.1126 24.1112C36.6755 22.8966 37.5207 21.8204 38.584 20.9643C39.6473 20.1082 40.9008 19.4946 42.2494 19.17C43.598 18.8455 45.0063 18.8185 46.3675 19.0912C47.7286 19.3639 49.0069 19.9291 50.1052 20.7439C51.2036 21.5586 52.0932 22.6016 52.7066 23.7936C53.32 24.9857 53.6411 26.2955 53.6455 27.6237H53.6438ZM26.2255 8.4486C26.2255 7.50791 26.7255 6.69774 27.5588 6.32369V31.7717H26.2255V8.4486ZM24.2255 29.8616V31.7717H17.4221L24.2255 29.8616ZM25.2955 74.23L24.9371 73.891C24.7493 73.7118 24.4946 73.6112 24.2291 73.6114C23.9635 73.6115 23.709 73.7124 23.5213 73.8918C23.3337 74.0712 23.2283 74.3145 23.2285 74.568C23.2287 74.8216 23.3343 75.0647 23.5221 75.2439L23.8638 75.5861C21.7319 77.3639 19.0491 78.4261 16.2255 78.6104V78.1217C16.2255 77.8684 16.1201 77.6255 15.9326 77.4464C15.745 77.2673 15.4907 77.1667 15.2255 77.1667C14.9603 77.1667 14.7059 77.2673 14.5184 77.4464C14.3308 77.6255 14.2255 77.8684 14.2255 78.1217V78.6104C11.4204 78.3958 8.75882 77.337 6.62381 75.5861L6.99048 75.2439C7.15477 75.0616 7.24096 74.8268 7.23184 74.5864C7.22272 74.346 7.11895 74.1178 6.94127 73.9473C6.7636 73.7768 6.5251 73.6766 6.27344 73.6668C6.02178 73.6569 5.7755 73.7382 5.58381 73.8942L5.22548 74.2316C3.39258 72.1831 2.28428 69.6339 2.05881 66.948H2.57214C2.83736 66.948 3.09171 66.8474 3.27925 66.6683C3.46679 66.4892 3.57214 66.2463 3.57214 65.993C3.57214 65.7397 3.46679 65.4968 3.27925 65.3177C3.09171 65.1386 2.83736 65.038 2.57214 65.038H2.05881C2.28489 62.3561 3.3933 59.8111 5.22548 57.7672L5.58548 58.1126C5.67839 58.2013 5.78869 58.2717 5.91008 58.3197C6.03147 58.3677 6.16158 58.3924 6.29298 58.3924C6.42437 58.3924 6.55448 58.3677 6.67587 58.3197C6.79727 58.2717 6.90757 58.2013 7.00048 58.1126C7.09339 58.0238 7.16709 57.9185 7.21737 57.8026C7.26765 57.6866 7.29353 57.5624 7.29353 57.4369C7.29353 57.3114 7.26765 57.1871 7.21737 57.0712C7.16709 56.9553 7.09339 56.8499 7.00048 56.7612L6.62381 56.419C8.75882 54.6682 11.4204 53.6093 14.2255 53.3948V53.8962C14.2255 54.1495 14.3308 54.3924 14.5184 54.5715C14.7059 54.7506 14.9603 54.8512 15.2255 54.8512C15.4907 54.8512 15.745 54.7506 15.9326 54.5715C16.1201 54.3924 16.2255 54.1495 16.2255 53.8962V53.4075C19.0487 53.5915 21.7311 54.6537 23.8621 56.4317L23.5121 56.7739C23.3247 56.9542 23.22 57.1982 23.2209 57.4522C23.2218 57.7062 23.3284 57.9495 23.5171 58.1285C23.7059 58.3075 23.9614 58.4075 24.2273 58.4066C24.4933 58.4057 24.7481 58.304 24.9355 58.1237L25.2938 57.7751C27.1265 59.8188 28.235 62.3639 28.4605 65.046H27.9471C27.6819 65.046 27.4276 65.1466 27.24 65.3257C27.0525 65.5048 26.9471 65.7477 26.9471 66.001C26.9471 66.2543 27.0525 66.4972 27.24 66.6763C27.4276 66.8554 27.6819 66.956 27.9471 66.956H28.4605C28.2357 69.642 27.1273 72.1914 25.2938 74.2396L25.2955 74.23ZM73.7255 70.3463C73.7255 72.3884 71.9821 74.1106 69.8421 74.1106H27.9255C29.6323 71.678 30.5316 68.8105 30.5059 65.8823C30.4802 62.9542 29.5308 60.1014 27.7815 57.6965C26.0323 55.2915 23.5644 53.446 20.7002 52.4009C17.8359 51.3559 14.7083 51.1597 11.7255 51.8381V33.6817H69.8421C70.8757 33.6918 71.8634 34.0909 72.5905 34.7925C73.3177 35.4941 73.7255 36.4414 73.7255 37.4285V44.9827H64.6405C63.0784 44.9818 61.5794 45.5715 60.4711 46.6228C59.3627 47.6741 58.7352 49.1016 58.7255 50.5934V57.1814C58.7343 58.6751 59.361 60.1049 60.469 61.1592C61.577 62.2135 63.0764 62.8067 64.6405 62.8096H73.7255V70.3463ZM79.0588 57.1942C79.0588 58.1769 78.65 59.1194 77.9224 59.8143C77.1947 60.5092 76.2079 60.8996 75.1788 60.8996H64.6055C63.5764 60.8996 62.5895 60.5092 61.8619 59.8143C61.1343 59.1194 60.7255 58.1769 60.7255 57.1942V50.5982C60.7255 49.6154 61.1343 48.6729 61.8619 47.978C62.5895 47.2831 63.5764 46.8927 64.6055 46.8927H75.1788C76.2079 46.8927 77.1947 47.2831 77.9224 47.978C78.65 48.6729 79.0588 49.6154 79.0588 50.5982V57.1942Z" fill="url(#paint2_linear_3_7349)"/>
<path id="Vector_4" d="M68.1167 50.5537H67.1734C65.2767 50.5537 63.7334 52.0849 63.7334 53.8963C63.7334 55.7076 65.2767 57.2388 67.1734 57.2388H68.1167C70.0134 57.2388 71.5551 55.7076 71.5551 53.8963C71.5551 52.0849 70.0134 50.5537 68.1167 50.5537ZM68.1167 55.3288H67.1734C66.7756 55.3288 66.394 55.1779 66.1127 54.9092C65.8314 54.6406 65.6734 54.2762 65.6734 53.8963C65.6734 53.5163 65.8314 53.152 66.1127 52.8833C66.394 52.6147 66.7756 52.4637 67.1734 52.4637H68.1167C68.5146 52.4637 68.8961 52.6147 69.1774 52.8833C69.4587 53.152 69.6167 53.5163 69.6167 53.8963C69.6167 54.2762 69.4587 54.6406 69.1774 54.9092C68.8961 55.1779 68.5146 55.3288 68.1167 55.3288Z" fill="url(#paint3_linear_3_7349)"/>
<path id="Vector_5" d="M50.2433 26.6783H49.8516C49.6449 26.0542 49.2336 25.51 48.6785 25.126C48.1234 24.742 47.4537 24.5385 46.7683 24.5455C45.9084 24.5476 45.0844 24.8751 44.4768 25.4562C43.8692 26.0374 43.5275 26.8248 43.5267 27.6461C43.5293 27.9606 43.401 28.2632 43.1701 28.4874C43.0557 28.5984 42.9195 28.6868 42.7694 28.7475C42.6192 28.8083 42.458 28.8402 42.295 28.8414C42.1319 28.8427 41.9702 28.8133 41.8191 28.7548C41.6679 28.6964 41.5303 28.6101 41.4141 28.5009C41.1793 28.2803 41.046 27.9797 41.0433 27.6652V27.6333C41.0473 27.3216 41.1796 27.0239 41.4117 26.8046C41.6437 26.5854 41.9569 26.4622 42.2833 26.4619C42.5496 26.4619 42.8051 26.3608 42.9934 26.181C43.1817 26.0011 43.2875 25.7572 43.2875 25.5029C43.2875 25.2485 43.1817 25.0046 42.9934 24.8247C42.8051 24.6449 42.5496 24.5439 42.2833 24.5439C41.5979 24.5371 40.9284 24.7409 40.3735 25.1252C39.8187 25.5096 39.4078 26.054 39.2017 26.6783H38.7017C38.4364 26.6783 38.1821 26.7789 37.9946 26.958C37.807 27.1371 37.7017 27.3801 37.7017 27.6333C37.7017 27.8866 37.807 28.1295 37.9946 28.3086C38.1821 28.4877 38.4364 28.5884 38.7017 28.5884H39.2017C39.4376 29.2905 39.9284 29.8891 40.5856 30.2762C41.2428 30.6634 42.0231 30.8137 42.786 30.7C43.549 30.5864 44.2443 30.2162 44.7468 29.6563C45.2493 29.0964 45.5258 28.3835 45.5267 27.6461C45.5273 27.4117 45.6007 27.1827 45.7375 26.9881C45.8744 26.7936 46.0685 26.6421 46.2955 26.5528C46.5224 26.4635 46.772 26.4405 47.0126 26.4866C47.2532 26.5327 47.4742 26.6459 47.6475 26.8119C47.8208 26.9779 47.9387 27.1891 47.9864 27.4191C48.034 27.649 48.0092 27.8873 47.9151 28.1038C47.8211 28.3203 47.6619 28.5053 47.4578 28.6354C47.2537 28.7656 47.0138 28.8351 46.7683 28.8351C46.5195 28.8536 46.2869 28.9604 46.1163 29.1343C45.9457 29.3083 45.8494 29.5369 45.8462 29.7752C45.8431 30.0135 45.9334 30.2444 46.0994 30.4224C46.2654 30.6003 46.4951 30.7126 46.7433 30.7371H46.7683C47.4554 30.7413 48.1257 30.5348 48.6807 30.148C49.2358 29.7612 49.6462 29.2145 49.8516 28.5884H50.2433C50.5085 28.5884 50.7629 28.4877 50.9504 28.3086C51.138 28.1295 51.2433 27.8866 51.2433 27.6333C51.2433 27.3801 51.138 27.1371 50.9504 26.958C50.7629 26.7789 50.5085 26.6783 50.2433 26.6783Z" fill="url(#paint4_linear_3_7349)"/>
<path id="Vector_6" d="M44.4768 6.52753C43.5848 6.52753 42.7128 6.78013 41.9712 7.25341C41.2295 7.72668 40.6515 8.39936 40.3101 9.18638C39.9688 9.97341 39.8794 10.8394 40.0535 11.6749C40.2275 12.5104 40.657 13.2779 41.2878 13.8802C41.9185 14.4826 42.7221 14.8928 43.597 15.059C44.4718 15.2252 45.3786 15.1399 46.2027 14.8139C47.0268 14.4879 47.7312 13.9359 48.2267 13.2276C48.7223 12.5192 48.9868 11.6865 48.9868 10.8346C48.9864 9.69246 48.5111 8.59717 47.6654 7.78952C46.8197 6.98187 45.6728 6.52795 44.4768 6.52753ZM44.4768 13.2317C43.9804 13.2317 43.4951 13.0911 43.0823 12.8278C42.6696 12.5644 42.3478 12.19 42.1579 11.752C41.9679 11.314 41.9182 10.832 42.015 10.367C42.1119 9.90201 42.3509 9.47489 42.702 9.13965C43.053 8.80441 43.5002 8.57611 43.9871 8.48362C44.474 8.39112 44.9787 8.43859 45.4373 8.62002C45.896 8.80145 46.288 9.1087 46.5638 9.50289C46.8396 9.89709 46.9868 10.3605 46.9868 10.8346C46.9864 11.4703 46.7218 12.0797 46.2512 12.5292C45.7805 12.9786 45.1424 13.2313 44.4768 13.2317Z" fill="url(#paint5_linear_3_7349)"/>
<path id="Vector_7" d="M14.6548 36.8652H14.1548C13.8896 36.8652 13.6352 36.9658 13.4477 37.1449C13.2601 37.324 13.1548 37.5669 13.1548 37.8202C13.1548 38.0735 13.2601 38.3164 13.4477 38.4955C13.6352 38.6746 13.8896 38.7752 14.1548 38.7752H14.6548C14.92 38.7752 15.1744 38.6746 15.3619 38.4955C15.5494 38.3164 15.6548 38.0735 15.6548 37.8202C15.6548 37.5669 15.5494 37.324 15.3619 37.1449C15.1744 36.9658 14.92 36.8652 14.6548 36.8652Z" fill="url(#paint6_linear_3_7349)"/>
<path id="Vector_8" d="M32.3164 36.8652H17.873C17.6078 36.8652 17.3535 36.9658 17.1659 37.1449C16.9784 37.324 16.873 37.5669 16.873 37.8202C16.873 38.0735 16.9784 38.3164 17.1659 38.4955C17.3535 38.6746 17.6078 38.7752 17.873 38.7752H32.3164C32.5816 38.7752 32.836 38.6746 33.0235 38.4955C33.211 38.3164 33.3164 38.0735 33.3164 37.8202C33.3164 37.5669 33.211 37.324 33.0235 37.1449C32.836 36.9658 32.5816 36.8652 32.3164 36.8652Z" fill="url(#paint7_linear_3_7349)"/>
</g>
<defs>
<linearGradient id="paint0_linear_3_7349" x1="4.1499" y1="33.8884" x2="36.1797" y2="39.659" gradientUnits="userSpaceOnUse">
<stop stop-color="#009DF5"/>
<stop offset="1" stop-color="#3CC4FF"/>
</linearGradient>
<linearGradient id="paint1_linear_3_7349" x1="11.9648" y1="46.1745" x2="21.6513" y2="47.0085" gradientUnits="userSpaceOnUse">
<stop stop-color="#009DF5"/>
<stop offset="1" stop-color="#3CC4FF"/>
</linearGradient>
<linearGradient id="paint2_linear_3_7349" x1="0.00439371" y1="-80.5021" x2="117.077" y2="-60.092" gradientUnits="userSpaceOnUse">
<stop stop-color="#009DF5"/>
<stop offset="1" stop-color="#3CC4FF"/>
</linearGradient>
<linearGradient id="paint3_linear_3_7349" x1="63.7334" y1="43.7783" x2="74.9208" y2="46.0304" gradientUnits="userSpaceOnUse">
<stop stop-color="#009DF5"/>
<stop offset="1" stop-color="#3CC4FF"/>
</linearGradient>
<linearGradient id="paint4_linear_3_7349" x1="37.7017" y1="18.2665" x2="55.3568" y2="24.9082" gradientUnits="userSpaceOnUse">
<stop stop-color="#009DF5"/>
<stop offset="1" stop-color="#3CC4FF"/>
</linearGradient>
<linearGradient id="paint5_linear_3_7349" x1="39.9668" y1="-2.20312" x2="52.969" y2="0.1394" gradientUnits="userSpaceOnUse">
<stop stop-color="#009DF5"/>
<stop offset="1" stop-color="#3CC4FF"/>
</linearGradient>
<linearGradient id="paint6_linear_3_7349" x1="13.1548" y1="34.9293" x2="16.6959" y2="35.7268" gradientUnits="userSpaceOnUse">
<stop stop-color="#009DF5"/>
<stop offset="1" stop-color="#3CC4FF"/>
</linearGradient>
<linearGradient id="paint7_linear_3_7349" x1="16.873" y1="34.9293" x2="24.5348" y2="46.2782" gradientUnits="userSpaceOnUse">
<stop stop-color="#009DF5"/>
<stop offset="1" stop-color="#3CC4FF"/>
</linearGradient>
<clipPath id="clip0_3_7349">
<rect width="81.0583" height="80" fill="white" transform="translate(0 0.574585)"/>
</clipPath>
</defs>
</svg>
