<svg width="19" height="16" viewBox="0 0 19 16" fill="none" xmlns="http://www.w3.org/2000/svg">
<g id="Group 56">
<path id="Vector" fill-rule="evenodd" clip-rule="evenodd" d="M9.5 11.1133C9.67405 11.1133 9.84097 11.0402 9.96404 10.9099C10.0871 10.7797 10.1562 10.603 10.1562 10.4188V2.37228L12.9729 5.35449C13.0339 5.41906 13.1063 5.47028 13.186 5.50523C13.2658 5.54018 13.3512 5.55816 13.4375 5.55816C13.5238 5.55816 13.6092 5.54018 13.689 5.50523C13.7687 5.47028 13.8411 5.41906 13.9021 5.35449C13.9631 5.28992 14.0115 5.21326 14.0446 5.12889C14.0776 5.04453 14.0946 4.9541 14.0946 4.86278C14.0946 4.77146 14.0776 4.68104 14.0446 4.59667C14.0115 4.5123 13.9631 4.43564 13.9021 4.37107L9.96463 0.204037C9.90367 0.13936 9.83125 0.0880463 9.75152 0.0530343C9.67179 0.0180222 9.58632 0 9.5 0C9.41368 0 9.32821 0.0180222 9.24848 0.0530343C9.16875 0.0880463 9.09633 0.13936 9.03537 0.204037L5.09787 4.37107C4.97465 4.50148 4.90542 4.67835 4.90542 4.86278C4.90542 5.04721 4.97465 5.22408 5.09787 5.35449C5.2211 5.4849 5.38823 5.55816 5.5625 5.55816C5.73677 5.55816 5.9039 5.4849 6.02713 5.35449L8.84375 2.37228V10.4188C8.84375 10.603 8.91289 10.7797 9.03596 10.9099C9.15903 11.0402 9.32595 11.1133 9.5 11.1133ZM0.3125 14.5859C0.3125 14.4017 0.38164 14.225 0.504711 14.0948C0.627782 13.9645 0.794702 13.8914 0.96875 13.8914H18.0312C18.2053 13.8914 18.3722 13.9645 18.4953 14.0948C18.6184 14.225 18.6875 14.4017 18.6875 14.5859C18.6875 14.7701 18.6184 14.9467 18.4953 15.077C18.3722 15.2072 18.2053 15.2804 18.0312 15.2804H0.96875C0.794702 15.2804 0.627782 15.2072 0.504711 15.077C0.38164 14.9467 0.3125 14.7701 0.3125 14.5859Z" fill="#767676"/>
</g>
</svg>
