<svg width="15" height="15" viewBox="0 0 15 15" fill="none" xmlns="http://www.w3.org/2000/svg">
<path fill-rule="evenodd" clip-rule="evenodd" d="M6.5 12.5C7.8845 12.5 9.15725 12.0237 10.1728 11.234L13.4698 14.531L14.5302 13.4705L11.2332 10.1735C12.0238 9.15725 12.5 7.8845 12.5 6.5C12.5 3.19175 9.80825 0.5 6.5 0.5C3.19175 0.5 0.5 3.19175 0.5 6.5C0.5 9.80825 3.19175 12.5 6.5 12.5ZM6.50009 2C8.98184 2 11.0001 4.01825 11.0001 6.5C11.0001 8.98175 8.98184 11 6.50009 11C4.01834 11 2.00009 8.98175 2.00009 6.5C2.00009 4.01825 4.01834 2 6.50009 2Z" fill="#74788D"/>
</svg>
