<svg width="23" height="22" viewBox="0 0 23 22" fill="none" xmlns="http://www.w3.org/2000/svg">
<g id="Setting">
<path id="Shape" fill-rule="evenodd" clip-rule="evenodd" d="M11.0824 14.6667C13.1046 14.6667 14.7491 13.0222 14.7491 11C14.7491 8.97784 13.1046 7.33334 11.0824 7.33334C9.06027 7.33334 7.41577 8.97784 7.41577 11C7.41577 13.0222 9.06027 14.6667 11.0824 14.6667ZM11.0825 9.16667C12.0761 9.16667 12.9158 10.0063 12.9158 11C12.9158 11.9937 12.0761 12.8333 11.0825 12.8333C10.0888 12.8333 9.24915 11.9937 9.24915 11C9.24915 10.0063 10.0888 9.16667 11.0825 9.16667Z" fill="#555B6D"/>
<path id="Shape_2" fill-rule="evenodd" clip-rule="evenodd" d="M2.69032 14.7913L3.60698 16.3772C4.09373 17.2178 5.26523 17.5331 6.10948 17.0463L6.5944 16.7658C7.1279 17.1848 7.71365 17.5285 8.3324 17.7852V18.3333C8.3324 19.3444 9.15465 20.1667 10.1657 20.1667H11.9991C13.0102 20.1667 13.8324 19.3444 13.8324 18.3333V17.7852C14.4512 17.5285 15.0369 17.1848 15.5704 16.7668L16.0553 17.0473C16.9014 17.5331 18.0702 17.2196 18.5587 16.3772L19.4745 14.7923C19.9805 13.9168 19.6798 12.793 18.8044 12.2879L18.3415 12.0203C18.391 11.6802 18.4157 11.3401 18.4157 11C18.4157 10.6599 18.391 10.3189 18.3415 9.98159L18.8044 9.71392C19.6798 9.20792 19.9805 8.085 19.4745 7.20959L18.5587 5.62467C18.072 4.78134 16.9014 4.46509 16.0553 4.95367L15.5704 5.23417C15.0369 4.81525 14.4512 4.4715 13.8324 4.21484V3.66667C13.8324 2.65559 13.0102 1.83334 11.9991 1.83334H10.1657C9.15465 1.83334 8.3324 2.65559 8.3324 3.66667V4.21484C7.71365 4.4715 7.1279 4.81525 6.5944 5.23325L6.10948 4.95275C5.26248 4.466 4.09282 4.78134 3.60607 5.62375L2.69032 7.20867C2.18432 8.08409 2.48498 9.20792 3.3604 9.713L3.82332 9.98067C3.77382 10.3189 3.74907 10.6599 3.74907 11C3.74907 11.3401 3.77382 11.6802 3.82332 12.0184L3.3604 12.2861C2.48498 12.7921 2.18432 13.9159 2.69032 14.7913ZM5.73918 12.2632C5.6356 11.8479 5.58243 11.4226 5.58243 11C5.58243 10.5765 5.6356 10.1512 5.73827 9.73684C5.83727 9.33992 5.66218 8.92559 5.30743 8.72117L4.27802 8.12534L5.19285 6.54042L6.24243 7.14725C6.59443 7.34984 7.03718 7.2985 7.33143 7.01709C7.95752 6.424 8.71285 5.98034 9.51677 5.73467C9.90268 5.61734 10.1658 5.26075 10.1658 4.85834V3.66667H11.9991V4.85834C11.9991 5.26075 12.2622 5.61734 12.6481 5.73467C13.452 5.98125 14.2073 6.424 14.8334 7.01709C15.1277 7.2985 15.5723 7.34892 15.9224 7.14725L16.9711 6.54134L17.8878 8.12625L16.8574 8.72117C16.5027 8.9265 16.3276 9.34084 16.4266 9.73684C16.5293 10.1512 16.5824 10.5765 16.5824 11C16.5824 11.4226 16.5293 11.8479 16.4257 12.2632C16.3276 12.6601 16.5027 13.0744 16.8574 13.2788L17.8869 13.8738L16.972 15.4587L15.9224 14.8528C15.5714 14.6502 15.1277 14.7006 14.8334 14.9829C14.2074 15.576 13.452 16.0197 12.6481 16.2653C12.2622 16.3827 11.9991 16.7393 11.9991 17.1417L12.0009 18.3333H10.1658V17.1417C10.1658 16.7393 9.90268 16.3827 9.51677 16.2653C8.71285 16.0188 7.95752 15.576 7.33143 14.9829C7.15727 14.8161 6.92993 14.7308 6.70077 14.7308C6.5431 14.7308 6.38543 14.7712 6.24243 14.8537L5.19377 15.4605L4.2771 13.8756L5.30743 13.2788C5.66218 13.0744 5.83727 12.6601 5.73918 12.2632Z" fill="#555B6D"/>
</g>
</svg>
